G04 Layer: TopSilkLayer*
G04 EasyEDA v6.4.14, 2021-02-02T13:22:32--5:00*
G04 99f0f78b573744e3acd602d4f8b6235f,d79a69aa59da4e1fbb9b7d465b79b5da,10*
G04 Gerber Generator version 0.2*
G04 Scale: 100 percent, Rotated: No, Reflected: No *
G04 Dimensions in millimeters *
G04 leading zeros omitted , absolute positions ,4 integer and 5 decimal *
%FSLAX45Y45*%
%MOMM*%

%ADD10C,0.2540*%
%ADD24C,0.2032*%
%ADD25C,0.2030*%
%ADD26C,0.1524*%

%LPD*%
D24*
X2949193Y2005076D02*
G01*
X2949193Y1923034D01*
X2908300Y1964181D02*
G01*
X2990088Y1964181D01*
X3074670Y2018537D02*
G01*
X3029204Y2018537D01*
X3024631Y1977644D01*
X3029204Y1982215D01*
X3042920Y1986787D01*
X3056381Y1986787D01*
X3070097Y1982215D01*
X3079241Y1973071D01*
X3083813Y1959610D01*
X3083813Y1950465D01*
X3079241Y1936750D01*
X3070097Y1927605D01*
X3056381Y1923034D01*
X3042920Y1923034D01*
X3029204Y1927605D01*
X3024631Y1932178D01*
X3020059Y1941321D01*
X3113786Y2018537D02*
G01*
X3150108Y1923034D01*
X3186429Y2018537D02*
G01*
X3150108Y1923034D01*
X2989072Y1729231D02*
G01*
X2984754Y1738376D01*
X2975609Y1747265D01*
X2966465Y1751837D01*
X2948177Y1751837D01*
X2939288Y1747265D01*
X2930143Y1738376D01*
X2925572Y1729231D01*
X2921000Y1715515D01*
X2921000Y1692910D01*
X2925572Y1679194D01*
X2930143Y1670050D01*
X2939288Y1660905D01*
X2948177Y1656334D01*
X2966465Y1656334D01*
X2975609Y1660905D01*
X2984754Y1670050D01*
X2989072Y1679194D01*
X2989072Y1692910D01*
X2966465Y1692910D02*
G01*
X2989072Y1692910D01*
X3019297Y1751837D02*
G01*
X3019297Y1656334D01*
X3019297Y1751837D02*
G01*
X3082797Y1656334D01*
X3082797Y1751837D02*
G01*
X3082797Y1656334D01*
X3112770Y1751837D02*
G01*
X3112770Y1656334D01*
X3112770Y1751837D02*
G01*
X3144520Y1751837D01*
X3158236Y1747265D01*
X3167379Y1738376D01*
X3171952Y1729231D01*
X3176524Y1715515D01*
X3176524Y1692910D01*
X3171952Y1679194D01*
X3167379Y1670050D01*
X3158236Y1660905D01*
X3144520Y1656334D01*
X3112770Y1656334D01*
X2921000Y1497837D02*
G01*
X2921000Y1402334D01*
X2921000Y1497837D02*
G01*
X2961893Y1497837D01*
X2975609Y1493265D01*
X2980181Y1488694D01*
X2984754Y1479804D01*
X2984754Y1466087D01*
X2980181Y1456944D01*
X2975609Y1452371D01*
X2961893Y1447800D01*
X2921000Y1447800D01*
X3041904Y1497837D02*
G01*
X3032759Y1493265D01*
X3023615Y1484376D01*
X3019297Y1475231D01*
X3014725Y1461515D01*
X3014725Y1438910D01*
X3019297Y1425194D01*
X3023615Y1416050D01*
X3032759Y1406905D01*
X3041904Y1402334D01*
X3060191Y1402334D01*
X3069081Y1406905D01*
X3078225Y1416050D01*
X3082797Y1425194D01*
X3087370Y1438910D01*
X3087370Y1461515D01*
X3082797Y1475231D01*
X3078225Y1484376D01*
X3069081Y1493265D01*
X3060191Y1497837D01*
X3041904Y1497837D01*
X3149091Y1497837D02*
G01*
X3149091Y1402334D01*
X3117341Y1497837D02*
G01*
X3181095Y1497837D01*
X3211068Y1497837D02*
G01*
X3274568Y1402334D01*
X3274568Y1497837D02*
G01*
X3211068Y1402334D01*
X2921000Y1231137D02*
G01*
X2921000Y1135634D01*
X2921000Y1231137D02*
G01*
X2961893Y1231137D01*
X2975609Y1226565D01*
X2980181Y1221994D01*
X2984754Y1213104D01*
X2984754Y1199387D01*
X2980181Y1190244D01*
X2975609Y1185671D01*
X2961893Y1181100D01*
X2921000Y1181100D01*
X3041904Y1231137D02*
G01*
X3032759Y1226565D01*
X3023615Y1217676D01*
X3019297Y1208531D01*
X3014725Y1194815D01*
X3014725Y1172210D01*
X3019297Y1158494D01*
X3023615Y1149350D01*
X3032759Y1140205D01*
X3041904Y1135634D01*
X3060191Y1135634D01*
X3069081Y1140205D01*
X3078225Y1149350D01*
X3082797Y1158494D01*
X3087370Y1172210D01*
X3087370Y1194815D01*
X3082797Y1208531D01*
X3078225Y1217676D01*
X3069081Y1226565D01*
X3060191Y1231137D01*
X3041904Y1231137D01*
X3149091Y1231137D02*
G01*
X3149091Y1135634D01*
X3117341Y1231137D02*
G01*
X3181095Y1231137D01*
X3211068Y1231137D02*
G01*
X3247390Y1185671D01*
X3247390Y1135634D01*
X3283711Y1231137D02*
G01*
X3247390Y1185671D01*
X2533650Y862837D02*
G01*
X2533650Y767334D01*
X2501900Y862837D02*
G01*
X2565654Y862837D01*
X2618231Y831087D02*
G01*
X2609088Y826515D01*
X2600197Y817371D01*
X2595625Y803910D01*
X2595625Y794765D01*
X2600197Y781050D01*
X2609088Y771905D01*
X2618231Y767334D01*
X2631947Y767334D01*
X2641091Y771905D01*
X2649981Y781050D01*
X2654554Y794765D01*
X2654554Y803910D01*
X2649981Y817371D01*
X2641091Y826515D01*
X2631947Y831087D01*
X2618231Y831087D01*
X2684525Y831087D02*
G01*
X2684525Y735584D01*
X2684525Y817371D02*
G01*
X2693670Y826515D01*
X2702813Y831087D01*
X2716529Y831087D01*
X2725420Y826515D01*
X2734563Y817371D01*
X2739136Y803910D01*
X2739136Y794765D01*
X2734563Y781050D01*
X2725420Y771905D01*
X2716529Y767334D01*
X2702813Y767334D01*
X2693670Y771905D01*
X2684525Y781050D01*
X736600Y3191763D02*
G01*
X736600Y3067812D01*
X736600Y3191763D02*
G01*
X813307Y3191763D01*
X736600Y3132836D02*
G01*
X783844Y3132836D01*
X736600Y3067812D02*
G01*
X813307Y3067812D01*
X852423Y3150615D02*
G01*
X917447Y3067812D01*
X917447Y3150615D02*
G01*
X852423Y3067812D01*
X974089Y3191763D02*
G01*
X974089Y3091434D01*
X979931Y3073654D01*
X991870Y3067812D01*
X1003807Y3067812D01*
X956310Y3150615D02*
G01*
X997712Y3150615D01*
X1042670Y3115055D02*
G01*
X1113536Y3115055D01*
X1113536Y3126994D01*
X1107694Y3138678D01*
X1101852Y3144520D01*
X1089913Y3150615D01*
X1072134Y3150615D01*
X1060450Y3144520D01*
X1048512Y3132836D01*
X1042670Y3115055D01*
X1042670Y3103371D01*
X1048512Y3085592D01*
X1060450Y3073654D01*
X1072134Y3067812D01*
X1089913Y3067812D01*
X1101852Y3073654D01*
X1113536Y3085592D01*
X1152652Y3150615D02*
G01*
X1152652Y3067812D01*
X1152652Y3126994D02*
G01*
X1170431Y3144520D01*
X1182115Y3150615D01*
X1199895Y3150615D01*
X1211579Y3144520D01*
X1217676Y3126994D01*
X1217676Y3067812D01*
X1321562Y3132836D02*
G01*
X1315720Y3144520D01*
X1297939Y3150615D01*
X1280160Y3150615D01*
X1262634Y3144520D01*
X1256537Y3132836D01*
X1262634Y3120897D01*
X1274318Y3115055D01*
X1303781Y3109213D01*
X1315720Y3103371D01*
X1321562Y3091434D01*
X1321562Y3085592D01*
X1315720Y3073654D01*
X1297939Y3067812D01*
X1280160Y3067812D01*
X1262634Y3073654D01*
X1256537Y3085592D01*
X1360678Y3191763D02*
G01*
X1366520Y3185921D01*
X1372362Y3191763D01*
X1366520Y3197860D01*
X1360678Y3191763D01*
X1366520Y3150615D02*
G01*
X1366520Y3067812D01*
X1440942Y3150615D02*
G01*
X1429257Y3144520D01*
X1417320Y3132836D01*
X1411478Y3115055D01*
X1411478Y3103371D01*
X1417320Y3085592D01*
X1429257Y3073654D01*
X1440942Y3067812D01*
X1458721Y3067812D01*
X1470405Y3073654D01*
X1482344Y3085592D01*
X1488186Y3103371D01*
X1488186Y3115055D01*
X1482344Y3132836D01*
X1470405Y3144520D01*
X1458721Y3150615D01*
X1440942Y3150615D01*
X1527302Y3150615D02*
G01*
X1527302Y3067812D01*
X1527302Y3126994D02*
G01*
X1545081Y3144520D01*
X1556765Y3150615D01*
X1574545Y3150615D01*
X1586229Y3144520D01*
X1592326Y3126994D01*
X1592326Y3067812D01*
X1719834Y3162300D02*
G01*
X1713992Y3174237D01*
X1702054Y3185921D01*
X1690370Y3191763D01*
X1666747Y3191763D01*
X1654810Y3185921D01*
X1643126Y3174237D01*
X1637029Y3162300D01*
X1631187Y3144520D01*
X1631187Y3115055D01*
X1637029Y3097276D01*
X1643126Y3085592D01*
X1654810Y3073654D01*
X1666747Y3067812D01*
X1690370Y3067812D01*
X1702054Y3073654D01*
X1713992Y3085592D01*
X1719834Y3097276D01*
X1776476Y3191763D02*
G01*
X1776476Y3091434D01*
X1782571Y3073654D01*
X1794255Y3067812D01*
X1806194Y3067812D01*
X1758950Y3150615D02*
G01*
X1800352Y3150615D01*
X1845055Y3150615D02*
G01*
X1845055Y3067812D01*
X1845055Y3115055D02*
G01*
X1851152Y3132836D01*
X1862836Y3144520D01*
X1874773Y3150615D01*
X1892300Y3150615D01*
X1931415Y3191763D02*
G01*
X1931415Y3067812D01*
X2079243Y3191763D02*
G01*
X2079243Y3091434D01*
X2085086Y3073654D01*
X2096770Y3067812D01*
X2108708Y3067812D01*
X2061463Y3150615D02*
G01*
X2102865Y3150615D01*
X2177288Y3150615D02*
G01*
X2165350Y3144520D01*
X2153665Y3132836D01*
X2147570Y3115055D01*
X2147570Y3103371D01*
X2153665Y3085592D01*
X2165350Y3073654D01*
X2177288Y3067812D01*
X2195068Y3067812D01*
X2206752Y3073654D01*
X2218690Y3085592D01*
X2224531Y3103371D01*
X2224531Y3115055D01*
X2218690Y3132836D01*
X2206752Y3144520D01*
X2195068Y3150615D01*
X2177288Y3150615D01*
X2443225Y3162300D02*
G01*
X2437129Y3174237D01*
X2425445Y3185921D01*
X2413508Y3191763D01*
X2389886Y3191763D01*
X2378202Y3185921D01*
X2366263Y3174237D01*
X2360422Y3162300D01*
X2354579Y3144520D01*
X2354579Y3115055D01*
X2360422Y3097276D01*
X2366263Y3085592D01*
X2378202Y3073654D01*
X2389886Y3067812D01*
X2413508Y3067812D01*
X2425445Y3073654D01*
X2437129Y3085592D01*
X2443225Y3097276D01*
X2552954Y3174237D02*
G01*
X2547111Y3185921D01*
X2529331Y3191763D01*
X2517647Y3191763D01*
X2499868Y3185921D01*
X2487929Y3168142D01*
X2482088Y3138678D01*
X2482088Y3109213D01*
X2487929Y3085592D01*
X2499868Y3073654D01*
X2517647Y3067812D01*
X2523490Y3067812D01*
X2541270Y3073654D01*
X2552954Y3085592D01*
X2559050Y3103371D01*
X2559050Y3109213D01*
X2552954Y3126994D01*
X2541270Y3138678D01*
X2523490Y3144520D01*
X2517647Y3144520D01*
X2499868Y3138678D01*
X2487929Y3126994D01*
X2482088Y3109213D01*
X2657093Y3191763D02*
G01*
X2597911Y3109213D01*
X2686558Y3109213D01*
X2657093Y3191763D02*
G01*
X2657093Y3067812D01*
D26*
X1230884Y1943100D02*
G01*
X1308862Y1943100D01*
X1324355Y1948179D01*
X1334770Y1958594D01*
X1339850Y1974342D01*
X1339850Y1984755D01*
X1334770Y2000250D01*
X1324355Y2010663D01*
X1308862Y2015744D01*
X1230884Y2015744D01*
X1256792Y2055368D02*
G01*
X1251712Y2055368D01*
X1241297Y2060447D01*
X1235963Y2065781D01*
X1230884Y2076195D01*
X1230884Y2096770D01*
X1235963Y2107184D01*
X1241297Y2112518D01*
X1251712Y2117597D01*
X1262126Y2117597D01*
X1272539Y2112518D01*
X1288034Y2102104D01*
X1339850Y2050034D01*
X1339850Y2122931D01*
X2462784Y1498600D02*
G01*
X2571750Y1498600D01*
X2462784Y1571244D02*
G01*
X2571750Y1571244D01*
X2514600Y1498600D02*
G01*
X2514600Y1571244D01*
X2488691Y1610868D02*
G01*
X2483611Y1610868D01*
X2473197Y1615947D01*
X2467863Y1621281D01*
X2462784Y1631695D01*
X2462784Y1652270D01*
X2467863Y1662684D01*
X2473197Y1668018D01*
X2483611Y1673097D01*
X2494025Y1673097D01*
X2504440Y1668018D01*
X2519934Y1657604D01*
X2571750Y1605534D01*
X2571750Y1678431D01*
X2426970Y3747515D02*
G01*
X2426970Y3664457D01*
X2421636Y3648710D01*
X2416556Y3643629D01*
X2406141Y3638550D01*
X2395727Y3638550D01*
X2385313Y3643629D01*
X2379979Y3648710D01*
X2374900Y3664457D01*
X2374900Y3674871D01*
X2461259Y3747515D02*
G01*
X2461259Y3638550D01*
X2461259Y3747515D02*
G01*
X2507995Y3747515D01*
X2523490Y3742436D01*
X2528570Y3737102D01*
X2533904Y3726687D01*
X2533904Y3711194D01*
X2528570Y3700779D01*
X2523490Y3695700D01*
X2507995Y3690365D01*
X2461259Y3690365D01*
X2568193Y3726687D02*
G01*
X2578608Y3732021D01*
X2594102Y3747515D01*
X2594102Y3638550D01*
X1447800Y1017015D02*
G01*
X1447800Y908050D01*
X1447800Y1017015D02*
G01*
X1520444Y908050D01*
X1520444Y1017015D02*
G01*
X1520444Y908050D01*
X1585976Y1017015D02*
G01*
X1575562Y1011936D01*
X1565147Y1001521D01*
X1560068Y991107D01*
X1554734Y975360D01*
X1554734Y949452D01*
X1560068Y933957D01*
X1565147Y923544D01*
X1575562Y913129D01*
X1585976Y908050D01*
X1606804Y908050D01*
X1617218Y913129D01*
X1627631Y923544D01*
X1632712Y933957D01*
X1638045Y949452D01*
X1638045Y975360D01*
X1632712Y991107D01*
X1627631Y1001521D01*
X1617218Y1011936D01*
X1606804Y1017015D01*
X1585976Y1017015D01*
X1708657Y1017015D02*
G01*
X1708657Y908050D01*
X1672336Y1017015D02*
G01*
X1744979Y1017015D01*
X1857247Y991107D02*
G01*
X1851913Y1001521D01*
X1841500Y1011936D01*
X1831339Y1017015D01*
X1810512Y1017015D01*
X1800097Y1011936D01*
X1789684Y1001521D01*
X1784350Y991107D01*
X1779270Y975360D01*
X1779270Y949452D01*
X1784350Y933957D01*
X1789684Y923544D01*
X1800097Y913129D01*
X1810512Y908050D01*
X1831339Y908050D01*
X1841500Y913129D01*
X1851913Y923544D01*
X1857247Y933957D01*
X1891537Y1017015D02*
G01*
X1891537Y908050D01*
X1964181Y1017015D02*
G01*
X1964181Y908050D01*
X1891537Y965200D02*
G01*
X1964181Y965200D01*
X3149600Y826515D02*
G01*
X3149600Y748537D01*
X3154679Y733044D01*
X3165093Y722629D01*
X3180841Y717550D01*
X3191256Y717550D01*
X3206750Y722629D01*
X3217163Y733044D01*
X3222243Y748537D01*
X3222243Y826515D01*
X3329431Y826515D02*
G01*
X3277361Y717550D01*
X3256534Y826515D02*
G01*
X3329431Y826515D01*
X63500Y813815D02*
G01*
X63500Y735837D01*
X68579Y720344D01*
X78994Y709929D01*
X94742Y704850D01*
X105155Y704850D01*
X120650Y709929D01*
X131063Y720344D01*
X136144Y735837D01*
X136144Y813815D01*
X196595Y813815D02*
G01*
X180847Y808736D01*
X175768Y798321D01*
X175768Y787907D01*
X180847Y777494D01*
X191262Y772160D01*
X212089Y767079D01*
X227584Y762000D01*
X237997Y751586D01*
X243331Y741171D01*
X243331Y725423D01*
X237997Y715010D01*
X232918Y709929D01*
X217170Y704850D01*
X196595Y704850D01*
X180847Y709929D01*
X175768Y715010D01*
X170434Y725423D01*
X170434Y741171D01*
X175768Y751586D01*
X186181Y762000D01*
X201676Y767079D01*
X222504Y772160D01*
X232918Y777494D01*
X237997Y787907D01*
X237997Y798321D01*
X232918Y808736D01*
X217170Y813815D01*
X196595Y813815D01*
X3162300Y3163315D02*
G01*
X3162300Y3085337D01*
X3167379Y3069844D01*
X3177793Y3059429D01*
X3193541Y3054350D01*
X3203956Y3054350D01*
X3219450Y3059429D01*
X3229863Y3069844D01*
X3234943Y3085337D01*
X3234943Y3163315D01*
X3336797Y3126994D02*
G01*
X3331718Y3111500D01*
X3321304Y3101086D01*
X3305809Y3095752D01*
X3300475Y3095752D01*
X3284981Y3101086D01*
X3274568Y3111500D01*
X3269234Y3126994D01*
X3269234Y3132073D01*
X3274568Y3147821D01*
X3284981Y3158236D01*
X3300475Y3163315D01*
X3305809Y3163315D01*
X3321304Y3158236D01*
X3331718Y3147821D01*
X3336797Y3126994D01*
X3336797Y3101086D01*
X3331718Y3074923D01*
X3321304Y3059429D01*
X3305809Y3054350D01*
X3295395Y3054350D01*
X3279647Y3059429D01*
X3274568Y3069844D01*
D10*
X582701Y1506601D02*
G01*
X582701Y2506598D01*
X1982698Y2506598D01*
X1982698Y1506601D01*
X582701Y1506601D01*
D24*
X2616200Y2082800D02*
G01*
X2870200Y2082800D01*
X2870200Y1066800D01*
X2616200Y1066800D01*
X2616200Y1257300D01*
D25*
X2616200Y2082800D02*
G01*
X2616200Y1257300D01*
D10*
X175260Y3276600D02*
G01*
X175260Y3810000D01*
X3253740Y3276600D02*
G01*
X3253740Y3810000D01*
X175260Y3276600D02*
G01*
X3253740Y3276600D01*
G75*
G01
X342697Y1246607D02*
G03X342697Y1246607I-40005J0D01*
M02*
