G04 Layer: TopSolderMaskLayer*
G04 EasyEDA v6.4.14, 2021-02-02T13:22:32--5:00*
G04 99f0f78b573744e3acd602d4f8b6235f,d79a69aa59da4e1fbb9b7d465b79b5da,10*
G04 Gerber Generator version 0.2*
G04 Scale: 100 percent, Rotated: No, Reflected: No *
G04 Dimensions in millimeters *
G04 leading zeros omitted , absolute positions ,4 integer and 5 decimal *
%FSLAX45Y45*%
%MOMM*%

%ADD15R,1.9000X7.5000*%
%ADD31C,1.9032*%
%ADD33C,2.0828*%
%ADD34C,5.2832*%
%ADD35C,6.4532*%

%LPD*%
G36*
X1829307Y774700D02*
G01*
X1829307Y24688D01*
X2019300Y24688D01*
X2019300Y774700D01*
G37*
G36*
X1394714Y774700D02*
G01*
X1394714Y24688D01*
X1584706Y24688D01*
X1584706Y774700D01*
G37*
G36*
X410463Y1069339D02*
G01*
X410463Y1419860D01*
X630936Y1419860D01*
X630936Y1069339D01*
G37*
G36*
X664463Y1069339D02*
G01*
X664463Y1419860D01*
X884936Y1419860D01*
X884936Y1069339D01*
G37*
G36*
X918463Y1069339D02*
G01*
X918463Y1419860D01*
X1138936Y1419860D01*
X1138936Y1069339D01*
G37*
G36*
X1172463Y1069339D02*
G01*
X1172463Y1419860D01*
X1392936Y1419860D01*
X1392936Y1069339D01*
G37*
G36*
X1426463Y1069339D02*
G01*
X1426463Y1419860D01*
X1646936Y1419860D01*
X1646936Y1069339D01*
G37*
G36*
X1680463Y1069339D02*
G01*
X1680463Y1419860D01*
X1900936Y1419860D01*
X1900936Y1069339D01*
G37*
G36*
X1934463Y1069339D02*
G01*
X1934463Y1419860D01*
X2154936Y1419860D01*
X2154936Y1069339D01*
G37*
G36*
X1934463Y2593339D02*
G01*
X1934463Y2943860D01*
X2154936Y2943860D01*
X2154936Y2593339D01*
G37*
G36*
X1680463Y2593339D02*
G01*
X1680463Y2943860D01*
X1900936Y2943860D01*
X1900936Y2593339D01*
G37*
G36*
X1426463Y2593339D02*
G01*
X1426463Y2943860D01*
X1646936Y2943860D01*
X1646936Y2593339D01*
G37*
G36*
X1172463Y2593339D02*
G01*
X1172463Y2943860D01*
X1392936Y2943860D01*
X1392936Y2593339D01*
G37*
G36*
X918463Y2593339D02*
G01*
X918463Y2943860D01*
X1138936Y2943860D01*
X1138936Y2593339D01*
G37*
G36*
X664463Y2593339D02*
G01*
X664463Y2943860D01*
X884936Y2943860D01*
X884936Y2593339D01*
G37*
G36*
X410463Y2593339D02*
G01*
X410463Y2943860D01*
X630936Y2943860D01*
X630936Y2593339D01*
G37*
G36*
X2037588Y1811528D02*
G01*
X2037588Y1941829D01*
X2287777Y1941829D01*
X2287777Y1811528D01*
G37*
G36*
X2037588Y2071370D02*
G01*
X2037588Y2201671D01*
X2287777Y2201671D01*
X2287777Y2071370D01*
G37*
G36*
X2647950Y1098550D02*
G01*
X2647950Y1289050D01*
X2838450Y1289050D01*
X2838450Y1098550D01*
G37*
D31*
G01*
X2743200Y1447800D03*
G01*
X2743200Y1701800D03*
G01*
X2743200Y1955800D03*
G36*
X1056639Y3309620D02*
G01*
X1056639Y3517900D01*
X1264920Y3517900D01*
X1264920Y3309620D01*
G37*
D33*
G01*
X1437639Y3413760D03*
G01*
X1714500Y3413760D03*
G01*
X1991359Y3413760D03*
G01*
X2268220Y3413760D03*
G01*
X1300479Y3698239D03*
G01*
X1577339Y3698239D03*
G01*
X1851660Y3698239D03*
G01*
X2128520Y3698239D03*
D34*
G01*
X464820Y3556000D03*
G01*
X2964179Y3556000D03*
D15*
G01*
X1924304Y399795D03*
G01*
X1489710Y399795D03*
D35*
G01*
X3048000Y355600D03*
G01*
X355600Y355600D03*
G01*
X3048000Y2705100D03*
M02*
