G04 Layer: BottomSilkLayer*
G04 EasyEDA v6.4.14, 2021-02-02T13:22:32--5:00*
G04 99f0f78b573744e3acd602d4f8b6235f,d79a69aa59da4e1fbb9b7d465b79b5da,10*
G04 Gerber Generator version 0.2*
G04 Scale: 100 percent, Rotated: No, Reflected: No *
G04 Dimensions in millimeters *
G04 leading zeros omitted , absolute positions ,4 integer and 5 decimal *
%FSLAX45Y45*%
%MOMM*%

%ADD10C,0.2540*%
%ADD24C,0.2032*%
%ADD26C,0.1524*%
%ADD27C,0.2000*%

%LPD*%
D24*
X927100Y850209D02*
G01*
X927100Y754753D01*
X927100Y850209D02*
G01*
X886190Y850209D01*
X872553Y845662D01*
X868009Y841118D01*
X863462Y832027D01*
X863462Y822937D01*
X868009Y813846D01*
X872553Y809299D01*
X886190Y804753D01*
X927100Y804753D02*
G01*
X886190Y804753D01*
X872553Y800209D01*
X868009Y795662D01*
X863462Y786571D01*
X863462Y772937D01*
X868009Y763846D01*
X872553Y759299D01*
X886190Y754753D01*
X927100Y754753D01*
X810737Y818390D02*
G01*
X819828Y813846D01*
X828918Y804753D01*
X833462Y791118D01*
X833462Y782027D01*
X828918Y768390D01*
X819828Y759299D01*
X810737Y754753D01*
X797100Y754753D01*
X788009Y759299D01*
X778918Y768390D01*
X774372Y782027D01*
X774372Y791118D01*
X778918Y804753D01*
X788009Y813846D01*
X797100Y818390D01*
X810737Y818390D01*
X730735Y850209D02*
G01*
X730735Y772937D01*
X726191Y759299D01*
X717100Y754753D01*
X708009Y754753D01*
X744372Y818390D02*
G01*
X712553Y818390D01*
X664372Y850209D02*
G01*
X664372Y772937D01*
X659828Y759299D01*
X650735Y754753D01*
X641644Y754753D01*
X678009Y818390D02*
G01*
X646191Y818390D01*
X588919Y818390D02*
G01*
X598009Y813846D01*
X607100Y804753D01*
X611644Y791118D01*
X611644Y782027D01*
X607100Y768390D01*
X598009Y759299D01*
X588919Y754753D01*
X575282Y754753D01*
X566191Y759299D01*
X557100Y768390D01*
X552554Y782027D01*
X552554Y791118D01*
X557100Y804753D01*
X566191Y813846D01*
X575282Y818390D01*
X588919Y818390D01*
X522554Y818390D02*
G01*
X522554Y754753D01*
X522554Y800209D02*
G01*
X508916Y813846D01*
X499826Y818390D01*
X486191Y818390D01*
X477100Y813846D01*
X472554Y800209D01*
X472554Y754753D01*
X472554Y800209D02*
G01*
X458917Y813846D01*
X449826Y818390D01*
X436191Y818390D01*
X427101Y813846D01*
X422554Y800209D01*
X422554Y754753D01*
X2679700Y3204580D02*
G01*
X2679700Y3080491D01*
X2679700Y3204580D02*
G01*
X2602882Y3204580D01*
X2679700Y3145490D02*
G01*
X2632428Y3145490D01*
X2679700Y3080491D02*
G01*
X2602882Y3080491D01*
X2563881Y3163216D02*
G01*
X2498882Y3080491D01*
X2498882Y3163216D02*
G01*
X2563881Y3080491D01*
X2442154Y3204580D02*
G01*
X2442154Y3104126D01*
X2436246Y3086399D01*
X2424427Y3080491D01*
X2412608Y3080491D01*
X2459880Y3163216D02*
G01*
X2418519Y3163216D01*
X2373609Y3127763D02*
G01*
X2302700Y3127763D01*
X2302700Y3139582D01*
X2308608Y3151400D01*
X2314519Y3157308D01*
X2326335Y3163216D01*
X2344064Y3163216D01*
X2355883Y3157308D01*
X2367699Y3145490D01*
X2373609Y3127763D01*
X2373609Y3115945D01*
X2367699Y3098218D01*
X2355883Y3086399D01*
X2344064Y3080491D01*
X2326335Y3080491D01*
X2314519Y3086399D01*
X2302700Y3098218D01*
X2263698Y3163216D02*
G01*
X2263698Y3080491D01*
X2263698Y3139582D02*
G01*
X2245972Y3157308D01*
X2234153Y3163216D01*
X2216426Y3163216D01*
X2204608Y3157308D01*
X2198700Y3139582D01*
X2198700Y3080491D01*
X2094699Y3145490D02*
G01*
X2100607Y3157308D01*
X2118337Y3163216D01*
X2136063Y3163216D01*
X2153790Y3157308D01*
X2159701Y3145490D01*
X2153790Y3133671D01*
X2141971Y3127763D01*
X2112426Y3121855D01*
X2100607Y3115945D01*
X2094699Y3104126D01*
X2094699Y3098218D01*
X2100607Y3086399D01*
X2118337Y3080491D01*
X2136063Y3080491D01*
X2153790Y3086399D01*
X2159701Y3098218D01*
X2055700Y3204580D02*
G01*
X2049790Y3198672D01*
X2043882Y3204580D01*
X2049790Y3210491D01*
X2055700Y3204580D01*
X2049790Y3163216D02*
G01*
X2049790Y3080491D01*
X1975335Y3163216D02*
G01*
X1987153Y3157308D01*
X1998972Y3145490D01*
X2004882Y3127763D01*
X2004882Y3115945D01*
X1998972Y3098218D01*
X1987153Y3086399D01*
X1975335Y3080491D01*
X1957608Y3080491D01*
X1945789Y3086399D01*
X1933973Y3098218D01*
X1928063Y3115945D01*
X1928063Y3127763D01*
X1933973Y3145490D01*
X1945789Y3157308D01*
X1957608Y3163216D01*
X1975335Y3163216D01*
X1889064Y3163216D02*
G01*
X1889064Y3080491D01*
X1889064Y3139582D02*
G01*
X1871337Y3157308D01*
X1859518Y3163216D01*
X1841792Y3163216D01*
X1829973Y3157308D01*
X1824062Y3139582D01*
X1824062Y3080491D01*
X1696427Y3175035D02*
G01*
X1702335Y3186854D01*
X1714154Y3198672D01*
X1725973Y3204580D01*
X1749607Y3204580D01*
X1761426Y3198672D01*
X1773245Y3186854D01*
X1779155Y3175035D01*
X1785063Y3157308D01*
X1785063Y3127763D01*
X1779155Y3110036D01*
X1773245Y3098218D01*
X1761426Y3086399D01*
X1749607Y3080491D01*
X1725973Y3080491D01*
X1714154Y3086399D01*
X1702335Y3098218D01*
X1696427Y3110036D01*
X1639699Y3204580D02*
G01*
X1639699Y3104126D01*
X1633791Y3086399D01*
X1621972Y3080491D01*
X1610154Y3080491D01*
X1657426Y3163216D02*
G01*
X1616064Y3163216D01*
X1571155Y3163216D02*
G01*
X1571155Y3080491D01*
X1571155Y3127763D02*
G01*
X1565244Y3145490D01*
X1553428Y3157308D01*
X1541609Y3163216D01*
X1523880Y3163216D01*
X1484881Y3204580D02*
G01*
X1484881Y3080491D01*
X1337155Y3204580D02*
G01*
X1337155Y3104126D01*
X1331244Y3086399D01*
X1319428Y3080491D01*
X1307609Y3080491D01*
X1354881Y3163216D02*
G01*
X1313517Y3163216D01*
X1239062Y3163216D02*
G01*
X1250881Y3157308D01*
X1262700Y3145490D01*
X1268608Y3127763D01*
X1268608Y3115945D01*
X1262700Y3098218D01*
X1250881Y3086399D01*
X1239062Y3080491D01*
X1221336Y3080491D01*
X1209517Y3086399D01*
X1197698Y3098218D01*
X1191790Y3115945D01*
X1191790Y3127763D01*
X1197698Y3145490D01*
X1209517Y3157308D01*
X1221336Y3163216D01*
X1239062Y3163216D01*
X973155Y3175035D02*
G01*
X979063Y3186854D01*
X990881Y3198672D01*
X1002700Y3204580D01*
X1026335Y3204580D01*
X1038153Y3198672D01*
X1049972Y3186854D01*
X1055883Y3175035D01*
X1061791Y3157308D01*
X1061791Y3127763D01*
X1055883Y3110036D01*
X1049972Y3098218D01*
X1038153Y3086399D01*
X1026335Y3080491D01*
X1002700Y3080491D01*
X990881Y3086399D01*
X979063Y3098218D01*
X973155Y3110036D01*
X863244Y3186854D02*
G01*
X869154Y3198672D01*
X886881Y3204580D01*
X898700Y3204580D01*
X916426Y3198672D01*
X928245Y3180946D01*
X934153Y3151400D01*
X934153Y3121855D01*
X928245Y3098218D01*
X916426Y3086399D01*
X898700Y3080491D01*
X892789Y3080491D01*
X875063Y3086399D01*
X863244Y3098218D01*
X857336Y3115945D01*
X857336Y3121855D01*
X863244Y3139582D01*
X875063Y3151400D01*
X892789Y3157308D01*
X898700Y3157308D01*
X916426Y3151400D01*
X928245Y3139582D01*
X934153Y3121855D01*
X759246Y3204580D02*
G01*
X818337Y3121855D01*
X729698Y3121855D01*
X759246Y3204580D02*
G01*
X759246Y3080491D01*
X2679700Y2975980D02*
G01*
X2679700Y2851891D01*
X2679700Y2975980D02*
G01*
X2638336Y2975980D01*
X2620609Y2970072D01*
X2608790Y2958254D01*
X2602882Y2946435D01*
X2596972Y2928708D01*
X2596972Y2899163D01*
X2602882Y2881436D01*
X2608790Y2869618D01*
X2620609Y2857799D01*
X2638336Y2851891D01*
X2679700Y2851891D01*
X2557973Y2899163D02*
G01*
X2487063Y2899163D01*
X2487063Y2910982D01*
X2492971Y2922800D01*
X2498882Y2928708D01*
X2510701Y2934616D01*
X2528427Y2934616D01*
X2540246Y2928708D01*
X2552062Y2916890D01*
X2557973Y2899163D01*
X2557973Y2887345D01*
X2552062Y2869618D01*
X2540246Y2857799D01*
X2528427Y2851891D01*
X2510701Y2851891D01*
X2498882Y2857799D01*
X2487063Y2869618D01*
X2383063Y2916890D02*
G01*
X2388971Y2928708D01*
X2406700Y2934616D01*
X2424427Y2934616D01*
X2442154Y2928708D01*
X2448064Y2916890D01*
X2442154Y2905071D01*
X2430335Y2899163D01*
X2400790Y2893255D01*
X2388971Y2887345D01*
X2383063Y2875526D01*
X2383063Y2869618D01*
X2388971Y2857799D01*
X2406700Y2851891D01*
X2424427Y2851891D01*
X2442154Y2857799D01*
X2448064Y2869618D01*
X2344064Y2975980D02*
G01*
X2338153Y2970072D01*
X2332245Y2975980D01*
X2338153Y2981891D01*
X2344064Y2975980D01*
X2338153Y2934616D02*
G01*
X2338153Y2851891D01*
X2222337Y2934616D02*
G01*
X2222337Y2840073D01*
X2228245Y2822346D01*
X2234153Y2816435D01*
X2245972Y2810527D01*
X2263698Y2810527D01*
X2275517Y2816435D01*
X2222337Y2916890D02*
G01*
X2234153Y2928708D01*
X2245972Y2934616D01*
X2263698Y2934616D01*
X2275517Y2928708D01*
X2287336Y2916890D01*
X2293246Y2899163D01*
X2293246Y2887345D01*
X2287336Y2869618D01*
X2275517Y2857799D01*
X2263698Y2851891D01*
X2245972Y2851891D01*
X2234153Y2857799D01*
X2222337Y2869618D01*
X2183335Y2934616D02*
G01*
X2183335Y2851891D01*
X2183335Y2910982D02*
G01*
X2165609Y2928708D01*
X2153790Y2934616D01*
X2136063Y2934616D01*
X2124245Y2928708D01*
X2118337Y2910982D01*
X2118337Y2851891D01*
X2079335Y2899163D02*
G01*
X2008426Y2899163D01*
X2008426Y2910982D01*
X2014336Y2922800D01*
X2020244Y2928708D01*
X2032063Y2934616D01*
X2049790Y2934616D01*
X2061608Y2928708D01*
X2073427Y2916890D01*
X2079335Y2899163D01*
X2079335Y2887345D01*
X2073427Y2869618D01*
X2061608Y2857799D01*
X2049790Y2851891D01*
X2032063Y2851891D01*
X2020244Y2857799D01*
X2008426Y2869618D01*
X1898517Y2975980D02*
G01*
X1898517Y2851891D01*
X1898517Y2916890D02*
G01*
X1910336Y2928708D01*
X1922155Y2934616D01*
X1939881Y2934616D01*
X1951700Y2928708D01*
X1963519Y2916890D01*
X1969427Y2899163D01*
X1969427Y2887345D01*
X1963519Y2869618D01*
X1951700Y2857799D01*
X1939881Y2851891D01*
X1922155Y2851891D01*
X1910336Y2857799D01*
X1898517Y2869618D01*
X1768518Y2975980D02*
G01*
X1768518Y2851891D01*
X1768518Y2975980D02*
G01*
X1715335Y2975980D01*
X1697609Y2970072D01*
X1691700Y2964164D01*
X1685790Y2952346D01*
X1685790Y2940527D01*
X1691700Y2928708D01*
X1697609Y2922800D01*
X1715335Y2916890D01*
X1768518Y2916890D02*
G01*
X1715335Y2916890D01*
X1697609Y2910982D01*
X1691700Y2905071D01*
X1685790Y2893255D01*
X1685790Y2875526D01*
X1691700Y2863710D01*
X1697609Y2857799D01*
X1715335Y2851891D01*
X1768518Y2851891D01*
X1640880Y2934616D02*
G01*
X1605427Y2851891D01*
X1569971Y2934616D02*
G01*
X1605427Y2851891D01*
X1617245Y2828254D01*
X1629064Y2816435D01*
X1640880Y2810527D01*
X1646791Y2810527D01*
X1380881Y2975980D02*
G01*
X1380881Y2881436D01*
X1386791Y2863710D01*
X1392699Y2857799D01*
X1404518Y2851891D01*
X1416337Y2851891D01*
X1428155Y2857799D01*
X1434063Y2863710D01*
X1439971Y2881436D01*
X1439971Y2893255D01*
X1270972Y2934616D02*
G01*
X1270972Y2851891D01*
X1270972Y2916890D02*
G01*
X1282791Y2928708D01*
X1294610Y2934616D01*
X1312336Y2934616D01*
X1324155Y2928708D01*
X1335973Y2916890D01*
X1341881Y2899163D01*
X1341881Y2887345D01*
X1335973Y2869618D01*
X1324155Y2857799D01*
X1312336Y2851891D01*
X1294610Y2851891D01*
X1282791Y2857799D01*
X1270972Y2869618D01*
X1161064Y2916890D02*
G01*
X1172880Y2928708D01*
X1184699Y2934616D01*
X1202428Y2934616D01*
X1214244Y2928708D01*
X1226063Y2916890D01*
X1231973Y2899163D01*
X1231973Y2887345D01*
X1226063Y2869618D01*
X1214244Y2857799D01*
X1202428Y2851891D01*
X1184699Y2851891D01*
X1172880Y2857799D01*
X1161064Y2869618D01*
X1092517Y2934616D02*
G01*
X1104336Y2928708D01*
X1116154Y2916890D01*
X1122062Y2899163D01*
X1122062Y2887345D01*
X1116154Y2869618D01*
X1104336Y2857799D01*
X1092517Y2851891D01*
X1074790Y2851891D01*
X1062972Y2857799D01*
X1051153Y2869618D01*
X1045245Y2887345D01*
X1045245Y2899163D01*
X1051153Y2916890D01*
X1062972Y2928708D01*
X1074790Y2934616D01*
X1092517Y2934616D01*
X1006246Y2975980D02*
G01*
X1006246Y2851891D01*
X1006246Y2916890D02*
G01*
X994427Y2928708D01*
X982609Y2934616D01*
X964882Y2934616D01*
X953063Y2928708D01*
X941245Y2916890D01*
X935337Y2899163D01*
X935337Y2887345D01*
X941245Y2869618D01*
X953063Y2857799D01*
X964882Y2851891D01*
X982609Y2851891D01*
X994427Y2857799D01*
X1006246Y2869618D01*
X805337Y2975980D02*
G01*
X805337Y2851891D01*
X805337Y2975980D02*
G01*
X752154Y2975980D01*
X734428Y2970072D01*
X728517Y2964164D01*
X722609Y2952346D01*
X722609Y2940527D01*
X728517Y2928708D01*
X734428Y2922800D01*
X752154Y2916890D01*
X805337Y2916890D02*
G01*
X752154Y2916890D01*
X734428Y2910982D01*
X728517Y2905071D01*
X722609Y2893255D01*
X722609Y2875526D01*
X728517Y2863710D01*
X734428Y2857799D01*
X752154Y2851891D01*
X805337Y2851891D01*
X612698Y2934616D02*
G01*
X612698Y2851891D01*
X612698Y2916890D02*
G01*
X624517Y2928708D01*
X636336Y2934616D01*
X654062Y2934616D01*
X665881Y2928708D01*
X677699Y2916890D01*
X683607Y2899163D01*
X683607Y2887345D01*
X677699Y2869618D01*
X665881Y2857799D01*
X654062Y2851891D01*
X636336Y2851891D01*
X624517Y2857799D01*
X612698Y2869618D01*
X555972Y2975980D02*
G01*
X555972Y2875526D01*
X550062Y2857799D01*
X538246Y2851891D01*
X526427Y2851891D01*
X573699Y2934616D02*
G01*
X532335Y2934616D01*
X487428Y2899163D02*
G01*
X416519Y2899163D01*
X416519Y2910982D01*
X422427Y2922800D01*
X428335Y2928708D01*
X440154Y2934616D01*
X457880Y2934616D01*
X469699Y2928708D01*
X481517Y2916890D01*
X487428Y2899163D01*
X487428Y2887345D01*
X481517Y2869618D01*
X469699Y2857799D01*
X457880Y2851891D01*
X440154Y2851891D01*
X428335Y2857799D01*
X416519Y2869618D01*
X312519Y2916890D02*
G01*
X318427Y2928708D01*
X336153Y2934616D01*
X353882Y2934616D01*
X371609Y2928708D01*
X377517Y2916890D01*
X371609Y2905071D01*
X359790Y2899163D01*
X330245Y2893255D01*
X318427Y2887345D01*
X312519Y2875526D01*
X312519Y2869618D01*
X318427Y2857799D01*
X336153Y2851891D01*
X353882Y2851891D01*
X371609Y2857799D01*
X377517Y2869618D01*
X2679700Y2734680D02*
G01*
X2679700Y2610591D01*
X2679700Y2734680D02*
G01*
X2626517Y2734680D01*
X2608790Y2728772D01*
X2602882Y2722864D01*
X2596972Y2711046D01*
X2596972Y2699227D01*
X2602882Y2687408D01*
X2608790Y2681500D01*
X2626517Y2675590D01*
X2679700Y2675590D01*
X2638336Y2675590D02*
G01*
X2596972Y2610591D01*
X2557973Y2657863D02*
G01*
X2487063Y2657863D01*
X2487063Y2669682D01*
X2492971Y2681500D01*
X2498882Y2687408D01*
X2510701Y2693316D01*
X2528427Y2693316D01*
X2540246Y2687408D01*
X2552062Y2675590D01*
X2557973Y2657863D01*
X2557973Y2646045D01*
X2552062Y2628318D01*
X2540246Y2616499D01*
X2528427Y2610591D01*
X2510701Y2610591D01*
X2498882Y2616499D01*
X2487063Y2628318D01*
X2448064Y2693316D02*
G01*
X2412608Y2610591D01*
X2377155Y2693316D02*
G01*
X2412608Y2610591D01*
X2247155Y2711046D02*
G01*
X2235337Y2716954D01*
X2217607Y2734680D01*
X2217607Y2610591D01*
X1866900Y1015309D02*
G01*
X1866900Y919853D01*
X1866900Y1015309D02*
G01*
X1807809Y1015309D01*
X1866900Y969853D02*
G01*
X1830537Y969853D01*
X1777809Y1015309D02*
G01*
X1777809Y919853D01*
X1777809Y919853D02*
G01*
X1723262Y919853D01*
X1656900Y1015309D02*
G01*
X1693263Y919853D01*
X1656900Y1015309D02*
G01*
X1620535Y919853D01*
X1679628Y951671D02*
G01*
X1634172Y951671D01*
X1558719Y1015309D02*
G01*
X1558719Y919853D01*
X1590535Y1015309D02*
G01*
X1526900Y1015309D01*
D26*
X2369058Y2464815D02*
G01*
X2379472Y2459736D01*
X2389886Y2449321D01*
X2395220Y2438907D01*
X2400300Y2423160D01*
X2400300Y2397252D01*
X2395220Y2381757D01*
X2389886Y2371344D01*
X2379472Y2360929D01*
X2369058Y2355850D01*
X2348229Y2355850D01*
X2338070Y2360929D01*
X2327656Y2371344D01*
X2322322Y2381757D01*
X2317241Y2397252D01*
X2317241Y2423160D01*
X2322322Y2438907D01*
X2327656Y2449321D01*
X2338070Y2459736D01*
X2348229Y2464815D01*
X2369058Y2464815D01*
X2353563Y2376423D02*
G01*
X2322322Y2345436D01*
X2220468Y2464815D02*
G01*
X2272538Y2464815D01*
X2277618Y2418079D01*
X2272538Y2423160D01*
X2256790Y2428494D01*
X2241295Y2428494D01*
X2225802Y2423160D01*
X2215388Y2413000D01*
X2210054Y2397252D01*
X2210054Y2386837D01*
X2215388Y2371344D01*
X2225802Y2360929D01*
X2241295Y2355850D01*
X2256790Y2355850D01*
X2272538Y2360929D01*
X2277618Y2366010D01*
X2282952Y2376423D01*
X1861057Y2464815D02*
G01*
X1871471Y2459736D01*
X1881886Y2449321D01*
X1887220Y2438907D01*
X1892300Y2423160D01*
X1892300Y2397252D01*
X1887220Y2381757D01*
X1881886Y2371344D01*
X1871471Y2360929D01*
X1861057Y2355850D01*
X1840229Y2355850D01*
X1830070Y2360929D01*
X1819655Y2371344D01*
X1814321Y2381757D01*
X1809242Y2397252D01*
X1809242Y2423160D01*
X1814321Y2438907D01*
X1819655Y2449321D01*
X1830070Y2459736D01*
X1840229Y2464815D01*
X1861057Y2464815D01*
X1845563Y2376423D02*
G01*
X1814321Y2345436D01*
X1722881Y2464815D02*
G01*
X1774952Y2392171D01*
X1696973Y2392171D01*
X1722881Y2464815D02*
G01*
X1722881Y2355850D01*
X1353057Y2464815D02*
G01*
X1363471Y2459736D01*
X1373886Y2449321D01*
X1379220Y2438907D01*
X1384300Y2423160D01*
X1384300Y2397252D01*
X1379220Y2381757D01*
X1373886Y2371344D01*
X1363471Y2360929D01*
X1353057Y2355850D01*
X1332229Y2355850D01*
X1322070Y2360929D01*
X1311655Y2371344D01*
X1306321Y2381757D01*
X1301242Y2397252D01*
X1301242Y2423160D01*
X1306321Y2438907D01*
X1311655Y2449321D01*
X1322070Y2459736D01*
X1332229Y2464815D01*
X1353057Y2464815D01*
X1337563Y2376423D02*
G01*
X1306321Y2345436D01*
X1256537Y2464815D02*
G01*
X1199387Y2464815D01*
X1230629Y2423160D01*
X1214881Y2423160D01*
X1204468Y2418079D01*
X1199387Y2413000D01*
X1194054Y2397252D01*
X1194054Y2386837D01*
X1199387Y2371344D01*
X1209802Y2360929D01*
X1225295Y2355850D01*
X1240789Y2355850D01*
X1256537Y2360929D01*
X1261618Y2366010D01*
X1266952Y2376423D01*
X845057Y2464815D02*
G01*
X855471Y2459736D01*
X865886Y2449321D01*
X871220Y2438907D01*
X876300Y2423160D01*
X876300Y2397252D01*
X871220Y2381757D01*
X865886Y2371344D01*
X855471Y2360929D01*
X845057Y2355850D01*
X824229Y2355850D01*
X814070Y2360929D01*
X803655Y2371344D01*
X798321Y2381757D01*
X793242Y2397252D01*
X793242Y2423160D01*
X798321Y2438907D01*
X803655Y2449321D01*
X814070Y2459736D01*
X824229Y2464815D01*
X845057Y2464815D01*
X829563Y2376423D02*
G01*
X798321Y2345436D01*
X753618Y2438907D02*
G01*
X753618Y2443987D01*
X748537Y2454402D01*
X743204Y2459736D01*
X732789Y2464815D01*
X712215Y2464815D01*
X701802Y2459736D01*
X696468Y2454402D01*
X691387Y2443987D01*
X691387Y2433573D01*
X696468Y2423160D01*
X706881Y2407665D01*
X758952Y2355850D01*
X686054Y2355850D01*
X337057Y2464815D02*
G01*
X347471Y2459736D01*
X357886Y2449321D01*
X363220Y2438907D01*
X368300Y2423160D01*
X368300Y2397252D01*
X363220Y2381757D01*
X357886Y2371344D01*
X347471Y2360929D01*
X337057Y2355850D01*
X316229Y2355850D01*
X306070Y2360929D01*
X295655Y2371344D01*
X290321Y2381757D01*
X285242Y2397252D01*
X285242Y2423160D01*
X290321Y2438907D01*
X295655Y2449321D01*
X306070Y2459736D01*
X316229Y2464815D01*
X337057Y2464815D01*
X321563Y2376423D02*
G01*
X290321Y2345436D01*
X250952Y2443987D02*
G01*
X240537Y2449321D01*
X224789Y2464815D01*
X224789Y2355850D01*
X252984Y1712899D02*
G01*
X361950Y1712899D01*
X252984Y1712899D02*
G01*
X252984Y1666163D01*
X258063Y1650669D01*
X263397Y1645335D01*
X273812Y1640255D01*
X284226Y1640255D01*
X294639Y1645335D01*
X299720Y1650669D01*
X304800Y1666163D01*
X304800Y1712899D01*
X304800Y1676577D02*
G01*
X361950Y1640255D01*
X273812Y1605965D02*
G01*
X268478Y1595551D01*
X252984Y1579803D01*
X361950Y1579803D01*
X672084Y1712899D02*
G01*
X781050Y1712899D01*
X672084Y1712899D02*
G01*
X672084Y1666163D01*
X677163Y1650669D01*
X682497Y1645335D01*
X692912Y1640255D01*
X703326Y1640255D01*
X713739Y1645335D01*
X718820Y1650669D01*
X723900Y1666163D01*
X723900Y1712899D01*
X723900Y1676577D02*
G01*
X781050Y1640255D01*
X697992Y1600631D02*
G01*
X692912Y1600631D01*
X682497Y1595551D01*
X677163Y1590217D01*
X672084Y1579803D01*
X672084Y1559229D01*
X677163Y1548815D01*
X682497Y1543481D01*
X692912Y1538401D01*
X703326Y1538401D01*
X713739Y1543481D01*
X729234Y1553895D01*
X781050Y1605965D01*
X781050Y1533067D01*
X1103884Y1712899D02*
G01*
X1212850Y1712899D01*
X1103884Y1712899D02*
G01*
X1103884Y1666163D01*
X1108963Y1650669D01*
X1114297Y1645335D01*
X1124712Y1640255D01*
X1135126Y1640255D01*
X1145539Y1645335D01*
X1150620Y1650669D01*
X1155700Y1666163D01*
X1155700Y1712899D01*
X1155700Y1676577D02*
G01*
X1212850Y1640255D01*
X1103884Y1595551D02*
G01*
X1103884Y1538401D01*
X1145539Y1569389D01*
X1145539Y1553895D01*
X1150620Y1543481D01*
X1155700Y1538401D01*
X1171447Y1533067D01*
X1181862Y1533067D01*
X1197355Y1538401D01*
X1207770Y1548815D01*
X1212850Y1564309D01*
X1212850Y1579803D01*
X1207770Y1595551D01*
X1202689Y1600631D01*
X1192276Y1605965D01*
X1522984Y1712899D02*
G01*
X1631950Y1712899D01*
X1522984Y1712899D02*
G01*
X1522984Y1666163D01*
X1528063Y1650669D01*
X1533397Y1645335D01*
X1543812Y1640255D01*
X1554226Y1640255D01*
X1564639Y1645335D01*
X1569720Y1650669D01*
X1574800Y1666163D01*
X1574800Y1712899D01*
X1574800Y1676577D02*
G01*
X1631950Y1640255D01*
X1522984Y1553895D02*
G01*
X1595628Y1605965D01*
X1595628Y1527987D01*
X1522984Y1553895D02*
G01*
X1631950Y1553895D01*
X1942084Y1712899D02*
G01*
X2051050Y1712899D01*
X1942084Y1712899D02*
G01*
X1942084Y1666163D01*
X1947163Y1650669D01*
X1952497Y1645335D01*
X1962911Y1640255D01*
X1973325Y1640255D01*
X1983740Y1645335D01*
X1988820Y1650669D01*
X1993900Y1666163D01*
X1993900Y1712899D01*
X1993900Y1676577D02*
G01*
X2051050Y1640255D01*
X1942084Y1543481D02*
G01*
X1942084Y1595551D01*
X1988820Y1600631D01*
X1983740Y1595551D01*
X1978406Y1579803D01*
X1978406Y1564309D01*
X1983740Y1548815D01*
X1993900Y1538401D01*
X2009647Y1533067D01*
X2020061Y1533067D01*
X2035556Y1538401D01*
X2045970Y1548815D01*
X2051050Y1564309D01*
X2051050Y1579803D01*
X2045970Y1595551D01*
X2040890Y1600631D01*
X2030475Y1605965D01*
D10*
X2383790Y2051100D02*
G01*
X2465298Y2051100D01*
X2465298Y2117089D01*
X2465298Y2277110D02*
G01*
X2465298Y2343099D01*
X2465298Y2277110D01*
X2465298Y2343099D01*
X2383790Y2343099D01*
D27*
X2310307Y2167102D02*
G01*
X2310307Y2227097D01*
D10*
X1875789Y2051100D02*
G01*
X1957298Y2051100D01*
X1957298Y2117089D01*
X1957298Y2277110D02*
G01*
X1957298Y2343099D01*
X1957298Y2277110D01*
X1957298Y2343099D01*
X1875789Y2343099D01*
D27*
X1802307Y2167102D02*
G01*
X1802307Y2227097D01*
D10*
X1367789Y2051100D02*
G01*
X1449298Y2051100D01*
X1449298Y2117089D01*
X1449298Y2277110D02*
G01*
X1449298Y2343099D01*
X1449298Y2277110D01*
X1449298Y2343099D01*
X1367789Y2343099D01*
D27*
X1294307Y2167102D02*
G01*
X1294307Y2227097D01*
D10*
X859789Y2051100D02*
G01*
X941298Y2051100D01*
X941298Y2117089D01*
X941298Y2277110D02*
G01*
X941298Y2343099D01*
X941298Y2277110D01*
X941298Y2343099D01*
X859789Y2343099D01*
D27*
X786307Y2167102D02*
G01*
X786307Y2227097D01*
D10*
X351789Y2051100D02*
G01*
X433298Y2051100D01*
X433298Y2117089D01*
X433298Y2277110D02*
G01*
X433298Y2343099D01*
X433298Y2277110D01*
X433298Y2343099D01*
X351789Y2343099D01*
D27*
X278307Y2167102D02*
G01*
X278307Y2227097D01*
D10*
X418703Y1751799D02*
G01*
X418703Y1876800D01*
X622696Y1751799D02*
G01*
X622696Y1876800D01*
X418703Y1651800D02*
G01*
X418703Y1526799D01*
X622696Y1651800D02*
G01*
X622696Y1526799D01*
X418703Y1876803D02*
G01*
X622696Y1876800D01*
X418703Y1526799D02*
G01*
X622696Y1526799D01*
X837803Y1751799D02*
G01*
X837803Y1876800D01*
X1041796Y1751799D02*
G01*
X1041796Y1876800D01*
X837803Y1651800D02*
G01*
X837803Y1526799D01*
X1041796Y1651800D02*
G01*
X1041796Y1526799D01*
X837803Y1876803D02*
G01*
X1041796Y1876800D01*
X837803Y1526799D02*
G01*
X1041796Y1526799D01*
X1269603Y1751799D02*
G01*
X1269603Y1876800D01*
X1473596Y1751799D02*
G01*
X1473596Y1876800D01*
X1269603Y1651800D02*
G01*
X1269603Y1526799D01*
X1473596Y1651800D02*
G01*
X1473596Y1526799D01*
X1269603Y1876803D02*
G01*
X1473596Y1876800D01*
X1269603Y1526799D02*
G01*
X1473596Y1526799D01*
X1688703Y1751799D02*
G01*
X1688703Y1876800D01*
X1892696Y1751799D02*
G01*
X1892696Y1876800D01*
X1688703Y1651800D02*
G01*
X1688703Y1526799D01*
X1892696Y1651800D02*
G01*
X1892696Y1526799D01*
X1688703Y1876803D02*
G01*
X1892696Y1876800D01*
X1688703Y1526799D02*
G01*
X1892696Y1526799D01*
X2107803Y1751799D02*
G01*
X2107803Y1876800D01*
X2311796Y1751799D02*
G01*
X2311796Y1876800D01*
X2107803Y1651800D02*
G01*
X2107803Y1526799D01*
X2311796Y1651800D02*
G01*
X2311796Y1526799D01*
X2107803Y1876803D02*
G01*
X2311796Y1876800D01*
X2107803Y1526799D02*
G01*
X2311796Y1526799D01*
M02*
