G04 Layer: BottomPasteMaskLayer*
G04 EasyEDA v6.4.14, 2021-02-02T13:22:32--5:00*
G04 99f0f78b573744e3acd602d4f8b6235f,d79a69aa59da4e1fbb9b7d465b79b5da,10*
G04 Gerber Generator version 0.2*
G04 Scale: 100 percent, Rotated: No, Reflected: No *
G04 Dimensions in millimeters *
G04 leading zeros omitted , absolute positions ,4 integer and 5 decimal *
%FSLAX45Y45*%
%MOMM*%

%ADD15R,1.9000X7.5000*%

%LPD*%
D15*
G01*
X1924304Y399795D03*
G01*
X1489710Y399795D03*
G36*
X2462768Y2232101D02*
G01*
X2462768Y2162098D01*
X2587767Y2162098D01*
X2587767Y2232101D01*
G37*
G36*
X2212832Y2327097D02*
G01*
X2212832Y2257094D01*
X2337831Y2257094D01*
X2337831Y2327097D01*
G37*
G36*
X2212832Y2137105D02*
G01*
X2212832Y2067102D01*
X2337831Y2067102D01*
X2337831Y2137105D01*
G37*
G36*
X1954768Y2232101D02*
G01*
X1954768Y2162098D01*
X2079767Y2162098D01*
X2079767Y2232101D01*
G37*
G36*
X1704832Y2327097D02*
G01*
X1704832Y2257094D01*
X1829831Y2257094D01*
X1829831Y2327097D01*
G37*
G36*
X1704832Y2137105D02*
G01*
X1704832Y2067102D01*
X1829831Y2067102D01*
X1829831Y2137105D01*
G37*
G36*
X1446768Y2232101D02*
G01*
X1446768Y2162098D01*
X1571767Y2162098D01*
X1571767Y2232101D01*
G37*
G36*
X1196832Y2327097D02*
G01*
X1196832Y2257094D01*
X1321831Y2257094D01*
X1321831Y2327097D01*
G37*
G36*
X1196832Y2137105D02*
G01*
X1196832Y2067102D01*
X1321831Y2067102D01*
X1321831Y2137105D01*
G37*
G36*
X938768Y2232101D02*
G01*
X938768Y2162098D01*
X1063767Y2162098D01*
X1063767Y2232101D01*
G37*
G36*
X688832Y2327097D02*
G01*
X688832Y2257094D01*
X813831Y2257094D01*
X813831Y2327097D01*
G37*
G36*
X688832Y2137105D02*
G01*
X688832Y2067102D01*
X813831Y2067102D01*
X813831Y2137105D01*
G37*
G36*
X430768Y2232101D02*
G01*
X430768Y2162098D01*
X555767Y2162098D01*
X555767Y2232101D01*
G37*
G36*
X180832Y2327097D02*
G01*
X180832Y2257094D01*
X305831Y2257094D01*
X305831Y2327097D01*
G37*
G36*
X180832Y2137105D02*
G01*
X180832Y2067102D01*
X305831Y2067102D01*
X305831Y2137105D01*
G37*
G36*
X443199Y1651800D02*
G01*
X443199Y1551800D01*
X598200Y1551800D01*
X598200Y1651800D01*
G37*
G36*
X443199Y1851799D02*
G01*
X443199Y1751799D01*
X598200Y1751799D01*
X598200Y1851799D01*
G37*
G36*
X862299Y1651800D02*
G01*
X862299Y1551800D01*
X1017300Y1551800D01*
X1017300Y1651800D01*
G37*
G36*
X862299Y1851799D02*
G01*
X862299Y1751799D01*
X1017300Y1751799D01*
X1017300Y1851799D01*
G37*
G36*
X1294099Y1651800D02*
G01*
X1294099Y1551800D01*
X1449100Y1551800D01*
X1449100Y1651800D01*
G37*
G36*
X1294099Y1851799D02*
G01*
X1294099Y1751799D01*
X1449100Y1751799D01*
X1449100Y1851799D01*
G37*
G36*
X1713199Y1651800D02*
G01*
X1713199Y1551800D01*
X1868200Y1551800D01*
X1868200Y1651800D01*
G37*
G36*
X1713199Y1851799D02*
G01*
X1713199Y1751799D01*
X1868200Y1751799D01*
X1868200Y1851799D01*
G37*
G36*
X2132299Y1651800D02*
G01*
X2132299Y1551800D01*
X2287300Y1551800D01*
X2287300Y1651800D01*
G37*
G36*
X2132299Y1851799D02*
G01*
X2132299Y1751799D01*
X2287300Y1751799D01*
X2287300Y1851799D01*
G37*
M02*
