G04 Layer: BottomLayer*
G04 EasyEDA v6.4.14, 2021-02-02T13:22:32--5:00*
G04 99f0f78b573744e3acd602d4f8b6235f,d79a69aa59da4e1fbb9b7d465b79b5da,10*
G04 Gerber Generator version 0.2*
G04 Scale: 100 percent, Rotated: No, Reflected: No *
G04 Dimensions in millimeters *
G04 leading zeros omitted , absolute positions ,4 integer and 5 decimal *
%FSLAX45Y45*%
%MOMM*%

%ADD11C,0.2600*%
%ADD12C,0.6100*%
%ADD15R,1.9000X7.5000*%
%ADD16R,1.7000X1.7000*%
%ADD17C,1.7000*%
%ADD19C,1.8796*%
%ADD20C,5.0800*%
%ADD21C,6.2500*%

%LPD*%
G36*
X1641602Y3575608D02*
G01*
X1637334Y3576574D01*
X1633829Y3579215D01*
X1631797Y3583127D01*
X1631594Y3587546D01*
X1633321Y3591610D01*
X1636522Y3594557D01*
X1643430Y3598519D01*
X1655165Y3607409D01*
X1665732Y3617671D01*
X1674977Y3629151D01*
X1682699Y3641648D01*
X1688896Y3655009D01*
X1693367Y3669080D01*
X1696059Y3683558D01*
X1696974Y3698240D01*
X1696059Y3712921D01*
X1693367Y3727399D01*
X1688896Y3741470D01*
X1687575Y3744264D01*
X1686661Y3748278D01*
X1687372Y3752291D01*
X1689607Y3755694D01*
X1726234Y3792270D01*
X1729536Y3794455D01*
X1733397Y3795217D01*
X1755495Y3795217D01*
X1759305Y3794455D01*
X1762607Y3792372D01*
X1764792Y3789172D01*
X1765655Y3785362D01*
X1765046Y3781551D01*
X1763014Y3778199D01*
X1758492Y3773220D01*
X1749958Y3761232D01*
X1744776Y3751579D01*
X1798320Y3751579D01*
X1798320Y3785057D01*
X1799082Y3788968D01*
X1801317Y3792270D01*
X1804568Y3794455D01*
X1808480Y3795217D01*
X1894839Y3795217D01*
X1898751Y3794455D01*
X1902002Y3792270D01*
X1904238Y3788968D01*
X1905000Y3785057D01*
X1905000Y3751579D01*
X1958543Y3751579D01*
X1957019Y3754831D01*
X1949297Y3767328D01*
X1940153Y3778707D01*
X1938375Y3782009D01*
X1937918Y3785768D01*
X1938934Y3789426D01*
X1941169Y3792524D01*
X1944370Y3794506D01*
X1948078Y3795217D01*
X2032355Y3795217D01*
X2036165Y3794455D01*
X2039416Y3792372D01*
X2041652Y3789172D01*
X2042515Y3785362D01*
X2041906Y3781551D01*
X2039874Y3778199D01*
X2035352Y3773220D01*
X2026818Y3761232D01*
X2019858Y3748227D01*
X2014524Y3734511D01*
X2010918Y3720236D01*
X2009139Y3705606D01*
X2009139Y3690874D01*
X2010918Y3676243D01*
X2014524Y3661968D01*
X2019858Y3648252D01*
X2026818Y3635248D01*
X2035352Y3623259D01*
X2045258Y3612387D01*
X2056434Y3602786D01*
X2069388Y3594252D01*
X2072386Y3591153D01*
X2073859Y3587140D01*
X2073503Y3582822D01*
X2071420Y3579063D01*
X2067966Y3576523D01*
X2063750Y3575608D01*
X1915922Y3575608D01*
X1911654Y3576574D01*
X1908149Y3579215D01*
X1906117Y3583127D01*
X1905914Y3587546D01*
X1907641Y3591610D01*
X1910842Y3594557D01*
X1917750Y3598519D01*
X1929485Y3607409D01*
X1940052Y3617671D01*
X1949297Y3629151D01*
X1957019Y3641648D01*
X1958543Y3644900D01*
X1905000Y3644900D01*
X1905000Y3585768D01*
X1904238Y3581857D01*
X1902002Y3578555D01*
X1898751Y3576370D01*
X1894839Y3575608D01*
X1808480Y3575608D01*
X1804568Y3576370D01*
X1801317Y3578555D01*
X1799082Y3581857D01*
X1798320Y3585768D01*
X1798320Y3644900D01*
X1744776Y3644900D01*
X1749958Y3635248D01*
X1758492Y3623259D01*
X1768398Y3612387D01*
X1779574Y3602786D01*
X1792528Y3594252D01*
X1795525Y3591153D01*
X1796999Y3587140D01*
X1796643Y3582822D01*
X1794560Y3579063D01*
X1791106Y3576523D01*
X1786889Y3575608D01*
G37*

%LPD*%
G36*
X493064Y25654D02*
G01*
X489153Y26416D01*
X485901Y28600D01*
X483666Y31902D01*
X482904Y35763D01*
X483666Y39674D01*
X485851Y42976D01*
X489102Y45161D01*
X498195Y48971D01*
X520954Y60655D01*
X542798Y74015D01*
X563575Y88950D01*
X583133Y105460D01*
X601421Y123393D01*
X618236Y142646D01*
X633628Y163118D01*
X647395Y184658D01*
X659485Y207213D01*
X669798Y230632D01*
X678383Y254762D01*
X685088Y279450D01*
X689864Y304596D01*
X692759Y330047D01*
X693724Y355600D01*
X692759Y381152D01*
X689864Y406603D01*
X685088Y431749D01*
X678383Y456438D01*
X669798Y480568D01*
X659485Y503986D01*
X647395Y526542D01*
X633628Y548081D01*
X618236Y568553D01*
X601421Y587806D01*
X583133Y605739D01*
X563575Y622249D01*
X542798Y637184D01*
X520954Y650544D01*
X498195Y662228D01*
X474573Y672134D01*
X450291Y680212D01*
X425500Y686460D01*
X400253Y690778D01*
X374802Y693216D01*
X349199Y693674D01*
X323646Y692251D01*
X298297Y688848D01*
X273253Y683564D01*
X248666Y676402D01*
X224739Y667410D01*
X201523Y656590D01*
X179171Y644093D01*
X157886Y629920D01*
X137718Y614172D01*
X118770Y596950D01*
X101193Y578358D01*
X85090Y558495D01*
X70510Y537413D01*
X57556Y515366D01*
X46329Y492353D01*
X45262Y489610D01*
X43078Y486257D01*
X39776Y484022D01*
X35915Y483209D01*
X32004Y483971D01*
X28651Y486156D01*
X26416Y489458D01*
X25654Y493369D01*
X25654Y3863086D01*
X26416Y3866997D01*
X28651Y3870248D01*
X31902Y3872484D01*
X35814Y3873246D01*
X1673402Y3873246D01*
X1677263Y3872484D01*
X1680565Y3870248D01*
X1682800Y3866946D01*
X1683562Y3863086D01*
X1682800Y3859174D01*
X1680565Y3855872D01*
X1634947Y3810355D01*
X1631645Y3808171D01*
X1627733Y3807409D01*
X1623822Y3808222D01*
X1617116Y3811066D01*
X1602943Y3815079D01*
X1588363Y3817365D01*
X1573631Y3817823D01*
X1559001Y3816451D01*
X1544624Y3813301D01*
X1530705Y3808374D01*
X1517548Y3801821D01*
X1505254Y3793693D01*
X1494078Y3784092D01*
X1484172Y3773220D01*
X1475638Y3761232D01*
X1468678Y3748227D01*
X1463344Y3734511D01*
X1459738Y3720236D01*
X1457960Y3705606D01*
X1457960Y3690874D01*
X1459738Y3676243D01*
X1463344Y3661968D01*
X1468678Y3648252D01*
X1475638Y3635248D01*
X1484172Y3623259D01*
X1494078Y3612387D01*
X1505254Y3602786D01*
X1518208Y3594252D01*
X1521206Y3591153D01*
X1522679Y3587140D01*
X1522323Y3582822D01*
X1520240Y3579063D01*
X1516786Y3576523D01*
X1512570Y3575608D01*
X1481988Y3575608D01*
X1478076Y3576370D01*
X1474825Y3578555D01*
X1412697Y3640683D01*
X1410462Y3644087D01*
X1409750Y3648100D01*
X1410665Y3652113D01*
X1412036Y3655009D01*
X1416507Y3669080D01*
X1419199Y3683558D01*
X1420114Y3698240D01*
X1419199Y3712921D01*
X1416507Y3727399D01*
X1412036Y3741470D01*
X1405839Y3754831D01*
X1398117Y3767328D01*
X1388872Y3778808D01*
X1378305Y3789070D01*
X1366570Y3797960D01*
X1353820Y3805326D01*
X1340256Y3811066D01*
X1326083Y3815079D01*
X1311503Y3817365D01*
X1296771Y3817823D01*
X1282141Y3816451D01*
X1267764Y3813301D01*
X1253845Y3808374D01*
X1240688Y3801821D01*
X1228394Y3793693D01*
X1217218Y3784092D01*
X1207312Y3773220D01*
X1198778Y3761232D01*
X1191818Y3748227D01*
X1186484Y3734511D01*
X1182878Y3720236D01*
X1181100Y3705606D01*
X1181100Y3690874D01*
X1182878Y3676243D01*
X1186484Y3661968D01*
X1191818Y3648252D01*
X1198778Y3635248D01*
X1207312Y3623259D01*
X1217218Y3612387D01*
X1228394Y3602786D01*
X1240688Y3594658D01*
X1253845Y3588105D01*
X1267764Y3583178D01*
X1282141Y3580028D01*
X1296771Y3578656D01*
X1311503Y3579114D01*
X1326083Y3581400D01*
X1340256Y3585413D01*
X1346860Y3588207D01*
X1350772Y3589020D01*
X1354683Y3588258D01*
X1357985Y3586073D01*
X1401165Y3542893D01*
X1403400Y3539490D01*
X1404112Y3535527D01*
X1403197Y3531514D01*
X1400810Y3528212D01*
X1397355Y3526129D01*
X1391005Y3523894D01*
X1377848Y3517341D01*
X1365554Y3509213D01*
X1354378Y3499612D01*
X1344472Y3488740D01*
X1335938Y3476751D01*
X1328978Y3463747D01*
X1323644Y3450031D01*
X1320038Y3435756D01*
X1318260Y3421126D01*
X1318260Y3406394D01*
X1320038Y3391763D01*
X1323644Y3377488D01*
X1328978Y3363772D01*
X1335938Y3350768D01*
X1344472Y3338779D01*
X1354378Y3327908D01*
X1365554Y3318306D01*
X1377848Y3310178D01*
X1391005Y3303625D01*
X1395730Y3301034D01*
X1398117Y3297682D01*
X1398981Y3293618D01*
X1398981Y2348382D01*
X1398219Y2344470D01*
X1396034Y2341219D01*
X1364843Y2310028D01*
X1361541Y2307793D01*
X1357630Y2307031D01*
X1356055Y2307336D01*
X1356410Y2305761D01*
X1355598Y2301900D01*
X1353413Y2298598D01*
X1326032Y2271217D01*
X1322730Y2269032D01*
X1318869Y2268270D01*
X1296924Y2268270D01*
X1296924Y2246325D01*
X1296162Y2242464D01*
X1293520Y2238705D01*
X1290269Y2236520D01*
X1286357Y2235758D01*
X1231900Y2235758D01*
X1227988Y2236520D01*
X1224686Y2238705D01*
X1222502Y2242007D01*
X1221740Y2245918D01*
X1221740Y2268270D01*
X1171194Y2268270D01*
X1171194Y2257653D01*
X1171905Y2251405D01*
X1172616Y2249271D01*
X1173175Y2245461D01*
X1172311Y2241702D01*
X1170076Y2238552D01*
X1166825Y2236470D01*
X1163015Y2235758D01*
X1096619Y2235758D01*
X1092555Y2236622D01*
X1089202Y2239010D01*
X1083767Y2248052D01*
X1079703Y2252116D01*
X1074877Y2255164D01*
X1069441Y2257044D01*
X1063193Y2257755D01*
X939342Y2257755D01*
X933094Y2257044D01*
X927658Y2255164D01*
X922832Y2252116D01*
X918768Y2248052D01*
X915720Y2243226D01*
X913841Y2237790D01*
X913130Y2231542D01*
X913130Y2162657D01*
X913841Y2156409D01*
X915720Y2150973D01*
X918768Y2146147D01*
X922832Y2142083D01*
X927658Y2139035D01*
X933094Y2137156D01*
X939342Y2136444D01*
X1063193Y2136444D01*
X1069441Y2137156D01*
X1074877Y2139035D01*
X1079703Y2142083D01*
X1083767Y2146147D01*
X1089202Y2155190D01*
X1092555Y2157577D01*
X1096619Y2158441D01*
X1163015Y2158441D01*
X1166825Y2157730D01*
X1170076Y2155647D01*
X1172311Y2152497D01*
X1173175Y2148738D01*
X1172616Y2144928D01*
X1171905Y2142794D01*
X1171194Y2136546D01*
X1171194Y2067661D01*
X1171905Y2061413D01*
X1173784Y2055977D01*
X1176832Y2051151D01*
X1180896Y2047087D01*
X1185722Y2044039D01*
X1191158Y2042160D01*
X1197406Y2041448D01*
X1275435Y2041448D01*
X1279347Y2040686D01*
X1282649Y2038451D01*
X1284833Y2035200D01*
X1285595Y2031288D01*
X1284833Y2027377D01*
X1282649Y2024125D01*
X1237945Y1979422D01*
X1232814Y1973173D01*
X1229258Y1966518D01*
X1227074Y1959254D01*
X1226261Y1951228D01*
X1226261Y1802384D01*
X1227074Y1794357D01*
X1229258Y1787093D01*
X1232814Y1780438D01*
X1237640Y1774596D01*
X1243482Y1769770D01*
X1250137Y1766214D01*
X1257401Y1764030D01*
X1259281Y1763826D01*
X1262837Y1762810D01*
X1265834Y1760524D01*
X1267764Y1757375D01*
X1269136Y1746097D01*
X1271066Y1740712D01*
X1274114Y1735836D01*
X1278128Y1731772D01*
X1283004Y1728724D01*
X1288389Y1726844D01*
X1294688Y1726133D01*
X1448511Y1726133D01*
X1454810Y1726844D01*
X1460195Y1728724D01*
X1465072Y1731772D01*
X1469085Y1735836D01*
X1472133Y1740712D01*
X1474063Y1746097D01*
X1474774Y1752346D01*
X1474774Y1851253D01*
X1474063Y1857502D01*
X1472133Y1862886D01*
X1469085Y1867763D01*
X1465072Y1871827D01*
X1460195Y1874875D01*
X1454810Y1876755D01*
X1448511Y1877466D01*
X1313738Y1877466D01*
X1309827Y1878228D01*
X1306525Y1880412D01*
X1304340Y1883714D01*
X1303578Y1887626D01*
X1303578Y1931517D01*
X1304340Y1935429D01*
X1306525Y1938680D01*
X1378000Y2010156D01*
X1383131Y2016404D01*
X1386687Y2023059D01*
X1388872Y2030323D01*
X1389684Y2038350D01*
X1389684Y2101596D01*
X1388872Y2109622D01*
X1386687Y2116886D01*
X1383131Y2123541D01*
X1378305Y2129383D01*
X1372463Y2134209D01*
X1365808Y2137765D01*
X1358544Y2139950D01*
X1353820Y2140407D01*
X1350162Y2141524D01*
X1347165Y2143861D01*
X1344879Y2148230D01*
X1341882Y2153005D01*
X1336700Y2158034D01*
X1334465Y2161336D01*
X1333652Y2165248D01*
X1334414Y2169160D01*
X1336649Y2172512D01*
X1403807Y2239670D01*
X1407261Y2241956D01*
X1411325Y2242667D01*
X1415338Y2241702D01*
X1418590Y2239213D01*
X1420672Y2235657D01*
X1421130Y2231542D01*
X1421130Y2162657D01*
X1421841Y2156409D01*
X1423720Y2150973D01*
X1426768Y2146147D01*
X1430832Y2142083D01*
X1435658Y2139035D01*
X1441094Y2137156D01*
X1447342Y2136444D01*
X1571193Y2136444D01*
X1577441Y2137156D01*
X1582877Y2139035D01*
X1587703Y2142083D01*
X1591767Y2146147D01*
X1594815Y2150973D01*
X1597101Y2155342D01*
X1600098Y2157679D01*
X1603756Y2158796D01*
X1608480Y2159254D01*
X1615744Y2161438D01*
X1622399Y2164994D01*
X1628241Y2169820D01*
X1633067Y2175662D01*
X1636623Y2182317D01*
X1638807Y2189581D01*
X1639620Y2197608D01*
X1639620Y3280003D01*
X1640382Y3283915D01*
X1642567Y3287166D01*
X1656791Y3301390D01*
X1659940Y3303524D01*
X1663598Y3304336D01*
X1667357Y3303778D01*
X1681784Y3298698D01*
X1696161Y3295548D01*
X1710791Y3294176D01*
X1725523Y3294634D01*
X1740103Y3296920D01*
X1754276Y3300933D01*
X1767839Y3306673D01*
X1780590Y3314039D01*
X1792325Y3322929D01*
X1802892Y3333191D01*
X1812137Y3344672D01*
X1819859Y3357168D01*
X1826056Y3370529D01*
X1830527Y3384600D01*
X1833219Y3399078D01*
X1834134Y3413760D01*
X1833219Y3428441D01*
X1830527Y3442919D01*
X1826056Y3456990D01*
X1819859Y3470351D01*
X1812188Y3482797D01*
X1810766Y3486810D01*
X1811121Y3491077D01*
X1813204Y3494836D01*
X1816607Y3497376D01*
X1820824Y3498291D01*
X1885289Y3498291D01*
X1889607Y3497326D01*
X1893062Y3494633D01*
X1895093Y3490722D01*
X1895297Y3486353D01*
X1893570Y3482289D01*
X1889658Y3476751D01*
X1882698Y3463747D01*
X1877364Y3450031D01*
X1873757Y3435756D01*
X1871980Y3421126D01*
X1871980Y3406394D01*
X1873757Y3391763D01*
X1877364Y3377488D01*
X1882698Y3363772D01*
X1889658Y3350768D01*
X1898192Y3338779D01*
X1908098Y3327908D01*
X1919274Y3318306D01*
X1931568Y3310178D01*
X1944725Y3303625D01*
X1958644Y3298698D01*
X1973021Y3295548D01*
X1987651Y3294176D01*
X2002383Y3294634D01*
X2016963Y3296920D01*
X2031136Y3300933D01*
X2037740Y3303727D01*
X2041652Y3304540D01*
X2045563Y3303778D01*
X2048865Y3301593D01*
X2341422Y3009036D01*
X2343607Y3005785D01*
X2344369Y3001873D01*
X2344369Y2362911D01*
X2343607Y2358999D01*
X2341422Y2355748D01*
X2338120Y2353513D01*
X2334209Y2352751D01*
X2312924Y2352751D01*
X2312924Y2315921D01*
X2334209Y2315921D01*
X2338120Y2315159D01*
X2341422Y2312974D01*
X2343607Y2309672D01*
X2344369Y2305761D01*
X2344369Y2278430D01*
X2343607Y2274519D01*
X2341422Y2271217D01*
X2338120Y2269032D01*
X2334209Y2268270D01*
X2312924Y2268270D01*
X2312924Y2245918D01*
X2312162Y2242007D01*
X2309977Y2238705D01*
X2306675Y2236520D01*
X2302764Y2235758D01*
X2247900Y2235758D01*
X2243988Y2236520D01*
X2240686Y2238705D01*
X2238502Y2242007D01*
X2237740Y2245918D01*
X2237740Y2268270D01*
X2187194Y2268270D01*
X2187194Y2257653D01*
X2187905Y2251405D01*
X2188616Y2249271D01*
X2189175Y2245461D01*
X2188311Y2241702D01*
X2186076Y2238552D01*
X2182825Y2236470D01*
X2179015Y2235758D01*
X2112619Y2235758D01*
X2108555Y2236622D01*
X2105202Y2239010D01*
X2099767Y2248052D01*
X2095703Y2252116D01*
X2090877Y2255164D01*
X2085441Y2257044D01*
X2079193Y2257755D01*
X1955342Y2257755D01*
X1949094Y2257044D01*
X1943658Y2255164D01*
X1938832Y2252116D01*
X1934768Y2248052D01*
X1931720Y2243226D01*
X1929841Y2237790D01*
X1929130Y2231542D01*
X1929130Y2162657D01*
X1929841Y2156409D01*
X1931720Y2150973D01*
X1934768Y2146147D01*
X1938832Y2142083D01*
X1943658Y2139035D01*
X1949094Y2137156D01*
X1955342Y2136444D01*
X2079193Y2136444D01*
X2085441Y2137156D01*
X2090877Y2139035D01*
X2095703Y2142083D01*
X2099767Y2146147D01*
X2105202Y2155190D01*
X2108555Y2157577D01*
X2112619Y2158441D01*
X2179015Y2158441D01*
X2182825Y2157730D01*
X2186076Y2155647D01*
X2188311Y2152497D01*
X2189175Y2148738D01*
X2188616Y2144928D01*
X2187905Y2142794D01*
X2187194Y2136546D01*
X2187194Y2067661D01*
X2187905Y2061413D01*
X2189784Y2055977D01*
X2192832Y2051151D01*
X2196896Y2047087D01*
X2201722Y2044039D01*
X2207158Y2042160D01*
X2213406Y2041448D01*
X2318207Y2041448D01*
X2322118Y2040686D01*
X2325420Y2038451D01*
X2327605Y2035200D01*
X2328367Y2031288D01*
X2328367Y1872640D01*
X2327605Y1868728D01*
X2325420Y1865477D01*
X2321204Y1862175D01*
X2317699Y1861312D01*
X2314092Y1861718D01*
X2310841Y1863343D01*
X2308402Y1866036D01*
X2307285Y1867763D01*
X2303272Y1871827D01*
X2298395Y1874875D01*
X2293010Y1876755D01*
X2286711Y1877466D01*
X2132888Y1877466D01*
X2126589Y1876755D01*
X2121204Y1874875D01*
X2116328Y1871827D01*
X2112314Y1867763D01*
X2109266Y1862886D01*
X2107336Y1857502D01*
X2106625Y1851253D01*
X2106625Y1752346D01*
X2107336Y1746097D01*
X2109266Y1740712D01*
X2112314Y1735836D01*
X2116328Y1731772D01*
X2121204Y1728724D01*
X2126589Y1726844D01*
X2132888Y1726133D01*
X2286711Y1726133D01*
X2293010Y1726844D01*
X2298395Y1728724D01*
X2303272Y1731772D01*
X2307285Y1735836D01*
X2310333Y1740712D01*
X2312263Y1746097D01*
X2312974Y1753717D01*
X2313635Y1757375D01*
X2315565Y1760524D01*
X2318562Y1762810D01*
X2322118Y1763826D01*
X2323998Y1764030D01*
X2331262Y1766214D01*
X2337917Y1769770D01*
X2344166Y1774901D01*
X2394000Y1824736D01*
X2399131Y1830984D01*
X2402687Y1837639D01*
X2404872Y1844903D01*
X2405684Y1852930D01*
X2405684Y2101596D01*
X2404872Y2109622D01*
X2402687Y2116886D01*
X2399131Y2123541D01*
X2394305Y2129383D01*
X2388463Y2134209D01*
X2381808Y2137765D01*
X2374544Y2139950D01*
X2369820Y2140407D01*
X2366162Y2141524D01*
X2363165Y2143861D01*
X2360879Y2148179D01*
X2357170Y2154072D01*
X2355799Y2157476D01*
X2355748Y2161133D01*
X2356967Y2164537D01*
X2359304Y2167331D01*
X2362708Y2170125D01*
X2380538Y2188057D01*
X2383993Y2190343D01*
X2388108Y2191004D01*
X2392172Y2190038D01*
X2395474Y2187498D01*
X2397455Y2183841D01*
X2397912Y2182317D01*
X2401468Y2175662D01*
X2406294Y2169820D01*
X2412136Y2164994D01*
X2418791Y2161438D01*
X2426055Y2159254D01*
X2430780Y2158796D01*
X2434437Y2157679D01*
X2437434Y2155342D01*
X2439720Y2150973D01*
X2442768Y2146147D01*
X2446832Y2142083D01*
X2451658Y2139035D01*
X2457094Y2137156D01*
X2463342Y2136444D01*
X2587193Y2136444D01*
X2593441Y2137156D01*
X2598877Y2139035D01*
X2603703Y2142083D01*
X2607767Y2146147D01*
X2610815Y2150973D01*
X2612694Y2156409D01*
X2613406Y2162657D01*
X2613406Y2231542D01*
X2612694Y2237790D01*
X2610815Y2243226D01*
X2607767Y2248052D01*
X2603703Y2252116D01*
X2598877Y2255164D01*
X2593441Y2257044D01*
X2587193Y2257755D01*
X2482392Y2257755D01*
X2478481Y2258517D01*
X2475179Y2260752D01*
X2472994Y2264003D01*
X2472232Y2267915D01*
X2472232Y3073400D01*
X2471420Y3081426D01*
X2469235Y3088690D01*
X2465679Y3095345D01*
X2460548Y3101594D01*
X2283206Y3278936D01*
X2280869Y3282645D01*
X2280310Y3287064D01*
X2281682Y3291281D01*
X2284730Y3294532D01*
X2288844Y3296158D01*
X2293823Y3296920D01*
X2307996Y3300933D01*
X2321560Y3306673D01*
X2334310Y3314039D01*
X2346045Y3322929D01*
X2356612Y3333191D01*
X2365857Y3344672D01*
X2373579Y3357168D01*
X2379776Y3370529D01*
X2384247Y3384600D01*
X2386939Y3399078D01*
X2387854Y3413760D01*
X2386939Y3428441D01*
X2384247Y3442919D01*
X2379776Y3456990D01*
X2373579Y3470351D01*
X2365857Y3482848D01*
X2356612Y3494328D01*
X2346045Y3504590D01*
X2334310Y3513480D01*
X2321560Y3520846D01*
X2307996Y3526586D01*
X2293823Y3530600D01*
X2279243Y3532886D01*
X2264511Y3533343D01*
X2249881Y3531971D01*
X2235504Y3528822D01*
X2221585Y3523894D01*
X2208428Y3517341D01*
X2196134Y3509213D01*
X2184958Y3499612D01*
X2175052Y3488740D01*
X2172360Y3484930D01*
X2169363Y3482136D01*
X2165502Y3480765D01*
X2161438Y3481019D01*
X2157780Y3482797D01*
X2155139Y3485896D01*
X2153920Y3489807D01*
X2153412Y3494938D01*
X2151227Y3502202D01*
X2147671Y3508857D01*
X2142540Y3515106D01*
X2093620Y3563975D01*
X2090877Y3567531D01*
X2089912Y3571900D01*
X2090928Y3576269D01*
X2093722Y3579774D01*
X2097786Y3581755D01*
X2102256Y3581755D01*
X2110181Y3580028D01*
X2124811Y3578656D01*
X2139543Y3579114D01*
X2154123Y3581400D01*
X2168296Y3585413D01*
X2181860Y3591153D01*
X2194610Y3598519D01*
X2206345Y3607409D01*
X2216912Y3617671D01*
X2226157Y3629151D01*
X2233879Y3641648D01*
X2240076Y3655009D01*
X2244547Y3669080D01*
X2247239Y3683558D01*
X2247747Y3691788D01*
X2248712Y3695547D01*
X2250998Y3698646D01*
X2254300Y3700678D01*
X2258060Y3701338D01*
X2261870Y3700526D01*
X2265070Y3698341D01*
X2639314Y3324250D01*
X2641549Y3320948D01*
X2642311Y3317087D01*
X2642311Y2018538D01*
X2643784Y2005584D01*
X2637129Y1987296D01*
X2633980Y1973478D01*
X2632608Y1959356D01*
X2633065Y1945182D01*
X2635351Y1931162D01*
X2639364Y1917598D01*
X2645105Y1904644D01*
X2652471Y1892503D01*
X2661310Y1881428D01*
X2671470Y1871573D01*
X2682849Y1863089D01*
X2695194Y1856130D01*
X2708351Y1850796D01*
X2722067Y1847189D01*
X2736088Y1845411D01*
X2750312Y1845411D01*
X2764332Y1847189D01*
X2778048Y1850796D01*
X2791206Y1856130D01*
X2803550Y1863089D01*
X2814929Y1871573D01*
X2825089Y1881428D01*
X2833928Y1892503D01*
X2841294Y1904644D01*
X2847035Y1917598D01*
X2851048Y1931162D01*
X2853334Y1945182D01*
X2853791Y1959356D01*
X2852420Y1973478D01*
X2849270Y1987296D01*
X2844342Y2000605D01*
X2837789Y2013153D01*
X2829712Y2024786D01*
X2820162Y2035251D01*
X2809392Y2044446D01*
X2797505Y2052218D01*
X2784703Y2058365D01*
X2771241Y2062835D01*
X2757322Y2065528D01*
X2743200Y2066442D01*
X2730449Y2065629D01*
X2726334Y2066188D01*
X2722829Y2068322D01*
X2720441Y2071725D01*
X2719628Y2075738D01*
X2719628Y2563520D01*
X2720644Y2567940D01*
X2723438Y2571445D01*
X2727502Y2573426D01*
X2732024Y2573426D01*
X2736088Y2571496D01*
X2738932Y2567990D01*
X2749956Y2545334D01*
X2762910Y2523286D01*
X2777490Y2502204D01*
X2793593Y2482342D01*
X2811170Y2463749D01*
X2830118Y2446528D01*
X2850286Y2430780D01*
X2871571Y2416606D01*
X2893923Y2404110D01*
X2917139Y2393289D01*
X2941066Y2384298D01*
X2965653Y2377135D01*
X2990697Y2371852D01*
X3016046Y2368448D01*
X3041599Y2367026D01*
X3067202Y2367483D01*
X3092653Y2369921D01*
X3117900Y2374239D01*
X3142691Y2380488D01*
X3166973Y2388565D01*
X3190595Y2398471D01*
X3213354Y2410155D01*
X3235198Y2423515D01*
X3255975Y2438450D01*
X3275533Y2454960D01*
X3293821Y2472893D01*
X3310636Y2492146D01*
X3326028Y2512618D01*
X3339795Y2534158D01*
X3351885Y2556713D01*
X3358489Y2571750D01*
X3360724Y2574950D01*
X3364077Y2577084D01*
X3367938Y2577795D01*
X3371748Y2576982D01*
X3374999Y2574747D01*
X3377184Y2571496D01*
X3377946Y2567635D01*
X3377946Y493064D01*
X3377184Y489204D01*
X3374999Y485952D01*
X3371748Y483717D01*
X3367938Y482904D01*
X3364077Y483616D01*
X3360724Y485749D01*
X3358489Y488950D01*
X3351885Y503986D01*
X3339795Y526542D01*
X3326028Y548081D01*
X3310636Y568553D01*
X3293821Y587806D01*
X3275533Y605739D01*
X3255975Y622249D01*
X3235198Y637184D01*
X3213354Y650544D01*
X3190595Y662228D01*
X3166973Y672134D01*
X3142691Y680212D01*
X3117900Y686460D01*
X3092653Y690778D01*
X3067202Y693216D01*
X3041599Y693674D01*
X3016046Y692251D01*
X2990697Y688848D01*
X2965653Y683564D01*
X2941066Y676402D01*
X2917139Y667410D01*
X2893923Y656590D01*
X2871571Y644093D01*
X2850286Y629920D01*
X2830118Y614172D01*
X2811170Y596950D01*
X2793593Y578358D01*
X2777490Y558495D01*
X2762910Y537413D01*
X2749956Y515366D01*
X2738729Y492353D01*
X2729280Y468579D01*
X2721660Y444144D01*
X2715869Y419201D01*
X2712008Y393903D01*
X2710078Y368401D01*
X2710078Y342798D01*
X2712008Y317296D01*
X2715869Y291998D01*
X2721660Y267055D01*
X2729280Y242620D01*
X2738729Y218846D01*
X2749956Y195834D01*
X2762910Y173786D01*
X2777490Y152704D01*
X2793593Y132842D01*
X2811170Y114249D01*
X2830118Y97028D01*
X2850286Y81280D01*
X2871571Y67106D01*
X2893923Y54610D01*
X2914497Y45008D01*
X2917647Y42722D01*
X2919730Y39420D01*
X2920390Y35560D01*
X2919526Y31750D01*
X2917291Y28549D01*
X2914040Y26416D01*
X2910230Y25654D01*
X2398014Y25654D01*
X2394102Y26416D01*
X2390851Y28651D01*
X2388616Y31902D01*
X2387854Y35814D01*
X2387854Y243586D01*
X2388616Y247497D01*
X2390851Y250748D01*
X2394102Y252984D01*
X2398014Y253746D01*
X2539390Y253746D01*
X2545842Y254508D01*
X2551277Y256590D01*
X2556357Y260096D01*
X2559405Y263144D01*
X2561996Y266700D01*
X2564485Y272186D01*
X2565654Y279552D01*
X2565654Y481990D01*
X2564892Y488442D01*
X2562809Y493877D01*
X2559304Y498957D01*
X2556256Y502005D01*
X2552700Y504596D01*
X2547213Y507085D01*
X2539847Y508254D01*
X2398014Y508254D01*
X2394102Y509016D01*
X2390851Y511251D01*
X2388616Y514502D01*
X2387854Y518414D01*
X2387854Y862990D01*
X2387092Y869442D01*
X2385009Y874877D01*
X2381504Y879957D01*
X2378456Y883005D01*
X2374900Y885596D01*
X2369413Y888085D01*
X2362047Y889253D01*
X2032609Y889253D01*
X2026157Y888492D01*
X2020722Y886409D01*
X2015642Y882903D01*
X2012594Y879856D01*
X2010003Y876300D01*
X2007514Y870813D01*
X2006346Y863447D01*
X2006346Y810615D01*
X2005584Y806704D01*
X2003348Y803452D01*
X2000097Y801217D01*
X1996186Y800455D01*
X1972462Y800455D01*
X1968804Y801116D01*
X1965655Y803097D01*
X1963369Y806043D01*
X1962150Y811428D01*
X1959965Y818692D01*
X1956409Y825347D01*
X1951583Y831189D01*
X1945741Y836015D01*
X1939086Y839571D01*
X1931822Y841756D01*
X1923796Y842568D01*
X1868830Y842568D01*
X1864969Y843330D01*
X1861667Y845566D01*
X1215847Y1491589D01*
X1213815Y1494485D01*
X1212900Y1497888D01*
X1212240Y1505559D01*
X1209700Y1515008D01*
X1205585Y1523847D01*
X1199946Y1531874D01*
X1193038Y1538782D01*
X1186738Y1543202D01*
X1183792Y1546453D01*
X1182471Y1550619D01*
X1183030Y1554988D01*
X1185367Y1558696D01*
X1186789Y1560118D01*
X1190040Y1562303D01*
X1193952Y1563065D01*
X1258265Y1563065D01*
X1261922Y1562404D01*
X1265123Y1560423D01*
X1267358Y1557477D01*
X1268374Y1553921D01*
X1269187Y1546047D01*
X1271066Y1540713D01*
X1274114Y1535836D01*
X1278128Y1531772D01*
X1283004Y1528724D01*
X1288389Y1526844D01*
X1294688Y1526133D01*
X1428292Y1526133D01*
X1431950Y1525473D01*
X1435150Y1523492D01*
X1437386Y1520494D01*
X1438402Y1516888D01*
X1438757Y1512722D01*
X1441297Y1503273D01*
X1445412Y1494434D01*
X1451051Y1486408D01*
X1457960Y1479499D01*
X1465986Y1473860D01*
X1474825Y1469745D01*
X1484274Y1467205D01*
X1494028Y1466342D01*
X1503781Y1467205D01*
X1513230Y1469745D01*
X1522069Y1473860D01*
X1530096Y1479499D01*
X1531467Y1480870D01*
X1534769Y1483055D01*
X1538630Y1483817D01*
X2023364Y1483817D01*
X2031390Y1484630D01*
X2038654Y1486814D01*
X2045309Y1490370D01*
X2051557Y1495501D01*
X2095398Y1539341D01*
X2098395Y1541424D01*
X2101900Y1542288D01*
X2105507Y1541881D01*
X2108758Y1540256D01*
X2111197Y1537563D01*
X2112314Y1535836D01*
X2116328Y1531772D01*
X2121204Y1528724D01*
X2126589Y1526844D01*
X2132888Y1526133D01*
X2286711Y1526133D01*
X2293010Y1526844D01*
X2298395Y1528724D01*
X2303272Y1531772D01*
X2307285Y1535836D01*
X2310333Y1540713D01*
X2312263Y1546098D01*
X2312974Y1552346D01*
X2312974Y1651254D01*
X2312263Y1657502D01*
X2310333Y1662887D01*
X2307285Y1667764D01*
X2303272Y1671828D01*
X2298395Y1674875D01*
X2293010Y1676755D01*
X2286711Y1677466D01*
X2132888Y1677466D01*
X2126589Y1676755D01*
X2121204Y1674875D01*
X2116328Y1671828D01*
X2112314Y1667764D01*
X2109266Y1662887D01*
X2107336Y1657502D01*
X2106625Y1649882D01*
X2105964Y1646224D01*
X2104034Y1643075D01*
X2101037Y1640789D01*
X2097481Y1639773D01*
X2095601Y1639570D01*
X2088337Y1637385D01*
X2081682Y1633829D01*
X2075434Y1628698D01*
X2010816Y1564081D01*
X2007565Y1561896D01*
X2003653Y1561134D01*
X1904034Y1561134D01*
X1900123Y1561896D01*
X1896821Y1564081D01*
X1894636Y1567383D01*
X1893874Y1571294D01*
X1893874Y1651254D01*
X1893163Y1657502D01*
X1891233Y1662887D01*
X1888185Y1667764D01*
X1884172Y1671828D01*
X1879295Y1674875D01*
X1873910Y1676755D01*
X1867611Y1677466D01*
X1713788Y1677466D01*
X1707489Y1676755D01*
X1702104Y1674875D01*
X1697228Y1671828D01*
X1693214Y1667764D01*
X1690166Y1662887D01*
X1688287Y1657553D01*
X1687474Y1649577D01*
X1686458Y1645970D01*
X1684223Y1643024D01*
X1681022Y1641043D01*
X1677365Y1640382D01*
X1651152Y1640382D01*
X1647291Y1641144D01*
X1643989Y1643329D01*
X1642618Y1644700D01*
X1634591Y1650339D01*
X1625752Y1654454D01*
X1616303Y1656994D01*
X1606550Y1657857D01*
X1596796Y1656994D01*
X1587347Y1654454D01*
X1578508Y1650339D01*
X1570482Y1644700D01*
X1563573Y1637792D01*
X1557934Y1629765D01*
X1553819Y1620926D01*
X1551279Y1611477D01*
X1550416Y1601724D01*
X1551279Y1591970D01*
X1553819Y1582521D01*
X1557070Y1575562D01*
X1557985Y1571650D01*
X1557324Y1567637D01*
X1555140Y1564233D01*
X1551838Y1561947D01*
X1547825Y1561134D01*
X1538630Y1561134D01*
X1534769Y1561896D01*
X1531467Y1564081D01*
X1530096Y1565452D01*
X1522069Y1571091D01*
X1513230Y1575206D01*
X1503781Y1577746D01*
X1494028Y1578610D01*
X1485798Y1577848D01*
X1481632Y1578356D01*
X1478026Y1580489D01*
X1475638Y1583893D01*
X1474774Y1588008D01*
X1474774Y1651254D01*
X1474063Y1657502D01*
X1472133Y1662887D01*
X1469085Y1667764D01*
X1465072Y1671828D01*
X1460195Y1674875D01*
X1454810Y1676755D01*
X1448511Y1677466D01*
X1294688Y1677466D01*
X1288389Y1676755D01*
X1283004Y1674875D01*
X1278128Y1671828D01*
X1274114Y1667764D01*
X1271066Y1662887D01*
X1269187Y1657553D01*
X1268374Y1649577D01*
X1267358Y1645970D01*
X1265123Y1643024D01*
X1261922Y1641043D01*
X1258265Y1640382D01*
X1174242Y1640382D01*
X1166215Y1639570D01*
X1158951Y1637385D01*
X1152296Y1633829D01*
X1146048Y1628698D01*
X1060094Y1542745D01*
X1056640Y1540459D01*
X1052525Y1539748D01*
X1048512Y1540764D01*
X1045210Y1543304D01*
X1043178Y1546910D01*
X1042974Y1552346D01*
X1042974Y1651254D01*
X1042263Y1657502D01*
X1040333Y1662887D01*
X1037285Y1667764D01*
X1033271Y1671828D01*
X1028395Y1674875D01*
X1023010Y1676755D01*
X1016711Y1677466D01*
X862888Y1677466D01*
X856589Y1676755D01*
X851204Y1674875D01*
X846328Y1671828D01*
X842314Y1667764D01*
X839266Y1662887D01*
X837387Y1657553D01*
X836574Y1649577D01*
X835558Y1645970D01*
X833323Y1643024D01*
X830122Y1641043D01*
X826465Y1640382D01*
X819302Y1640382D01*
X815441Y1641144D01*
X812139Y1643329D01*
X810768Y1644700D01*
X802741Y1650339D01*
X793902Y1654454D01*
X784453Y1656994D01*
X774700Y1657857D01*
X764946Y1656994D01*
X755497Y1654454D01*
X746658Y1650339D01*
X738632Y1644700D01*
X731723Y1637792D01*
X726084Y1629765D01*
X721969Y1620926D01*
X719429Y1611477D01*
X718566Y1601724D01*
X719429Y1591970D01*
X721969Y1582521D01*
X726084Y1573682D01*
X731723Y1565656D01*
X738632Y1558747D01*
X746658Y1553108D01*
X755497Y1548993D01*
X764946Y1546453D01*
X774700Y1545590D01*
X784453Y1546453D01*
X793902Y1548993D01*
X802741Y1553108D01*
X810768Y1558747D01*
X812139Y1560118D01*
X815441Y1562303D01*
X819302Y1563065D01*
X826465Y1563065D01*
X830122Y1562404D01*
X833323Y1560423D01*
X835558Y1557477D01*
X836574Y1553921D01*
X837387Y1546047D01*
X839266Y1540713D01*
X842314Y1535836D01*
X846328Y1531772D01*
X851204Y1528724D01*
X856589Y1526844D01*
X862888Y1526133D01*
X999540Y1526133D01*
X1003350Y1525371D01*
X1006652Y1523238D01*
X1008837Y1520037D01*
X1009700Y1516227D01*
X1009040Y1512417D01*
X1007008Y1509064D01*
X1003858Y1506778D01*
X1000658Y1505305D01*
X992632Y1499666D01*
X985723Y1492758D01*
X980084Y1484731D01*
X975969Y1475892D01*
X973429Y1466443D01*
X972566Y1456690D01*
X973429Y1446936D01*
X975969Y1437487D01*
X980084Y1428648D01*
X985723Y1420622D01*
X992632Y1413713D01*
X1000658Y1408074D01*
X1009497Y1403959D01*
X1018946Y1401419D01*
X1028700Y1400556D01*
X1038453Y1401419D01*
X1047902Y1403959D01*
X1056741Y1408074D01*
X1064768Y1413713D01*
X1071676Y1420622D01*
X1077315Y1428648D01*
X1081430Y1437487D01*
X1083970Y1446936D01*
X1084630Y1454607D01*
X1085545Y1458010D01*
X1087577Y1460906D01*
X1094079Y1467408D01*
X1097788Y1469745D01*
X1102156Y1470304D01*
X1106322Y1468983D01*
X1109573Y1466037D01*
X1113993Y1459738D01*
X1120902Y1452829D01*
X1128928Y1447190D01*
X1137767Y1443075D01*
X1147216Y1440535D01*
X1154887Y1439875D01*
X1158290Y1438960D01*
X1161186Y1436928D01*
X1780184Y817676D01*
X1782368Y814425D01*
X1783130Y810514D01*
X1782368Y806602D01*
X1780184Y803351D01*
X1776882Y801116D01*
X1772970Y800354D01*
X1613966Y800354D01*
X1607718Y799642D01*
X1602536Y797864D01*
X1599184Y797255D01*
X1595831Y797864D01*
X1590395Y799744D01*
X1583232Y800455D01*
X1579372Y801217D01*
X1576070Y803452D01*
X1573834Y806704D01*
X1573072Y810615D01*
X1573834Y814527D01*
X1576070Y817778D01*
X1579676Y821436D01*
X1585315Y829462D01*
X1589430Y838301D01*
X1591970Y847750D01*
X1592834Y857503D01*
X1591970Y867257D01*
X1589430Y876706D01*
X1585315Y885545D01*
X1579676Y893571D01*
X1572768Y900480D01*
X1564741Y906119D01*
X1555902Y910234D01*
X1546453Y912774D01*
X1536700Y913637D01*
X1526946Y912774D01*
X1517497Y910234D01*
X1508658Y906119D01*
X1500632Y900480D01*
X1493723Y893571D01*
X1488084Y885545D01*
X1483969Y876706D01*
X1481429Y867257D01*
X1480769Y859586D01*
X1479854Y856183D01*
X1477822Y853287D01*
X1462735Y838200D01*
X1457604Y831951D01*
X1454048Y825296D01*
X1451864Y818032D01*
X1451000Y809599D01*
X1449984Y806043D01*
X1447749Y803097D01*
X1444548Y801116D01*
X1440891Y800455D01*
X1420114Y800455D01*
X1416202Y801217D01*
X1412951Y803452D01*
X1410716Y806704D01*
X1409954Y810615D01*
X1409954Y862990D01*
X1409192Y869442D01*
X1407109Y874877D01*
X1403604Y879957D01*
X1400556Y883005D01*
X1397000Y885596D01*
X1391513Y888085D01*
X1384147Y889253D01*
X1054709Y889253D01*
X1048258Y888492D01*
X1042822Y886409D01*
X1037742Y882903D01*
X1034694Y879856D01*
X1032103Y876300D01*
X1029614Y870813D01*
X1028446Y863447D01*
X1028446Y518414D01*
X1027684Y514502D01*
X1025448Y511251D01*
X1022197Y509016D01*
X1018286Y508254D01*
X864209Y508254D01*
X857758Y507492D01*
X852322Y505409D01*
X847242Y501904D01*
X844194Y498856D01*
X841603Y495300D01*
X839114Y489813D01*
X837946Y482447D01*
X837946Y280009D01*
X838708Y273558D01*
X840790Y268122D01*
X844296Y263042D01*
X847344Y259994D01*
X850900Y257403D01*
X856386Y254914D01*
X863752Y253746D01*
X1018286Y253746D01*
X1022197Y252984D01*
X1025448Y250748D01*
X1027684Y247497D01*
X1028446Y243586D01*
X1028446Y35814D01*
X1027684Y31902D01*
X1025448Y28651D01*
X1022197Y26416D01*
X1018286Y25654D01*
G37*

%LPC*%
G36*
X2658770Y1083157D02*
G01*
X2827629Y1083157D01*
X2833878Y1083868D01*
X2839313Y1085748D01*
X2844139Y1088796D01*
X2848203Y1092860D01*
X2851251Y1097686D01*
X2853131Y1103122D01*
X2853842Y1109370D01*
X2853842Y1278229D01*
X2853131Y1284478D01*
X2851251Y1289913D01*
X2848203Y1294739D01*
X2844139Y1298803D01*
X2839313Y1301851D01*
X2833878Y1303731D01*
X2827629Y1304442D01*
X2658770Y1304442D01*
X2652522Y1303731D01*
X2647086Y1301851D01*
X2642260Y1298803D01*
X2638196Y1294739D01*
X2635148Y1289913D01*
X2633268Y1284478D01*
X2632557Y1278229D01*
X2632557Y1109370D01*
X2633268Y1103122D01*
X2635148Y1097686D01*
X2638196Y1092860D01*
X2642260Y1088796D01*
X2647086Y1085748D01*
X2652522Y1083868D01*
G37*
G36*
X2736088Y1337411D02*
G01*
X2750312Y1337411D01*
X2764332Y1339189D01*
X2778048Y1342796D01*
X2791206Y1348130D01*
X2803550Y1355090D01*
X2814929Y1363573D01*
X2825089Y1373428D01*
X2833928Y1384503D01*
X2841294Y1396644D01*
X2847035Y1409598D01*
X2851048Y1423162D01*
X2853334Y1437182D01*
X2853791Y1451356D01*
X2852420Y1465478D01*
X2849270Y1479296D01*
X2844342Y1492605D01*
X2837789Y1505153D01*
X2829712Y1516786D01*
X2820162Y1527251D01*
X2809392Y1536446D01*
X2797505Y1544218D01*
X2784703Y1550365D01*
X2771241Y1554835D01*
X2757322Y1557528D01*
X2743200Y1558442D01*
X2729077Y1557528D01*
X2715158Y1554835D01*
X2701696Y1550365D01*
X2688894Y1544218D01*
X2677007Y1536446D01*
X2666238Y1527251D01*
X2656687Y1516786D01*
X2648610Y1505153D01*
X2642057Y1492605D01*
X2637129Y1479296D01*
X2633980Y1465478D01*
X2632608Y1451356D01*
X2633065Y1437182D01*
X2635351Y1423162D01*
X2639364Y1409598D01*
X2645105Y1396644D01*
X2652471Y1384503D01*
X2661310Y1373428D01*
X2671470Y1363573D01*
X2682849Y1355090D01*
X2695194Y1348130D01*
X2708351Y1342796D01*
X2722067Y1339189D01*
G37*
G36*
X443788Y1526133D02*
G01*
X597611Y1526133D01*
X603910Y1526844D01*
X609295Y1528724D01*
X614172Y1531772D01*
X618185Y1535836D01*
X621233Y1540713D01*
X623163Y1546098D01*
X623874Y1553565D01*
X624535Y1557223D01*
X626465Y1560372D01*
X629462Y1562658D01*
X633018Y1563674D01*
X634898Y1563878D01*
X642162Y1566062D01*
X648817Y1569618D01*
X654659Y1574444D01*
X659485Y1580286D01*
X663041Y1586941D01*
X665226Y1594205D01*
X666038Y1602232D01*
X666038Y1674114D01*
X665226Y1682140D01*
X663041Y1689404D01*
X659485Y1696059D01*
X654354Y1702307D01*
X630936Y1725726D01*
X624840Y1730756D01*
X622249Y1733905D01*
X621131Y1737868D01*
X621690Y1741932D01*
X623163Y1746097D01*
X623874Y1752346D01*
X623874Y1851253D01*
X623163Y1857502D01*
X621233Y1862886D01*
X618185Y1867763D01*
X614172Y1871827D01*
X609295Y1874875D01*
X603910Y1876755D01*
X597611Y1877466D01*
X462838Y1877466D01*
X458927Y1878228D01*
X455625Y1880412D01*
X453440Y1883714D01*
X452678Y1887626D01*
X452678Y2022602D01*
X451866Y2030628D01*
X449681Y2037892D01*
X446125Y2044547D01*
X440994Y2050796D01*
X362712Y2129078D01*
X356463Y2134209D01*
X349808Y2137765D01*
X347167Y2138578D01*
X343560Y2140508D01*
X341020Y2143760D01*
X340004Y2147722D01*
X340614Y2151786D01*
X342747Y2155240D01*
X346100Y2157628D01*
X350113Y2158441D01*
X397916Y2158441D01*
X401980Y2157577D01*
X405333Y2155190D01*
X410768Y2146147D01*
X414832Y2142083D01*
X419658Y2139035D01*
X425094Y2137156D01*
X431342Y2136444D01*
X555193Y2136444D01*
X561441Y2137156D01*
X566877Y2139035D01*
X571703Y2142083D01*
X575767Y2146147D01*
X578815Y2150973D01*
X580694Y2156409D01*
X581406Y2162657D01*
X581406Y2231542D01*
X580694Y2237790D01*
X578815Y2243226D01*
X575767Y2248052D01*
X571703Y2252116D01*
X566877Y2255164D01*
X561441Y2257044D01*
X555193Y2257755D01*
X431342Y2257755D01*
X425094Y2257044D01*
X419658Y2255164D01*
X414832Y2252116D01*
X410768Y2248052D01*
X405333Y2239010D01*
X401980Y2236622D01*
X397916Y2235758D01*
X339648Y2235758D01*
X335838Y2236470D01*
X332587Y2238552D01*
X330352Y2241702D01*
X329488Y2245461D01*
X330047Y2249271D01*
X330758Y2251405D01*
X331470Y2257653D01*
X331470Y2268270D01*
X280924Y2268270D01*
X280924Y2245918D01*
X280162Y2242007D01*
X277977Y2238705D01*
X274675Y2236520D01*
X270764Y2235758D01*
X215900Y2235758D01*
X211988Y2236520D01*
X208686Y2238705D01*
X206502Y2242007D01*
X205740Y2245918D01*
X205740Y2268270D01*
X200456Y2268270D01*
X196545Y2269032D01*
X193243Y2271217D01*
X191058Y2274519D01*
X190296Y2278430D01*
X190296Y2305761D01*
X191058Y2309672D01*
X193243Y2312974D01*
X196545Y2315159D01*
X200456Y2315921D01*
X205740Y2315921D01*
X205740Y2338120D01*
X206502Y2341981D01*
X208686Y2345283D01*
X1112367Y3248964D01*
X1115618Y3251149D01*
X1119530Y3251911D01*
X1160272Y3251911D01*
X1168298Y3252724D01*
X1175562Y3254908D01*
X1182217Y3258464D01*
X1188059Y3263290D01*
X1192885Y3269132D01*
X1196441Y3275787D01*
X1198626Y3283051D01*
X1198829Y3284982D01*
X1199845Y3288537D01*
X1202131Y3291484D01*
X1205280Y3293465D01*
X1208938Y3294126D01*
X1254201Y3294126D01*
X1260449Y3294837D01*
X1265885Y3296716D01*
X1270711Y3299764D01*
X1274775Y3303828D01*
X1277823Y3308654D01*
X1279702Y3314090D01*
X1280414Y3320338D01*
X1280414Y3507181D01*
X1279702Y3513429D01*
X1277823Y3518865D01*
X1274775Y3523691D01*
X1270711Y3527755D01*
X1265885Y3530803D01*
X1260449Y3532682D01*
X1254201Y3533394D01*
X1067358Y3533394D01*
X1061110Y3532682D01*
X1055674Y3530803D01*
X1050848Y3527755D01*
X1046784Y3523691D01*
X1043736Y3518865D01*
X1041857Y3513429D01*
X1041146Y3507181D01*
X1041146Y3320338D01*
X1041857Y3314090D01*
X1043736Y3308654D01*
X1046784Y3303879D01*
X1048054Y3300729D01*
X1048258Y3297326D01*
X1047343Y3294024D01*
X1045362Y3291281D01*
X124663Y2370582D01*
X119532Y2364333D01*
X115976Y2357678D01*
X113792Y2350414D01*
X112979Y2342388D01*
X112979Y2228342D01*
X113792Y2220315D01*
X115976Y2213051D01*
X119532Y2206396D01*
X124663Y2200148D01*
X154686Y2170125D01*
X158902Y2166670D01*
X161239Y2163876D01*
X162458Y2160473D01*
X162407Y2156815D01*
X161036Y2153412D01*
X157784Y2148230D01*
X155905Y2142794D01*
X155194Y2136546D01*
X155194Y2067661D01*
X155905Y2061413D01*
X157784Y2055977D01*
X160832Y2051151D01*
X164896Y2047087D01*
X169722Y2044039D01*
X175158Y2042160D01*
X181406Y2041448D01*
X305257Y2041448D01*
X311505Y2042160D01*
X316839Y2044039D01*
X323037Y2048052D01*
X326186Y2049373D01*
X329641Y2049627D01*
X332943Y2048713D01*
X335737Y2046681D01*
X372414Y2010054D01*
X374599Y2006803D01*
X375361Y2002891D01*
X375361Y1802384D01*
X376174Y1794357D01*
X378358Y1787093D01*
X381914Y1780438D01*
X386740Y1774596D01*
X392582Y1769770D01*
X399237Y1766214D01*
X406501Y1764030D01*
X408381Y1763826D01*
X411937Y1762810D01*
X414934Y1760524D01*
X416864Y1757375D01*
X418236Y1746097D01*
X420166Y1740712D01*
X423214Y1735836D01*
X427228Y1731772D01*
X432104Y1728724D01*
X437489Y1726844D01*
X443788Y1726133D01*
X456946Y1726133D01*
X460552Y1725472D01*
X463702Y1723542D01*
X465988Y1720596D01*
X467055Y1717039D01*
X466750Y1713331D01*
X465429Y1708505D01*
X464566Y1698752D01*
X465480Y1688490D01*
X464972Y1684324D01*
X462838Y1680768D01*
X459435Y1678330D01*
X455371Y1677466D01*
X443788Y1677466D01*
X437489Y1676755D01*
X432104Y1674875D01*
X427228Y1671828D01*
X423214Y1667764D01*
X420166Y1662887D01*
X418236Y1657502D01*
X417525Y1651254D01*
X417525Y1552346D01*
X418236Y1546098D01*
X420166Y1540713D01*
X423214Y1535836D01*
X427228Y1531772D01*
X432104Y1528724D01*
X437489Y1526844D01*
G37*
G36*
X2694330Y1602587D02*
G01*
X2694330Y1652930D01*
X2644089Y1652930D01*
X2645105Y1650644D01*
X2652471Y1638503D01*
X2661310Y1627428D01*
X2671470Y1617573D01*
X2682849Y1609090D01*
G37*
G36*
X2792069Y1602587D02*
G01*
X2803550Y1609090D01*
X2814929Y1617573D01*
X2825089Y1627428D01*
X2833928Y1638503D01*
X2841294Y1650644D01*
X2842310Y1652930D01*
X2792069Y1652930D01*
G37*
G36*
X1713788Y1726133D02*
G01*
X1867611Y1726133D01*
X1873910Y1726844D01*
X1879295Y1728724D01*
X1884172Y1731772D01*
X1888185Y1735836D01*
X1891233Y1740712D01*
X1893163Y1746097D01*
X1893874Y1752346D01*
X1893874Y1851253D01*
X1893163Y1857502D01*
X1891233Y1862886D01*
X1888185Y1867763D01*
X1884172Y1871827D01*
X1879295Y1874875D01*
X1873910Y1876755D01*
X1867611Y1877466D01*
X1724456Y1877466D01*
X1720545Y1878228D01*
X1717243Y1880412D01*
X1715058Y1883714D01*
X1714296Y1887626D01*
X1714296Y2031288D01*
X1715058Y2035200D01*
X1717243Y2038451D01*
X1720545Y2040686D01*
X1724456Y2041448D01*
X1829257Y2041448D01*
X1835505Y2042160D01*
X1840941Y2044039D01*
X1845767Y2047087D01*
X1849831Y2051151D01*
X1852879Y2055977D01*
X1854758Y2061413D01*
X1855470Y2067661D01*
X1855470Y2136546D01*
X1854758Y2142794D01*
X1852879Y2148230D01*
X1849831Y2153056D01*
X1845767Y2157120D01*
X1840941Y2160168D01*
X1835505Y2162048D01*
X1829257Y2162759D01*
X1705406Y2162759D01*
X1699158Y2162048D01*
X1693722Y2160168D01*
X1688896Y2157120D01*
X1684832Y2153056D01*
X1681784Y2148230D01*
X1679498Y2143861D01*
X1676501Y2141524D01*
X1672843Y2140407D01*
X1668119Y2139950D01*
X1660855Y2137765D01*
X1654200Y2134209D01*
X1648358Y2129383D01*
X1643532Y2123541D01*
X1639976Y2116886D01*
X1637792Y2109622D01*
X1636979Y2101596D01*
X1636979Y1810766D01*
X1637792Y1802739D01*
X1639976Y1795475D01*
X1643532Y1788820D01*
X1648663Y1782572D01*
X1656334Y1774901D01*
X1662582Y1769770D01*
X1669237Y1766214D01*
X1676501Y1764030D01*
X1678381Y1763826D01*
X1681937Y1762810D01*
X1684934Y1760524D01*
X1686864Y1757375D01*
X1688236Y1746097D01*
X1690166Y1740712D01*
X1693214Y1735836D01*
X1697228Y1731772D01*
X1702104Y1728724D01*
X1707489Y1726844D01*
G37*
G36*
X862888Y1726133D02*
G01*
X1016711Y1726133D01*
X1023010Y1726844D01*
X1028395Y1728724D01*
X1033271Y1731772D01*
X1037285Y1735836D01*
X1040333Y1740712D01*
X1042263Y1746097D01*
X1042974Y1752346D01*
X1042974Y1851253D01*
X1042263Y1857502D01*
X1040333Y1862886D01*
X1037285Y1867763D01*
X1033271Y1871827D01*
X1028395Y1874875D01*
X1023010Y1876755D01*
X1016711Y1877466D01*
X881938Y1877466D01*
X878027Y1878228D01*
X874725Y1880412D01*
X872540Y1883714D01*
X871778Y1887626D01*
X871778Y2016302D01*
X872388Y2019706D01*
X875131Y2024024D01*
X878687Y2030679D01*
X880871Y2037943D01*
X881684Y2045970D01*
X881684Y2101596D01*
X880871Y2109622D01*
X878687Y2116886D01*
X875131Y2123541D01*
X870305Y2129383D01*
X864463Y2134209D01*
X857808Y2137765D01*
X850544Y2139950D01*
X845819Y2140407D01*
X842162Y2141524D01*
X839165Y2143861D01*
X836879Y2148230D01*
X833831Y2153056D01*
X829767Y2157120D01*
X824941Y2160168D01*
X819505Y2162048D01*
X813257Y2162759D01*
X689406Y2162759D01*
X683158Y2162048D01*
X677722Y2160168D01*
X672896Y2157120D01*
X668832Y2153056D01*
X665784Y2148230D01*
X663905Y2142794D01*
X663194Y2136546D01*
X663194Y2067661D01*
X663905Y2061413D01*
X665784Y2055977D01*
X668832Y2051151D01*
X672896Y2047087D01*
X677722Y2044039D01*
X683158Y2042160D01*
X689406Y2041448D01*
X784301Y2041448D01*
X788212Y2040686D01*
X791514Y2038451D01*
X793699Y2035200D01*
X794461Y2031288D01*
X794461Y1802384D01*
X795274Y1794357D01*
X797458Y1787093D01*
X801014Y1780438D01*
X805840Y1774596D01*
X811682Y1769770D01*
X818337Y1766214D01*
X825601Y1764030D01*
X827481Y1763826D01*
X831037Y1762810D01*
X834034Y1760524D01*
X835964Y1757375D01*
X837336Y1746097D01*
X839266Y1740712D01*
X842314Y1735836D01*
X846328Y1731772D01*
X851204Y1728724D01*
X856589Y1726844D01*
G37*
G36*
X2644140Y1750669D02*
G01*
X2694330Y1750669D01*
X2694330Y1800809D01*
X2688894Y1798218D01*
X2677007Y1790446D01*
X2666238Y1781251D01*
X2656687Y1770786D01*
X2648610Y1759153D01*
G37*
G36*
X2792069Y1750669D02*
G01*
X2842260Y1750669D01*
X2837789Y1759153D01*
X2829712Y1770786D01*
X2820162Y1781251D01*
X2809392Y1790446D01*
X2797505Y1798218D01*
X2792069Y1800809D01*
G37*
G36*
X689406Y2231440D02*
G01*
X713740Y2231440D01*
X713740Y2268270D01*
X663194Y2268270D01*
X663194Y2257653D01*
X663905Y2251405D01*
X665784Y2245969D01*
X668832Y2241143D01*
X672896Y2237079D01*
X677722Y2234031D01*
X683158Y2232152D01*
G37*
G36*
X1804924Y2231440D02*
G01*
X1829257Y2231440D01*
X1835505Y2232152D01*
X1840941Y2234031D01*
X1845767Y2237079D01*
X1849831Y2241143D01*
X1852879Y2245969D01*
X1854758Y2251405D01*
X1855470Y2257653D01*
X1855470Y2268270D01*
X1804924Y2268270D01*
G37*
G36*
X788924Y2231440D02*
G01*
X813257Y2231440D01*
X819505Y2232152D01*
X824941Y2234031D01*
X829767Y2237079D01*
X833831Y2241143D01*
X836879Y2245969D01*
X838758Y2251405D01*
X839469Y2257653D01*
X839469Y2268270D01*
X788924Y2268270D01*
G37*
G36*
X1705406Y2231440D02*
G01*
X1729739Y2231440D01*
X1729739Y2268270D01*
X1679193Y2268270D01*
X1679193Y2257653D01*
X1679905Y2251405D01*
X1681784Y2245969D01*
X1684832Y2241143D01*
X1688896Y2237079D01*
X1693722Y2234031D01*
X1699158Y2232152D01*
G37*
G36*
X1347774Y2315616D02*
G01*
X1347470Y2317191D01*
X1347470Y2326538D01*
X1346758Y2332786D01*
X1344879Y2338222D01*
X1341831Y2343048D01*
X1337767Y2347112D01*
X1332941Y2350160D01*
X1327505Y2352040D01*
X1321257Y2352751D01*
X1296924Y2352751D01*
X1296924Y2315921D01*
X1346250Y2315921D01*
G37*
G36*
X788924Y2315921D02*
G01*
X839469Y2315921D01*
X839469Y2326538D01*
X838758Y2332786D01*
X836879Y2338222D01*
X833831Y2343048D01*
X829767Y2347112D01*
X824941Y2350160D01*
X819505Y2352040D01*
X813257Y2352751D01*
X788924Y2352751D01*
G37*
G36*
X663194Y2315921D02*
G01*
X713740Y2315921D01*
X713740Y2352751D01*
X689406Y2352751D01*
X683158Y2352040D01*
X677722Y2350160D01*
X672896Y2347112D01*
X668832Y2343048D01*
X665784Y2338222D01*
X663905Y2332786D01*
X663194Y2326538D01*
G37*
G36*
X1804924Y2315921D02*
G01*
X1855470Y2315921D01*
X1855470Y2326538D01*
X1854758Y2332786D01*
X1852879Y2338222D01*
X1849831Y2343048D01*
X1845767Y2347112D01*
X1840941Y2350160D01*
X1835505Y2352040D01*
X1829257Y2352751D01*
X1804924Y2352751D01*
G37*
G36*
X1171194Y2315921D02*
G01*
X1221740Y2315921D01*
X1221740Y2352751D01*
X1197406Y2352751D01*
X1191158Y2352040D01*
X1185722Y2350160D01*
X1180896Y2347112D01*
X1176832Y2343048D01*
X1173784Y2338222D01*
X1171905Y2332786D01*
X1171194Y2326538D01*
G37*
G36*
X280924Y2315921D02*
G01*
X331470Y2315921D01*
X331470Y2326538D01*
X330758Y2332786D01*
X328879Y2338222D01*
X325831Y2343048D01*
X321767Y2347112D01*
X316941Y2350160D01*
X311505Y2352040D01*
X305257Y2352751D01*
X280924Y2352751D01*
G37*
G36*
X1679193Y2315921D02*
G01*
X1729739Y2315921D01*
X1729739Y2352751D01*
X1705406Y2352751D01*
X1699158Y2352040D01*
X1693722Y2350160D01*
X1688896Y2347112D01*
X1684832Y2343048D01*
X1681784Y2338222D01*
X1679905Y2332786D01*
X1679193Y2326538D01*
G37*
G36*
X2187194Y2315921D02*
G01*
X2237740Y2315921D01*
X2237740Y2352751D01*
X2213406Y2352751D01*
X2207158Y2352040D01*
X2201722Y2350160D01*
X2196896Y2347112D01*
X2192832Y2343048D01*
X2189784Y2338222D01*
X2187905Y2332786D01*
X2187194Y2326538D01*
G37*
G36*
X464820Y3276346D02*
G01*
X487934Y3277311D01*
X510844Y3280156D01*
X533450Y3284931D01*
X555599Y3291484D01*
X577138Y3299917D01*
X597916Y3310077D01*
X617778Y3321913D01*
X636574Y3335324D01*
X654202Y3350260D01*
X670560Y3366617D01*
X685495Y3384245D01*
X698906Y3403041D01*
X710742Y3422904D01*
X720902Y3443681D01*
X729335Y3465220D01*
X735888Y3487369D01*
X740664Y3509975D01*
X743508Y3532886D01*
X744474Y3556000D01*
X743508Y3579114D01*
X740664Y3602024D01*
X735888Y3624630D01*
X729335Y3646779D01*
X720902Y3668318D01*
X710742Y3689096D01*
X698906Y3708958D01*
X685495Y3727754D01*
X670560Y3745382D01*
X654202Y3761740D01*
X636574Y3776675D01*
X617778Y3790086D01*
X597916Y3801922D01*
X577138Y3812082D01*
X555599Y3820515D01*
X533450Y3827068D01*
X510844Y3831844D01*
X487934Y3834688D01*
X464820Y3835654D01*
X441706Y3834688D01*
X418795Y3831844D01*
X396189Y3827068D01*
X374040Y3820515D01*
X352501Y3812082D01*
X331724Y3801922D01*
X311861Y3790086D01*
X293065Y3776675D01*
X275437Y3761740D01*
X259079Y3745382D01*
X244144Y3727754D01*
X230733Y3708958D01*
X218897Y3689096D01*
X208737Y3668318D01*
X200304Y3646779D01*
X193751Y3624630D01*
X188976Y3602024D01*
X186131Y3579114D01*
X185166Y3556000D01*
X186131Y3532886D01*
X188976Y3509975D01*
X193751Y3487369D01*
X200304Y3465220D01*
X208737Y3443681D01*
X218897Y3422904D01*
X230733Y3403041D01*
X244144Y3384245D01*
X259079Y3366617D01*
X275437Y3350260D01*
X293065Y3335324D01*
X311861Y3321913D01*
X331724Y3310077D01*
X352501Y3299917D01*
X374040Y3291484D01*
X396189Y3284931D01*
X418795Y3280156D01*
X441706Y3277311D01*
G37*

%LPD*%
G36*
X1613408Y774700D02*
G01*
X1613408Y24688D01*
X1803400Y24688D01*
X1803400Y774700D01*
G37*
D11*
X2743200Y1955800D02*
G01*
X2680970Y2018029D01*
X2680970Y3337305D01*
X2184145Y3833876D01*
X1713229Y3833876D01*
X1577339Y3698239D01*
X414020Y1801876D02*
G01*
X414020Y2023110D01*
X335026Y2102104D01*
X520700Y1801876D02*
G01*
X414020Y1801876D01*
X243331Y2102104D02*
G01*
X335026Y2102104D01*
X1160779Y3290570D02*
G01*
X1099312Y3290570D01*
X151637Y2342895D01*
X151637Y2227834D01*
X182371Y2197100D01*
X493268Y2197100D01*
X1160779Y3413760D02*
G01*
X1160779Y3290570D01*
X833120Y1801876D02*
G01*
X833120Y2035555D01*
X843026Y2045462D01*
X843026Y2102104D01*
X939800Y1801876D02*
G01*
X833120Y1801876D01*
X751331Y2102104D02*
G01*
X843026Y2102104D01*
X1001268Y2197100D02*
G01*
X1306576Y2197100D01*
X1437639Y2328163D01*
X1437639Y3413760D01*
X1264920Y1801876D02*
G01*
X1264920Y1951736D01*
X1351026Y2037842D01*
X1351026Y2102104D01*
X1371600Y1801876D02*
G01*
X1264920Y1801876D01*
X1259331Y2102104D02*
G01*
X1351026Y2102104D01*
X1684020Y1801876D02*
G01*
X1675637Y1810257D01*
X1675637Y2102104D01*
X1790700Y1801876D02*
G01*
X1684020Y1801876D01*
X1767331Y2102104D02*
G01*
X1675637Y2102104D01*
X2017268Y2197100D02*
G01*
X2335022Y2197100D01*
X2383027Y2245360D01*
X2383027Y3022092D01*
X1991359Y3413760D01*
X2316479Y1801876D02*
G01*
X2367025Y1852421D01*
X2367025Y2102104D01*
X2209800Y1801876D02*
G01*
X2316479Y1801876D01*
X2275331Y2102104D02*
G01*
X2367025Y2102104D01*
X2433574Y2197100D02*
G01*
X2433574Y3073907D01*
X2115565Y3391915D01*
X2115565Y3487420D01*
X2066036Y3536950D01*
X1461770Y3536950D01*
X1300479Y3698239D01*
X2525268Y2197100D02*
G01*
X2433574Y2197100D01*
X243331Y2292095D02*
G01*
X751331Y2292095D01*
X1767331Y2292095D02*
G01*
X1921509Y2292095D01*
X1921509Y2292095D02*
G01*
X2275331Y2292095D01*
X751331Y2292095D02*
G01*
X843026Y2292095D01*
X843026Y2292095D02*
G01*
X1259331Y2292095D01*
X1921509Y2292095D02*
G01*
X1921509Y1917954D01*
X2009647Y1830070D01*
X2009647Y1830070D02*
G01*
X2137918Y1701800D01*
X2743200Y1701800D01*
X1140713Y1828037D02*
G01*
X1176020Y1828037D01*
X1282192Y1721865D01*
X1901444Y1721865D01*
X2009647Y1830070D01*
X843026Y2292095D02*
G01*
X894334Y2240787D01*
X894334Y2074418D01*
X1140713Y1828037D01*
X1140713Y1828037D02*
G01*
X1035050Y1722628D01*
X810768Y1722628D01*
X710945Y1622552D01*
X710945Y1555495D01*
X1283462Y982726D01*
X1398270Y982726D01*
X1924304Y803910D02*
G01*
X1848612Y803910D01*
X1156970Y1495805D01*
X1924304Y399795D02*
G01*
X1924304Y803910D01*
X1489710Y399795D02*
G01*
X1489710Y810513D01*
X1536700Y857504D01*
X2209800Y1601723D02*
G01*
X2103120Y1601723D01*
X2103120Y1601723D02*
G01*
X2023872Y1522476D01*
X1494028Y1522476D01*
X1790700Y1601723D02*
G01*
X1606550Y1601723D01*
X1371600Y1601723D02*
G01*
X1173734Y1601723D01*
X1028700Y1456689D01*
X939800Y1601723D02*
G01*
X774700Y1601723D01*
X627379Y1601723D02*
G01*
X627379Y1674621D01*
X603250Y1698752D01*
X520700Y1698752D01*
X520700Y1601723D02*
G01*
X627379Y1601723D01*
X1714500Y3413760D02*
G01*
X1600962Y3300221D01*
X1600962Y2197100D01*
X1509268Y2197100D02*
G01*
X1600962Y2197100D01*
D15*
G01*
X1924304Y399795D03*
G01*
X1489710Y399795D03*
G36*
X2462768Y2232101D02*
G01*
X2462768Y2162098D01*
X2587767Y2162098D01*
X2587767Y2232101D01*
G37*
G36*
X2212832Y2327097D02*
G01*
X2212832Y2257094D01*
X2337831Y2257094D01*
X2337831Y2327097D01*
G37*
G36*
X2212832Y2137105D02*
G01*
X2212832Y2067102D01*
X2337831Y2067102D01*
X2337831Y2137105D01*
G37*
G36*
X1954768Y2232101D02*
G01*
X1954768Y2162098D01*
X2079767Y2162098D01*
X2079767Y2232101D01*
G37*
G36*
X1704832Y2327097D02*
G01*
X1704832Y2257094D01*
X1829831Y2257094D01*
X1829831Y2327097D01*
G37*
G36*
X1704832Y2137105D02*
G01*
X1704832Y2067102D01*
X1829831Y2067102D01*
X1829831Y2137105D01*
G37*
G36*
X1446768Y2232101D02*
G01*
X1446768Y2162098D01*
X1571767Y2162098D01*
X1571767Y2232101D01*
G37*
G36*
X1196832Y2327097D02*
G01*
X1196832Y2257094D01*
X1321831Y2257094D01*
X1321831Y2327097D01*
G37*
G36*
X1196832Y2137105D02*
G01*
X1196832Y2067102D01*
X1321831Y2067102D01*
X1321831Y2137105D01*
G37*
G36*
X938768Y2232101D02*
G01*
X938768Y2162098D01*
X1063767Y2162098D01*
X1063767Y2232101D01*
G37*
G36*
X688832Y2327097D02*
G01*
X688832Y2257094D01*
X813831Y2257094D01*
X813831Y2327097D01*
G37*
G36*
X688832Y2137105D02*
G01*
X688832Y2067102D01*
X813831Y2067102D01*
X813831Y2137105D01*
G37*
G36*
X430768Y2232101D02*
G01*
X430768Y2162098D01*
X555767Y2162098D01*
X555767Y2232101D01*
G37*
G36*
X180832Y2327097D02*
G01*
X180832Y2257094D01*
X305831Y2257094D01*
X305831Y2327097D01*
G37*
G36*
X180832Y2137105D02*
G01*
X180832Y2067102D01*
X305831Y2067102D01*
X305831Y2137105D01*
G37*
G36*
X443199Y1651800D02*
G01*
X443199Y1551800D01*
X598200Y1551800D01*
X598200Y1651800D01*
G37*
G36*
X443199Y1851799D02*
G01*
X443199Y1751799D01*
X598200Y1751799D01*
X598200Y1851799D01*
G37*
G36*
X862299Y1651800D02*
G01*
X862299Y1551800D01*
X1017300Y1551800D01*
X1017300Y1651800D01*
G37*
G36*
X862299Y1851799D02*
G01*
X862299Y1751799D01*
X1017300Y1751799D01*
X1017300Y1851799D01*
G37*
G36*
X1294099Y1651800D02*
G01*
X1294099Y1551800D01*
X1449100Y1551800D01*
X1449100Y1651800D01*
G37*
G36*
X1294099Y1851799D02*
G01*
X1294099Y1751799D01*
X1449100Y1751799D01*
X1449100Y1851799D01*
G37*
G36*
X1713199Y1651800D02*
G01*
X1713199Y1551800D01*
X1868200Y1551800D01*
X1868200Y1651800D01*
G37*
G36*
X1713199Y1851799D02*
G01*
X1713199Y1751799D01*
X1868200Y1751799D01*
X1868200Y1851799D01*
G37*
G36*
X2132299Y1651800D02*
G01*
X2132299Y1551800D01*
X2287300Y1551800D01*
X2287300Y1651800D01*
G37*
G36*
X2132299Y1851799D02*
G01*
X2132299Y1751799D01*
X2287300Y1751799D01*
X2287300Y1851799D01*
G37*
D16*
G01*
X2743200Y1193800D03*
D17*
G01*
X2743200Y1447800D03*
G01*
X2743200Y1701800D03*
G01*
X2743200Y1955800D03*
G36*
X1066800Y3507739D02*
G01*
X1254760Y3507739D01*
X1254760Y3319779D01*
X1066800Y3319779D01*
G37*
D19*
G01*
X1437639Y3413760D03*
G01*
X1714500Y3413760D03*
G01*
X1991359Y3413760D03*
G01*
X2268220Y3413760D03*
G01*
X1300479Y3698239D03*
G01*
X1577339Y3698239D03*
G01*
X1851660Y3698239D03*
G01*
X2128520Y3698239D03*
D20*
G01*
X464820Y3556000D03*
G01*
X2964179Y3556000D03*
D21*
G01*
X3048000Y355600D03*
G01*
X355600Y355600D03*
G01*
X3048000Y2705100D03*
D12*
G01*
X1398270Y982726D03*
G01*
X1156970Y1495805D03*
G01*
X1536700Y857504D03*
G01*
X1494028Y1522476D03*
G01*
X1606550Y1601723D03*
G01*
X1028700Y1456689D03*
G01*
X774700Y1601723D03*
G01*
X520700Y1698752D03*
M02*
