G04 Layer: TopLayer*
G04 EasyEDA v6.4.14, 2021-02-02T13:22:32--5:00*
G04 99f0f78b573744e3acd602d4f8b6235f,d79a69aa59da4e1fbb9b7d465b79b5da,10*
G04 Gerber Generator version 0.2*
G04 Scale: 100 percent, Rotated: No, Reflected: No *
G04 Dimensions in millimeters *
G04 leading zeros omitted , absolute positions ,4 integer and 5 decimal *
%FSLAX45Y45*%
%MOMM*%

%ADD11C,0.2600*%
%ADD12C,0.6100*%
%ADD13R,2.0000X3.3000*%
%ADD14R,2.3000X1.1000*%
%ADD15R,1.9000X7.5000*%
%ADD16R,1.7000X1.7000*%
%ADD17C,1.7000*%
%ADD19C,1.8796*%
%ADD20C,5.0800*%
%ADD21C,6.2500*%

%LPD*%
G36*
X2848813Y1492148D02*
G01*
X2844749Y1494028D01*
X2841853Y1497431D01*
X2837789Y1505153D01*
X2829712Y1516786D01*
X2820162Y1527251D01*
X2809392Y1536446D01*
X2797505Y1544218D01*
X2784703Y1550365D01*
X2771241Y1554835D01*
X2757322Y1557528D01*
X2743200Y1558442D01*
X2729077Y1557528D01*
X2715158Y1554835D01*
X2702864Y1550720D01*
X2699156Y1550212D01*
X2695549Y1551076D01*
X2692450Y1553210D01*
X2645105Y1600555D01*
X2642920Y1603806D01*
X2642158Y1607718D01*
X2642158Y1622399D01*
X2643022Y1626463D01*
X2645410Y1629867D01*
X2648966Y1632000D01*
X2653080Y1632508D01*
X2657043Y1631391D01*
X2660243Y1628749D01*
X2661310Y1627428D01*
X2671470Y1617573D01*
X2682849Y1609090D01*
X2694330Y1602587D01*
X2694330Y1652930D01*
X2652318Y1652930D01*
X2648407Y1653743D01*
X2645105Y1655927D01*
X2642920Y1659229D01*
X2642158Y1663090D01*
X2642158Y1740509D01*
X2642920Y1744370D01*
X2645105Y1747672D01*
X2648407Y1749856D01*
X2652318Y1750669D01*
X2694330Y1750669D01*
X2694330Y1800809D01*
X2688894Y1798218D01*
X2677007Y1790446D01*
X2666238Y1781251D01*
X2659837Y1774240D01*
X2656586Y1771853D01*
X2652623Y1770888D01*
X2648661Y1771599D01*
X2645257Y1773783D01*
X2642971Y1777085D01*
X2642158Y1781048D01*
X2642158Y1876399D01*
X2643022Y1880463D01*
X2645410Y1883867D01*
X2648966Y1886000D01*
X2653080Y1886508D01*
X2657043Y1885391D01*
X2660243Y1882749D01*
X2661310Y1881428D01*
X2671470Y1871573D01*
X2682849Y1863089D01*
X2695194Y1856130D01*
X2708351Y1850796D01*
X2722067Y1847189D01*
X2736088Y1845411D01*
X2750312Y1845411D01*
X2764332Y1847189D01*
X2778048Y1850796D01*
X2791206Y1856130D01*
X2803550Y1863089D01*
X2814929Y1871573D01*
X2825089Y1881428D01*
X2833928Y1892503D01*
X2841548Y1905254D01*
X2843834Y1908454D01*
X2847136Y1910588D01*
X2850997Y1911299D01*
X2854858Y1910486D01*
X2858058Y1908251D01*
X2860243Y1905000D01*
X2861005Y1901139D01*
X2861005Y1756105D01*
X2860040Y1751736D01*
X2857246Y1748231D01*
X2858058Y1747672D01*
X2860243Y1744370D01*
X2861005Y1740509D01*
X2861005Y1663090D01*
X2860243Y1659229D01*
X2858058Y1655927D01*
X2856839Y1655114D01*
X2858058Y1654251D01*
X2860243Y1651000D01*
X2861005Y1647139D01*
X2861005Y1502105D01*
X2860040Y1497736D01*
X2857246Y1494231D01*
X2853283Y1492250D01*
G37*

%LPC*%
G36*
X2792069Y1602587D02*
G01*
X2803550Y1609090D01*
X2814929Y1617573D01*
X2825089Y1627428D01*
X2833928Y1638503D01*
X2841548Y1651254D01*
X2842768Y1652930D01*
X2792069Y1652930D01*
G37*
G36*
X2792069Y1750669D02*
G01*
X2842514Y1750669D01*
X2841853Y1751431D01*
X2837789Y1759153D01*
X2829712Y1770786D01*
X2820162Y1781251D01*
X2809392Y1790446D01*
X2797505Y1798218D01*
X2792069Y1800809D01*
G37*

%LPD*%
G36*
X493064Y25654D02*
G01*
X489153Y26416D01*
X485901Y28600D01*
X483666Y31902D01*
X482904Y35763D01*
X483666Y39674D01*
X485851Y42976D01*
X489102Y45161D01*
X498195Y48971D01*
X520954Y60655D01*
X542798Y74015D01*
X563575Y88950D01*
X583133Y105460D01*
X601421Y123393D01*
X618236Y142646D01*
X633628Y163118D01*
X647395Y184658D01*
X659485Y207213D01*
X669798Y230632D01*
X678383Y254762D01*
X685088Y279450D01*
X689864Y304596D01*
X692759Y330047D01*
X693724Y355600D01*
X692759Y381152D01*
X689864Y406603D01*
X685088Y431749D01*
X678383Y456438D01*
X669798Y480568D01*
X659485Y503986D01*
X647395Y526542D01*
X633628Y548081D01*
X618236Y568553D01*
X601421Y587806D01*
X583133Y605739D01*
X563575Y622249D01*
X542798Y637184D01*
X520954Y650544D01*
X498195Y662228D01*
X474573Y672134D01*
X450291Y680212D01*
X425500Y686460D01*
X400253Y690778D01*
X374802Y693216D01*
X349199Y693674D01*
X323646Y692251D01*
X298297Y688848D01*
X273253Y683564D01*
X248666Y676402D01*
X224739Y667410D01*
X201523Y656590D01*
X179171Y644093D01*
X157886Y629920D01*
X137718Y614172D01*
X118770Y596950D01*
X101193Y578358D01*
X85090Y558495D01*
X70510Y537413D01*
X57556Y515366D01*
X46329Y492353D01*
X45262Y489610D01*
X43078Y486257D01*
X39776Y484022D01*
X35915Y483209D01*
X32004Y483971D01*
X28651Y486156D01*
X26416Y489458D01*
X25654Y493369D01*
X25654Y3863086D01*
X26416Y3866997D01*
X28651Y3870248D01*
X31902Y3872484D01*
X35814Y3873246D01*
X3367786Y3873246D01*
X3371697Y3872484D01*
X3374948Y3870248D01*
X3377184Y3866997D01*
X3377946Y3863086D01*
X3377946Y2842564D01*
X3377184Y2838704D01*
X3374999Y2835452D01*
X3371748Y2833217D01*
X3367938Y2832404D01*
X3364077Y2833116D01*
X3360724Y2835249D01*
X3358489Y2838450D01*
X3351885Y2853486D01*
X3339795Y2876042D01*
X3326028Y2897581D01*
X3310636Y2918053D01*
X3293821Y2937306D01*
X3275533Y2955239D01*
X3255975Y2971749D01*
X3235198Y2986684D01*
X3213354Y3000044D01*
X3190595Y3011728D01*
X3166973Y3021634D01*
X3142691Y3029712D01*
X3117900Y3035960D01*
X3092653Y3040278D01*
X3067202Y3042716D01*
X3041599Y3043174D01*
X3016046Y3041751D01*
X2990697Y3038348D01*
X2965653Y3033064D01*
X2941066Y3025902D01*
X2917139Y3016910D01*
X2893923Y3006090D01*
X2871571Y2993593D01*
X2850286Y2979420D01*
X2830118Y2963672D01*
X2811170Y2946450D01*
X2793593Y2927858D01*
X2777490Y2907995D01*
X2762910Y2886913D01*
X2749956Y2864866D01*
X2738729Y2841853D01*
X2732125Y2825191D01*
X2729941Y2821838D01*
X2726639Y2819603D01*
X2722778Y2818790D01*
X2718816Y2819552D01*
X2715514Y2821736D01*
X2713278Y2825038D01*
X2712516Y2828950D01*
X2712516Y3007614D01*
X2711704Y3015640D01*
X2709519Y3022904D01*
X2705963Y3029559D01*
X2700832Y3035808D01*
X2380437Y3356203D01*
X2378202Y3359607D01*
X2377490Y3363620D01*
X2378405Y3367633D01*
X2379776Y3370529D01*
X2384247Y3384600D01*
X2386939Y3399078D01*
X2387854Y3413760D01*
X2386939Y3428441D01*
X2384247Y3442919D01*
X2379776Y3456990D01*
X2373579Y3470351D01*
X2365857Y3482848D01*
X2356612Y3494328D01*
X2346045Y3504590D01*
X2334310Y3513480D01*
X2321560Y3520846D01*
X2307996Y3526586D01*
X2293823Y3530600D01*
X2279243Y3532886D01*
X2264511Y3533343D01*
X2249881Y3531971D01*
X2235504Y3528822D01*
X2221585Y3523894D01*
X2208428Y3517341D01*
X2196134Y3509213D01*
X2184857Y3499510D01*
X2181555Y3497122D01*
X2177643Y3496208D01*
X2173681Y3496868D01*
X2170277Y3499053D01*
X2167991Y3502406D01*
X2167178Y3506368D01*
X2167178Y3578250D01*
X2167940Y3582111D01*
X2170125Y3585362D01*
X2173376Y3587597D01*
X2181860Y3591153D01*
X2194610Y3598519D01*
X2206345Y3607409D01*
X2216912Y3617671D01*
X2226157Y3629151D01*
X2233879Y3641648D01*
X2240076Y3655009D01*
X2244547Y3669080D01*
X2247239Y3683558D01*
X2248154Y3698240D01*
X2247239Y3712921D01*
X2244547Y3727399D01*
X2240076Y3741470D01*
X2233879Y3754831D01*
X2226157Y3767328D01*
X2216912Y3778808D01*
X2206345Y3789070D01*
X2194610Y3797960D01*
X2181860Y3805326D01*
X2168296Y3811066D01*
X2154123Y3815079D01*
X2139543Y3817365D01*
X2124811Y3817823D01*
X2110181Y3816451D01*
X2095804Y3813301D01*
X2081885Y3808374D01*
X2068728Y3801821D01*
X2056434Y3793693D01*
X2045258Y3784092D01*
X2035352Y3773220D01*
X2026818Y3761232D01*
X2019858Y3748227D01*
X2014524Y3734511D01*
X2010918Y3720236D01*
X2009139Y3705606D01*
X2009139Y3690874D01*
X2010918Y3676243D01*
X2014524Y3661968D01*
X2019858Y3648252D01*
X2026818Y3635248D01*
X2035352Y3623259D01*
X2045258Y3612387D01*
X2056434Y3602786D01*
X2068728Y3594658D01*
X2081885Y3588105D01*
X2086610Y3585514D01*
X2088997Y3582162D01*
X2089861Y3578098D01*
X2089861Y3508552D01*
X2089099Y3504692D01*
X2086914Y3501390D01*
X2083663Y3499205D01*
X2079802Y3498392D01*
X2075942Y3499104D01*
X2072639Y3501237D01*
X2069185Y3504590D01*
X2057450Y3513480D01*
X2044700Y3520846D01*
X2031136Y3526586D01*
X2016963Y3530600D01*
X2002383Y3532886D01*
X1987651Y3533343D01*
X1973021Y3531971D01*
X1958644Y3528822D01*
X1944725Y3523894D01*
X1931568Y3517341D01*
X1919274Y3509213D01*
X1908098Y3499612D01*
X1898192Y3488740D01*
X1889658Y3476751D01*
X1882698Y3463747D01*
X1877364Y3450031D01*
X1873757Y3435756D01*
X1871980Y3421126D01*
X1871980Y3406394D01*
X1873757Y3391763D01*
X1877364Y3377488D01*
X1882698Y3363772D01*
X1889658Y3350768D01*
X1898192Y3338779D01*
X1908098Y3327908D01*
X1919274Y3318306D01*
X1931568Y3310178D01*
X1944725Y3303625D01*
X1958644Y3298698D01*
X1973021Y3295548D01*
X1987651Y3294176D01*
X2002383Y3294634D01*
X2016963Y3296920D01*
X2031136Y3300933D01*
X2044700Y3306673D01*
X2057450Y3314039D01*
X2069185Y3322929D01*
X2075129Y3328670D01*
X2078634Y3330905D01*
X2082698Y3331514D01*
X2086711Y3330498D01*
X2089962Y3327958D01*
X2091943Y3324351D01*
X2092858Y3321253D01*
X2096414Y3314598D01*
X2101545Y3308350D01*
X2561894Y2848000D01*
X2564079Y2844749D01*
X2564841Y2840837D01*
X2564841Y1588008D01*
X2565654Y1579981D01*
X2567838Y1572717D01*
X2571394Y1566062D01*
X2576525Y1559814D01*
X2637891Y1498447D01*
X2640076Y1495247D01*
X2640888Y1491538D01*
X2640228Y1487728D01*
X2637129Y1479296D01*
X2633980Y1465478D01*
X2632608Y1451356D01*
X2633065Y1437182D01*
X2635351Y1423162D01*
X2639364Y1409598D01*
X2645105Y1396644D01*
X2652471Y1384503D01*
X2661310Y1373428D01*
X2671470Y1363573D01*
X2682849Y1355090D01*
X2695194Y1348130D01*
X2708351Y1342796D01*
X2722067Y1339189D01*
X2736088Y1337411D01*
X2750312Y1337411D01*
X2764332Y1339189D01*
X2778048Y1342796D01*
X2791206Y1348130D01*
X2803550Y1355090D01*
X2814929Y1363573D01*
X2825089Y1373428D01*
X2833928Y1384503D01*
X2841548Y1397254D01*
X2843834Y1400454D01*
X2847136Y1402588D01*
X2850997Y1403299D01*
X2854858Y1402486D01*
X2858058Y1400251D01*
X2860243Y1397000D01*
X2861005Y1393139D01*
X2861005Y1306474D01*
X2860090Y1302258D01*
X2857500Y1298803D01*
X2853690Y1296720D01*
X2849372Y1296416D01*
X2845358Y1297940D01*
X2839262Y1301851D01*
X2833878Y1303731D01*
X2827629Y1304442D01*
X2658770Y1304442D01*
X2652522Y1303731D01*
X2647086Y1301851D01*
X2642260Y1298803D01*
X2638196Y1294739D01*
X2635148Y1289913D01*
X2633268Y1284478D01*
X2632557Y1278229D01*
X2632557Y1109370D01*
X2633268Y1103122D01*
X2635148Y1097686D01*
X2638196Y1092860D01*
X2642260Y1088796D01*
X2647086Y1085748D01*
X2652522Y1083868D01*
X2658770Y1083157D01*
X2827629Y1083157D01*
X2833878Y1083868D01*
X2839313Y1085748D01*
X2844139Y1088796D01*
X2848203Y1092860D01*
X2851251Y1097686D01*
X2853131Y1103122D01*
X2853842Y1109370D01*
X2853842Y1145641D01*
X2854553Y1149299D01*
X2856484Y1152448D01*
X2859430Y1154684D01*
X2863037Y1155750D01*
X2865018Y1155954D01*
X2872282Y1158138D01*
X2878937Y1161694D01*
X2885186Y1166825D01*
X2926638Y1208278D01*
X2931769Y1214526D01*
X2935325Y1221181D01*
X2937510Y1228445D01*
X2938322Y1236472D01*
X2938322Y2320544D01*
X2937510Y2328570D01*
X2935325Y2335834D01*
X2931769Y2342489D01*
X2926638Y2348738D01*
X2892247Y2383180D01*
X2890012Y2386533D01*
X2889250Y2390444D01*
X2890113Y2394407D01*
X2892399Y2397709D01*
X2895803Y2399842D01*
X2899765Y2400503D01*
X2903677Y2399538D01*
X2917139Y2393289D01*
X2941066Y2384298D01*
X2965653Y2377135D01*
X2990697Y2371852D01*
X3016046Y2368448D01*
X3041599Y2367026D01*
X3067202Y2367483D01*
X3092653Y2369921D01*
X3117900Y2374239D01*
X3142691Y2380488D01*
X3166973Y2388565D01*
X3190595Y2398471D01*
X3213354Y2410155D01*
X3235198Y2423515D01*
X3255975Y2438450D01*
X3275533Y2454960D01*
X3293821Y2472893D01*
X3310636Y2492146D01*
X3326028Y2512618D01*
X3339795Y2534158D01*
X3351885Y2556713D01*
X3358489Y2571750D01*
X3360724Y2574950D01*
X3364077Y2577084D01*
X3367938Y2577795D01*
X3371748Y2576982D01*
X3374999Y2574747D01*
X3377184Y2571496D01*
X3377946Y2567635D01*
X3377946Y493064D01*
X3377184Y489204D01*
X3374999Y485952D01*
X3371748Y483717D01*
X3367938Y482904D01*
X3364077Y483616D01*
X3360724Y485749D01*
X3358489Y488950D01*
X3351885Y503986D01*
X3339795Y526542D01*
X3326028Y548081D01*
X3310636Y568553D01*
X3293821Y587806D01*
X3275533Y605739D01*
X3255975Y622249D01*
X3235198Y637184D01*
X3213354Y650544D01*
X3190595Y662228D01*
X3166973Y672134D01*
X3142691Y680212D01*
X3117900Y686460D01*
X3092653Y690778D01*
X3067202Y693216D01*
X3041599Y693674D01*
X3016046Y692251D01*
X2990697Y688848D01*
X2965653Y683564D01*
X2941066Y676402D01*
X2917139Y667410D01*
X2893923Y656590D01*
X2871571Y644093D01*
X2850286Y629920D01*
X2830118Y614172D01*
X2811170Y596950D01*
X2793593Y578358D01*
X2777490Y558495D01*
X2762910Y537413D01*
X2749956Y515366D01*
X2738729Y492353D01*
X2729280Y468579D01*
X2721660Y444144D01*
X2715869Y419201D01*
X2712008Y393903D01*
X2710078Y368401D01*
X2710078Y342798D01*
X2712008Y317296D01*
X2715869Y291998D01*
X2721660Y267055D01*
X2729280Y242620D01*
X2738729Y218846D01*
X2749956Y195834D01*
X2762910Y173786D01*
X2777490Y152704D01*
X2793593Y132842D01*
X2811170Y114249D01*
X2830118Y97028D01*
X2850286Y81280D01*
X2871571Y67106D01*
X2893923Y54610D01*
X2914497Y45008D01*
X2917647Y42722D01*
X2919730Y39420D01*
X2920390Y35560D01*
X2919526Y31750D01*
X2917291Y28549D01*
X2914040Y26416D01*
X2910230Y25654D01*
X2398014Y25654D01*
X2394102Y26416D01*
X2390851Y28651D01*
X2388616Y31902D01*
X2387854Y35814D01*
X2387854Y243586D01*
X2388616Y247497D01*
X2390851Y250748D01*
X2394102Y252984D01*
X2398014Y253746D01*
X2539390Y253746D01*
X2545842Y254508D01*
X2551277Y256590D01*
X2556357Y260096D01*
X2559405Y263144D01*
X2561996Y266700D01*
X2564485Y272186D01*
X2565654Y279552D01*
X2565654Y481990D01*
X2564892Y488442D01*
X2562809Y493877D01*
X2559304Y498957D01*
X2556256Y502005D01*
X2552700Y504596D01*
X2547213Y507085D01*
X2539847Y508254D01*
X2398014Y508254D01*
X2394102Y509016D01*
X2390851Y511251D01*
X2388616Y514502D01*
X2387854Y518414D01*
X2387854Y862990D01*
X2387092Y869442D01*
X2385009Y874877D01*
X2381504Y879957D01*
X2378456Y883005D01*
X2374900Y885596D01*
X2369413Y888085D01*
X2362047Y889253D01*
X2032609Y889253D01*
X2026157Y888492D01*
X2020722Y886409D01*
X2015642Y882903D01*
X2012594Y879856D01*
X2010003Y876300D01*
X2007514Y870813D01*
X2006346Y863447D01*
X2006346Y810615D01*
X2005584Y806704D01*
X2003348Y803452D01*
X2000097Y801217D01*
X1996186Y800455D01*
X1972462Y800455D01*
X1968804Y801116D01*
X1965655Y803097D01*
X1963369Y806043D01*
X1962150Y811428D01*
X1959965Y818692D01*
X1956409Y825347D01*
X1951278Y831596D01*
X1832305Y950569D01*
X1830120Y953820D01*
X1829358Y957732D01*
X1829358Y1043787D01*
X1830120Y1047699D01*
X1832305Y1050950D01*
X1835607Y1053185D01*
X1839518Y1053947D01*
X1890115Y1053947D01*
X1896414Y1054658D01*
X1901799Y1056538D01*
X1906676Y1059586D01*
X1910537Y1063447D01*
X1913788Y1065631D01*
X1917700Y1066444D01*
X1921611Y1065631D01*
X1924862Y1063447D01*
X1928723Y1059586D01*
X1933600Y1056538D01*
X1938985Y1054658D01*
X1945284Y1053947D01*
X2144115Y1053947D01*
X2150414Y1054658D01*
X2155799Y1056538D01*
X2160676Y1059586D01*
X2164689Y1063650D01*
X2167737Y1068476D01*
X2169668Y1073912D01*
X2170379Y1080160D01*
X2170379Y1409039D01*
X2169668Y1415288D01*
X2167737Y1420723D01*
X2164689Y1425549D01*
X2160676Y1429613D01*
X2155799Y1432661D01*
X2150414Y1434541D01*
X2144115Y1435252D01*
X1945284Y1435252D01*
X1938985Y1434541D01*
X1933600Y1432661D01*
X1928723Y1429613D01*
X1924862Y1425752D01*
X1921611Y1423517D01*
X1917700Y1422755D01*
X1913788Y1423517D01*
X1910537Y1425752D01*
X1906676Y1429613D01*
X1901799Y1432661D01*
X1896414Y1434541D01*
X1890115Y1435252D01*
X1691284Y1435252D01*
X1684985Y1434541D01*
X1679600Y1432661D01*
X1674723Y1429613D01*
X1670862Y1425752D01*
X1667611Y1423517D01*
X1663700Y1422755D01*
X1659788Y1423517D01*
X1656537Y1425752D01*
X1652676Y1429613D01*
X1647799Y1432661D01*
X1642414Y1434541D01*
X1636115Y1435252D01*
X1574393Y1435252D01*
X1570482Y1436014D01*
X1567230Y1438249D01*
X1564995Y1441500D01*
X1564233Y1445412D01*
X1564995Y1449324D01*
X1567230Y1452575D01*
X1633524Y1518920D01*
X1638655Y1525168D01*
X1642211Y1531823D01*
X1644396Y1539087D01*
X1645208Y1547114D01*
X1645208Y1557121D01*
X1645970Y1560982D01*
X1648155Y1564284D01*
X1649526Y1565656D01*
X1655165Y1573682D01*
X1659280Y1582521D01*
X1661820Y1591970D01*
X1662684Y1601724D01*
X1661820Y1611477D01*
X1659280Y1620926D01*
X1655165Y1629765D01*
X1649526Y1637792D01*
X1642618Y1644700D01*
X1634591Y1650339D01*
X1625752Y1654454D01*
X1616303Y1656994D01*
X1606550Y1657857D01*
X1596796Y1656994D01*
X1587347Y1654454D01*
X1578508Y1650339D01*
X1570482Y1644700D01*
X1563573Y1637792D01*
X1557934Y1629765D01*
X1553819Y1620926D01*
X1551279Y1611477D01*
X1550416Y1601724D01*
X1551279Y1591970D01*
X1553819Y1582521D01*
X1557934Y1573682D01*
X1561693Y1568297D01*
X1563217Y1565097D01*
X1563522Y1561592D01*
X1562608Y1558188D01*
X1560576Y1555292D01*
X1556613Y1551330D01*
X1552905Y1548993D01*
X1548536Y1548384D01*
X1544370Y1549704D01*
X1541119Y1552702D01*
X1537004Y1558544D01*
X1530096Y1565452D01*
X1522069Y1571091D01*
X1513230Y1575206D01*
X1503781Y1577746D01*
X1496110Y1578406D01*
X1492707Y1579321D01*
X1489811Y1581353D01*
X1324305Y1746859D01*
X1322120Y1750110D01*
X1321358Y1754022D01*
X1321358Y2567787D01*
X1322120Y2571699D01*
X1324305Y2574950D01*
X1327607Y2577185D01*
X1331518Y2577947D01*
X1382115Y2577947D01*
X1388414Y2578658D01*
X1393799Y2580538D01*
X1398676Y2583586D01*
X1402537Y2587447D01*
X1405788Y2589631D01*
X1409700Y2590444D01*
X1413611Y2589631D01*
X1416862Y2587447D01*
X1420723Y2583586D01*
X1425600Y2580538D01*
X1430985Y2578658D01*
X1437284Y2577947D01*
X1636115Y2577947D01*
X1642414Y2578658D01*
X1647799Y2580538D01*
X1652676Y2583586D01*
X1656537Y2587447D01*
X1659788Y2589631D01*
X1663700Y2590444D01*
X1667611Y2589631D01*
X1670862Y2587447D01*
X1674723Y2583586D01*
X1679600Y2580538D01*
X1684985Y2578658D01*
X1691284Y2577947D01*
X1890115Y2577947D01*
X1896414Y2578658D01*
X1901799Y2580538D01*
X1906676Y2583586D01*
X1910537Y2587447D01*
X1913788Y2589631D01*
X1917700Y2590444D01*
X1921611Y2589631D01*
X1924862Y2587447D01*
X1928723Y2583586D01*
X1933600Y2580538D01*
X1938985Y2578658D01*
X1945284Y2577947D01*
X2144115Y2577947D01*
X2150414Y2578658D01*
X2155799Y2580538D01*
X2160676Y2583586D01*
X2164689Y2587650D01*
X2167737Y2592476D01*
X2169668Y2597912D01*
X2170379Y2604160D01*
X2170379Y2933039D01*
X2169668Y2939288D01*
X2167737Y2944723D01*
X2164689Y2949549D01*
X2160676Y2953613D01*
X2155799Y2956661D01*
X2150414Y2958541D01*
X2144115Y2959252D01*
X1945284Y2959252D01*
X1938985Y2958541D01*
X1933600Y2956661D01*
X1928723Y2953613D01*
X1924862Y2949752D01*
X1921611Y2947517D01*
X1917700Y2946755D01*
X1913788Y2947517D01*
X1910537Y2949752D01*
X1906676Y2953613D01*
X1901799Y2956661D01*
X1896414Y2958541D01*
X1890115Y2959252D01*
X1691284Y2959252D01*
X1684985Y2958541D01*
X1679600Y2956661D01*
X1674723Y2953613D01*
X1670862Y2949752D01*
X1667611Y2947517D01*
X1663700Y2946755D01*
X1659788Y2947517D01*
X1656537Y2949752D01*
X1652676Y2953613D01*
X1647799Y2956661D01*
X1642414Y2958541D01*
X1636115Y2959252D01*
X1437284Y2959252D01*
X1430985Y2958541D01*
X1425600Y2956661D01*
X1420723Y2953613D01*
X1416862Y2949752D01*
X1413611Y2947517D01*
X1409700Y2946755D01*
X1405788Y2947517D01*
X1402537Y2949752D01*
X1398676Y2953613D01*
X1393799Y2956661D01*
X1388414Y2958541D01*
X1382115Y2959252D01*
X1183284Y2959252D01*
X1176985Y2958541D01*
X1171600Y2956661D01*
X1166723Y2953613D01*
X1162862Y2949752D01*
X1159611Y2947517D01*
X1155700Y2946755D01*
X1151788Y2947517D01*
X1148537Y2949752D01*
X1144676Y2953613D01*
X1139799Y2956661D01*
X1134414Y2958541D01*
X1128115Y2959252D01*
X929284Y2959252D01*
X922985Y2958541D01*
X917600Y2956661D01*
X912723Y2953613D01*
X908862Y2949752D01*
X905611Y2947517D01*
X901700Y2946755D01*
X897788Y2947517D01*
X894537Y2949752D01*
X890676Y2953613D01*
X885799Y2956661D01*
X880414Y2958541D01*
X874115Y2959252D01*
X831037Y2959252D01*
X831037Y2857449D01*
X892911Y2857449D01*
X896772Y2856687D01*
X900074Y2854452D01*
X902258Y2851200D01*
X903071Y2847289D01*
X903071Y2689910D01*
X902258Y2685999D01*
X900074Y2682748D01*
X896772Y2680512D01*
X892911Y2679750D01*
X831037Y2679750D01*
X831037Y2577947D01*
X874115Y2577947D01*
X880414Y2578658D01*
X885799Y2580538D01*
X890676Y2583586D01*
X894537Y2587447D01*
X897788Y2589631D01*
X901700Y2590444D01*
X905611Y2589631D01*
X908862Y2587447D01*
X912723Y2583586D01*
X917600Y2580538D01*
X922985Y2578658D01*
X929284Y2577947D01*
X979881Y2577947D01*
X983792Y2577185D01*
X987094Y2574950D01*
X989279Y2571699D01*
X990041Y2567787D01*
X990041Y1624584D01*
X990853Y1616557D01*
X993038Y1609293D01*
X996594Y1602638D01*
X1001725Y1596390D01*
X1098092Y1500022D01*
X1100124Y1497126D01*
X1101039Y1493723D01*
X1101699Y1486052D01*
X1104239Y1476603D01*
X1108354Y1467764D01*
X1113993Y1459738D01*
X1121105Y1452575D01*
X1123340Y1449324D01*
X1124102Y1445412D01*
X1123340Y1441500D01*
X1121105Y1438249D01*
X1117803Y1436014D01*
X1113942Y1435252D01*
X1094028Y1435252D01*
X1089914Y1436116D01*
X1086561Y1438554D01*
X1084427Y1442161D01*
X1083919Y1446276D01*
X1084834Y1456690D01*
X1083970Y1466443D01*
X1081430Y1475892D01*
X1077315Y1484731D01*
X1071676Y1492758D01*
X1064768Y1499666D01*
X1056741Y1505305D01*
X1047902Y1509420D01*
X1038453Y1511960D01*
X1028700Y1512824D01*
X1018946Y1511960D01*
X1009497Y1509420D01*
X1000658Y1505305D01*
X992632Y1499666D01*
X985723Y1492758D01*
X980084Y1484731D01*
X975969Y1475892D01*
X973429Y1466443D01*
X972566Y1456690D01*
X973480Y1446276D01*
X972972Y1442161D01*
X970838Y1438554D01*
X967486Y1436116D01*
X963371Y1435252D01*
X929284Y1435252D01*
X922985Y1434541D01*
X917600Y1432661D01*
X912723Y1429613D01*
X908862Y1425752D01*
X905611Y1423517D01*
X901700Y1422755D01*
X897788Y1423517D01*
X894537Y1425752D01*
X890676Y1429613D01*
X885799Y1432661D01*
X880414Y1434541D01*
X874115Y1435252D01*
X823518Y1435252D01*
X819607Y1436014D01*
X816305Y1438249D01*
X814120Y1441500D01*
X813358Y1445412D01*
X813358Y1557121D01*
X814120Y1560982D01*
X816305Y1564284D01*
X817676Y1565656D01*
X823315Y1573682D01*
X827430Y1582521D01*
X829970Y1591970D01*
X830834Y1601724D01*
X829970Y1611477D01*
X827430Y1620926D01*
X823315Y1629765D01*
X817676Y1637792D01*
X810768Y1644700D01*
X802741Y1650339D01*
X793902Y1654454D01*
X784453Y1656994D01*
X774700Y1657857D01*
X764946Y1656994D01*
X755497Y1654454D01*
X746658Y1650339D01*
X738632Y1644700D01*
X731723Y1637792D01*
X726084Y1629765D01*
X721969Y1620926D01*
X719429Y1611477D01*
X718566Y1601724D01*
X719429Y1591970D01*
X721969Y1582521D01*
X726084Y1573682D01*
X731723Y1565656D01*
X733094Y1564284D01*
X735279Y1560982D01*
X736041Y1557121D01*
X736041Y1445412D01*
X735279Y1441500D01*
X733094Y1438249D01*
X729792Y1436014D01*
X725881Y1435252D01*
X675284Y1435252D01*
X668985Y1434541D01*
X663600Y1432661D01*
X658723Y1429613D01*
X654862Y1425752D01*
X651611Y1423517D01*
X647700Y1422755D01*
X643788Y1423517D01*
X640537Y1425752D01*
X636676Y1429613D01*
X631799Y1432661D01*
X626414Y1434541D01*
X620115Y1435252D01*
X569518Y1435252D01*
X565607Y1436014D01*
X562305Y1438249D01*
X560120Y1441500D01*
X559358Y1445412D01*
X559358Y1654149D01*
X560120Y1658010D01*
X562305Y1661312D01*
X563676Y1662684D01*
X569315Y1670710D01*
X573430Y1679549D01*
X575970Y1688998D01*
X576834Y1698752D01*
X575970Y1708505D01*
X573430Y1717954D01*
X569315Y1726793D01*
X563676Y1734820D01*
X556768Y1741728D01*
X548741Y1747367D01*
X539902Y1751482D01*
X530453Y1754022D01*
X520700Y1754886D01*
X510946Y1754022D01*
X501497Y1751482D01*
X492658Y1747367D01*
X484632Y1741728D01*
X477723Y1734820D01*
X472084Y1726793D01*
X467969Y1717954D01*
X465429Y1708505D01*
X464566Y1698752D01*
X465429Y1688998D01*
X467969Y1679549D01*
X472084Y1670710D01*
X477723Y1662684D01*
X479094Y1661312D01*
X481279Y1658010D01*
X482041Y1654149D01*
X482041Y1445412D01*
X481279Y1441500D01*
X479094Y1438249D01*
X475792Y1436014D01*
X471881Y1435252D01*
X421284Y1435252D01*
X414985Y1434541D01*
X409600Y1432661D01*
X404723Y1429613D01*
X400710Y1425549D01*
X397662Y1420723D01*
X395732Y1415288D01*
X395071Y1409039D01*
X395071Y1080160D01*
X395732Y1073912D01*
X397662Y1068476D01*
X400710Y1063650D01*
X404723Y1059586D01*
X409600Y1056538D01*
X414985Y1054658D01*
X421284Y1053947D01*
X620115Y1053947D01*
X626414Y1054658D01*
X631799Y1056538D01*
X636676Y1059586D01*
X640537Y1063447D01*
X643788Y1065631D01*
X647700Y1066444D01*
X651611Y1065631D01*
X654862Y1063447D01*
X658723Y1059586D01*
X663600Y1056538D01*
X668985Y1054658D01*
X675284Y1053947D01*
X874115Y1053947D01*
X880414Y1054658D01*
X885799Y1056538D01*
X890676Y1059586D01*
X894537Y1063447D01*
X897788Y1065631D01*
X901700Y1066444D01*
X905611Y1065631D01*
X908862Y1063447D01*
X912723Y1059586D01*
X917600Y1056538D01*
X922985Y1054658D01*
X929284Y1053947D01*
X1128115Y1053947D01*
X1134414Y1054658D01*
X1139799Y1056538D01*
X1144676Y1059586D01*
X1148537Y1063447D01*
X1151788Y1065631D01*
X1155700Y1066444D01*
X1159611Y1065631D01*
X1162862Y1063447D01*
X1166723Y1059586D01*
X1171600Y1056538D01*
X1176985Y1054658D01*
X1183284Y1053947D01*
X1382115Y1053947D01*
X1388414Y1054658D01*
X1393799Y1056538D01*
X1398676Y1059586D01*
X1402537Y1063447D01*
X1405788Y1065631D01*
X1409700Y1066444D01*
X1413611Y1065631D01*
X1416862Y1063447D01*
X1420723Y1059586D01*
X1425600Y1056538D01*
X1430985Y1054658D01*
X1437284Y1053947D01*
X1487881Y1053947D01*
X1491792Y1053185D01*
X1495094Y1050950D01*
X1497279Y1047699D01*
X1498041Y1043787D01*
X1498041Y902106D01*
X1497279Y898245D01*
X1495094Y894943D01*
X1493723Y893571D01*
X1488084Y885545D01*
X1483969Y876706D01*
X1481429Y867257D01*
X1480566Y857503D01*
X1481429Y847750D01*
X1483969Y838301D01*
X1488084Y829462D01*
X1493723Y821436D01*
X1500632Y814527D01*
X1508658Y808888D01*
X1517497Y804773D01*
X1526946Y802233D01*
X1534261Y801624D01*
X1537868Y800608D01*
X1540865Y798322D01*
X1542846Y795172D01*
X1543558Y791464D01*
X1543558Y593648D01*
X1610360Y593648D01*
X1610360Y774242D01*
X1609648Y780491D01*
X1607769Y785926D01*
X1604721Y790752D01*
X1600657Y794816D01*
X1595780Y797864D01*
X1590395Y799744D01*
X1583232Y800455D01*
X1579372Y801217D01*
X1576070Y803452D01*
X1573834Y806704D01*
X1573072Y810615D01*
X1573834Y814527D01*
X1576070Y817778D01*
X1579676Y821436D01*
X1585315Y829462D01*
X1589430Y838301D01*
X1591970Y847750D01*
X1592834Y857503D01*
X1591970Y867257D01*
X1589430Y876706D01*
X1585315Y885545D01*
X1579676Y893571D01*
X1578305Y894943D01*
X1576120Y898245D01*
X1575358Y902106D01*
X1575358Y1043787D01*
X1576120Y1047699D01*
X1578305Y1050950D01*
X1581607Y1053185D01*
X1585518Y1053947D01*
X1636115Y1053947D01*
X1642414Y1054658D01*
X1647799Y1056538D01*
X1652676Y1059586D01*
X1656537Y1063447D01*
X1659788Y1065631D01*
X1663700Y1066444D01*
X1667611Y1065631D01*
X1670862Y1063447D01*
X1674723Y1059586D01*
X1679600Y1056538D01*
X1684985Y1054658D01*
X1691284Y1053947D01*
X1741881Y1053947D01*
X1745792Y1053185D01*
X1749094Y1050950D01*
X1751279Y1047699D01*
X1752041Y1043787D01*
X1752041Y938021D01*
X1752854Y929995D01*
X1755038Y922731D01*
X1758594Y916076D01*
X1763725Y909828D01*
X1855774Y817778D01*
X1857959Y814527D01*
X1858721Y810615D01*
X1857959Y806704D01*
X1855774Y803452D01*
X1852472Y801217D01*
X1848561Y800455D01*
X1829866Y800455D01*
X1823618Y799744D01*
X1818182Y797864D01*
X1813356Y794816D01*
X1809292Y790752D01*
X1806244Y785926D01*
X1804365Y780491D01*
X1803654Y774242D01*
X1803654Y48514D01*
X1802892Y44602D01*
X1800656Y41351D01*
X1797354Y39116D01*
X1793493Y38354D01*
X1620520Y38354D01*
X1616608Y39116D01*
X1613306Y41351D01*
X1611122Y44602D01*
X1610360Y48514D01*
X1610360Y205943D01*
X1543558Y205943D01*
X1543558Y48514D01*
X1542796Y44602D01*
X1540560Y41351D01*
X1537258Y39116D01*
X1533398Y38354D01*
X1446022Y38354D01*
X1442110Y39116D01*
X1438808Y41351D01*
X1436624Y44602D01*
X1435862Y48514D01*
X1435862Y205943D01*
X1420114Y205943D01*
X1416202Y206705D01*
X1412951Y208940D01*
X1410716Y212242D01*
X1409954Y216103D01*
X1409954Y583488D01*
X1410716Y587400D01*
X1412951Y590651D01*
X1416202Y592886D01*
X1420114Y593648D01*
X1435862Y593648D01*
X1435862Y800455D01*
X1420114Y800455D01*
X1416202Y801217D01*
X1412951Y803452D01*
X1410716Y806704D01*
X1409954Y810615D01*
X1409954Y862990D01*
X1409192Y869442D01*
X1407109Y874877D01*
X1403604Y879957D01*
X1400556Y883005D01*
X1397000Y885596D01*
X1391513Y888085D01*
X1384147Y889253D01*
X1054709Y889253D01*
X1048258Y888492D01*
X1042822Y886409D01*
X1037742Y882903D01*
X1034694Y879856D01*
X1032103Y876300D01*
X1029614Y870813D01*
X1028446Y863447D01*
X1028446Y518414D01*
X1027684Y514502D01*
X1025448Y511251D01*
X1022197Y509016D01*
X1018286Y508254D01*
X864209Y508254D01*
X857758Y507492D01*
X852322Y505409D01*
X847242Y501904D01*
X844194Y498856D01*
X841603Y495300D01*
X839114Y489813D01*
X837946Y482447D01*
X837946Y280009D01*
X838708Y273558D01*
X840790Y268122D01*
X844296Y263042D01*
X847344Y259994D01*
X850900Y257403D01*
X856386Y254914D01*
X863752Y253746D01*
X1018286Y253746D01*
X1022197Y252984D01*
X1025448Y250748D01*
X1027684Y247497D01*
X1028446Y243586D01*
X1028446Y35814D01*
X1027684Y31902D01*
X1025448Y28651D01*
X1022197Y26416D01*
X1018286Y25654D01*
G37*

%LPC*%
G36*
X2048256Y1795932D02*
G01*
X2277110Y1795932D01*
X2283409Y1796643D01*
X2288794Y1798523D01*
X2293670Y1801571D01*
X2297684Y1805635D01*
X2300732Y1810512D01*
X2302662Y1815896D01*
X2303373Y1822196D01*
X2303373Y1931009D01*
X2302662Y1937308D01*
X2300732Y1942693D01*
X2297684Y1947570D01*
X2293670Y1951583D01*
X2288794Y1954631D01*
X2283409Y1956562D01*
X2277110Y1957273D01*
X2048256Y1957273D01*
X2042007Y1956562D01*
X2036622Y1954631D01*
X2031746Y1951583D01*
X2027682Y1947570D01*
X2024634Y1942693D01*
X2022754Y1937308D01*
X2022043Y1931009D01*
X2022043Y1822196D01*
X2022754Y1815896D01*
X2024634Y1810512D01*
X2027682Y1805635D01*
X2031746Y1801571D01*
X2036622Y1798523D01*
X2042007Y1796643D01*
G37*
G36*
X2226564Y2055926D02*
G01*
X2277110Y2055926D01*
X2283409Y2056638D01*
X2288794Y2058568D01*
X2293670Y2061616D01*
X2297684Y2065629D01*
X2300732Y2070506D01*
X2302662Y2075891D01*
X2303373Y2082190D01*
X2303373Y2102764D01*
X2226564Y2102764D01*
G37*
G36*
X2048256Y2055926D02*
G01*
X2098852Y2055926D01*
X2098852Y2102764D01*
X2022043Y2102764D01*
X2022043Y2082190D01*
X2022754Y2075891D01*
X2024634Y2070506D01*
X2027682Y2065629D01*
X2031746Y2061616D01*
X2036622Y2058568D01*
X2042007Y2056638D01*
G37*
G36*
X2022043Y2170430D02*
G01*
X2098852Y2170430D01*
X2098852Y2217267D01*
X2048256Y2217267D01*
X2042007Y2216556D01*
X2036622Y2214676D01*
X2031746Y2211628D01*
X2027682Y2207564D01*
X2024634Y2202688D01*
X2022754Y2197303D01*
X2022043Y2191004D01*
G37*
G36*
X2226564Y2170430D02*
G01*
X2303373Y2170430D01*
X2303373Y2191004D01*
X2302662Y2197303D01*
X2300732Y2202688D01*
X2297684Y2207564D01*
X2293670Y2211628D01*
X2288794Y2214676D01*
X2283409Y2216556D01*
X2277110Y2217267D01*
X2226564Y2217267D01*
G37*
G36*
X421284Y2577947D02*
G01*
X620115Y2577947D01*
X626414Y2578658D01*
X631799Y2580538D01*
X636676Y2583586D01*
X640537Y2587447D01*
X643788Y2589631D01*
X647700Y2590444D01*
X651611Y2589631D01*
X654862Y2587447D01*
X658723Y2583586D01*
X663600Y2580538D01*
X668985Y2578658D01*
X675284Y2577947D01*
X718362Y2577947D01*
X718362Y2679750D01*
X656539Y2679750D01*
X652627Y2680512D01*
X649325Y2682748D01*
X647141Y2685999D01*
X646379Y2689910D01*
X646379Y2847289D01*
X647141Y2851200D01*
X649325Y2854452D01*
X652627Y2856687D01*
X656539Y2857449D01*
X718362Y2857449D01*
X718362Y2959252D01*
X675284Y2959252D01*
X668985Y2958541D01*
X663600Y2956661D01*
X658723Y2953613D01*
X654862Y2949752D01*
X651611Y2947517D01*
X647700Y2946755D01*
X643788Y2947517D01*
X640537Y2949752D01*
X636676Y2953613D01*
X631799Y2956661D01*
X626414Y2958541D01*
X620115Y2959252D01*
X569518Y2959252D01*
X565607Y2960014D01*
X562305Y2962249D01*
X560120Y2965500D01*
X559358Y2969412D01*
X559358Y2985617D01*
X560120Y2989529D01*
X562305Y2992780D01*
X1023823Y3454298D01*
X1027074Y3456482D01*
X1030986Y3457244D01*
X1034897Y3456482D01*
X1038148Y3454298D01*
X1040384Y3450996D01*
X1041146Y3447084D01*
X1041146Y3320338D01*
X1041857Y3314090D01*
X1043736Y3308654D01*
X1046784Y3303828D01*
X1050848Y3299764D01*
X1055674Y3296716D01*
X1061110Y3294837D01*
X1067358Y3294126D01*
X1254201Y3294126D01*
X1260449Y3294837D01*
X1265885Y3296716D01*
X1270711Y3299764D01*
X1274775Y3303828D01*
X1277823Y3308654D01*
X1279702Y3314090D01*
X1280414Y3320338D01*
X1280414Y3507181D01*
X1279702Y3513429D01*
X1278026Y3518306D01*
X1277467Y3522116D01*
X1278331Y3525875D01*
X1280566Y3529025D01*
X1283817Y3531108D01*
X1287576Y3531819D01*
X1365961Y3531819D01*
X1370126Y3530904D01*
X1373581Y3528364D01*
X1375664Y3524605D01*
X1376019Y3520287D01*
X1374546Y3516274D01*
X1371549Y3513175D01*
X1365554Y3509213D01*
X1354378Y3499612D01*
X1344472Y3488740D01*
X1335938Y3476751D01*
X1328978Y3463747D01*
X1323644Y3450031D01*
X1320038Y3435756D01*
X1318260Y3421126D01*
X1318260Y3406394D01*
X1320038Y3391763D01*
X1323644Y3377488D01*
X1328978Y3363772D01*
X1335938Y3350768D01*
X1344472Y3338779D01*
X1354378Y3327908D01*
X1365554Y3318306D01*
X1377848Y3310178D01*
X1391005Y3303625D01*
X1404924Y3298698D01*
X1419301Y3295548D01*
X1433931Y3294176D01*
X1448663Y3294634D01*
X1463243Y3296920D01*
X1477416Y3300933D01*
X1490980Y3306673D01*
X1503730Y3314039D01*
X1515465Y3322929D01*
X1526032Y3333191D01*
X1535277Y3344672D01*
X1542999Y3357168D01*
X1549196Y3370529D01*
X1553667Y3384600D01*
X1556359Y3399078D01*
X1557274Y3413760D01*
X1556359Y3428441D01*
X1553667Y3442919D01*
X1549196Y3456990D01*
X1542999Y3470351D01*
X1535277Y3482848D01*
X1526032Y3494328D01*
X1515465Y3504590D01*
X1503730Y3513480D01*
X1490980Y3520846D01*
X1479194Y3525824D01*
X1475790Y3528161D01*
X1473606Y3531717D01*
X1472996Y3535781D01*
X1474114Y3539794D01*
X1477264Y3543503D01*
X1519631Y3585870D01*
X1522780Y3588004D01*
X1526438Y3588816D01*
X1530197Y3588258D01*
X1544624Y3583178D01*
X1559001Y3580028D01*
X1573631Y3578656D01*
X1588363Y3579114D01*
X1602943Y3581400D01*
X1617116Y3585413D01*
X1630680Y3591153D01*
X1643430Y3598519D01*
X1655165Y3607409D01*
X1665732Y3617671D01*
X1674977Y3629151D01*
X1682699Y3641648D01*
X1688896Y3655009D01*
X1693367Y3669080D01*
X1696059Y3683558D01*
X1696974Y3698240D01*
X1696059Y3712921D01*
X1693367Y3727399D01*
X1688896Y3741470D01*
X1682699Y3754831D01*
X1674977Y3767328D01*
X1665732Y3778808D01*
X1655165Y3789070D01*
X1643430Y3797960D01*
X1630680Y3805326D01*
X1617116Y3811066D01*
X1602943Y3815079D01*
X1588363Y3817365D01*
X1573631Y3817823D01*
X1559001Y3816451D01*
X1544624Y3813301D01*
X1530705Y3808374D01*
X1517548Y3801821D01*
X1505254Y3793693D01*
X1494078Y3784092D01*
X1484172Y3773220D01*
X1475638Y3761232D01*
X1468678Y3748227D01*
X1463344Y3734511D01*
X1459738Y3720236D01*
X1457960Y3705606D01*
X1457960Y3690874D01*
X1459738Y3676243D01*
X1463344Y3661968D01*
X1467408Y3651554D01*
X1468069Y3647694D01*
X1467307Y3643884D01*
X1465122Y3640683D01*
X1436522Y3612083D01*
X1433271Y3609898D01*
X1429359Y3609136D01*
X1403248Y3609136D01*
X1399540Y3609848D01*
X1396288Y3611829D01*
X1394053Y3614928D01*
X1393088Y3618585D01*
X1393545Y3622344D01*
X1395323Y3625646D01*
X1398117Y3629151D01*
X1405839Y3641648D01*
X1412036Y3655009D01*
X1416507Y3669080D01*
X1419199Y3683558D01*
X1420114Y3698240D01*
X1419199Y3712921D01*
X1416507Y3727399D01*
X1412036Y3741470D01*
X1405839Y3754831D01*
X1398117Y3767328D01*
X1388872Y3778808D01*
X1378305Y3789070D01*
X1366570Y3797960D01*
X1353820Y3805326D01*
X1340256Y3811066D01*
X1326083Y3815079D01*
X1311503Y3817365D01*
X1296771Y3817823D01*
X1282141Y3816451D01*
X1267764Y3813301D01*
X1253845Y3808374D01*
X1240688Y3801821D01*
X1228394Y3793693D01*
X1217218Y3784092D01*
X1207312Y3773220D01*
X1198778Y3761232D01*
X1191818Y3748227D01*
X1186484Y3734511D01*
X1182878Y3720236D01*
X1181100Y3705606D01*
X1181100Y3690874D01*
X1182878Y3676243D01*
X1186484Y3661968D01*
X1191818Y3648252D01*
X1198778Y3635248D01*
X1205941Y3625138D01*
X1207668Y3621074D01*
X1207465Y3616706D01*
X1205433Y3612794D01*
X1201928Y3610101D01*
X1197660Y3609136D01*
X1085850Y3609136D01*
X1077823Y3608324D01*
X1070559Y3606139D01*
X1063904Y3602583D01*
X1057656Y3597452D01*
X493725Y3033522D01*
X488594Y3027273D01*
X485038Y3020618D01*
X482854Y3013354D01*
X482041Y3005328D01*
X482041Y2969412D01*
X481279Y2965500D01*
X479094Y2962249D01*
X475792Y2960014D01*
X471881Y2959252D01*
X421284Y2959252D01*
X414985Y2958541D01*
X409600Y2956661D01*
X404723Y2953613D01*
X400710Y2949549D01*
X397662Y2944723D01*
X395732Y2939288D01*
X395071Y2933039D01*
X395071Y2604160D01*
X395732Y2597912D01*
X397662Y2592476D01*
X400710Y2587650D01*
X404723Y2583586D01*
X409600Y2580538D01*
X414985Y2578658D01*
G37*
G36*
X464820Y3276346D02*
G01*
X487934Y3277311D01*
X510844Y3280156D01*
X533450Y3284931D01*
X555599Y3291484D01*
X577138Y3299917D01*
X597916Y3310077D01*
X617778Y3321913D01*
X636574Y3335324D01*
X654202Y3350260D01*
X670560Y3366617D01*
X685495Y3384245D01*
X698906Y3403041D01*
X710742Y3422904D01*
X720902Y3443681D01*
X729335Y3465220D01*
X735888Y3487369D01*
X740664Y3509975D01*
X743508Y3532886D01*
X744474Y3556000D01*
X743508Y3579114D01*
X740664Y3602024D01*
X735888Y3624630D01*
X729335Y3646779D01*
X720902Y3668318D01*
X710742Y3689096D01*
X698906Y3708958D01*
X685495Y3727754D01*
X670560Y3745382D01*
X654202Y3761740D01*
X636574Y3776675D01*
X617778Y3790086D01*
X597916Y3801922D01*
X577138Y3812082D01*
X555599Y3820515D01*
X533450Y3827068D01*
X510844Y3831844D01*
X487934Y3834688D01*
X464820Y3835654D01*
X441706Y3834688D01*
X418795Y3831844D01*
X396189Y3827068D01*
X374040Y3820515D01*
X352501Y3812082D01*
X331724Y3801922D01*
X311861Y3790086D01*
X293065Y3776675D01*
X275437Y3761740D01*
X259079Y3745382D01*
X244144Y3727754D01*
X230733Y3708958D01*
X218897Y3689096D01*
X208737Y3668318D01*
X200304Y3646779D01*
X193751Y3624630D01*
X188976Y3602024D01*
X186131Y3579114D01*
X185166Y3556000D01*
X186131Y3532886D01*
X188976Y3509975D01*
X193751Y3487369D01*
X200304Y3465220D01*
X208737Y3443681D01*
X218897Y3422904D01*
X230733Y3403041D01*
X244144Y3384245D01*
X259079Y3366617D01*
X275437Y3350260D01*
X293065Y3335324D01*
X311861Y3321913D01*
X331724Y3310077D01*
X352501Y3299917D01*
X374040Y3291484D01*
X396189Y3284931D01*
X418795Y3280156D01*
X441706Y3277311D01*
G37*
G36*
X2964180Y3276346D02*
G01*
X2987294Y3277311D01*
X3010204Y3280156D01*
X3032810Y3284931D01*
X3054959Y3291484D01*
X3076498Y3299917D01*
X3097276Y3310077D01*
X3117138Y3321913D01*
X3135934Y3335324D01*
X3153562Y3350260D01*
X3169920Y3366617D01*
X3184855Y3384245D01*
X3198266Y3403041D01*
X3210102Y3422904D01*
X3220262Y3443681D01*
X3228695Y3465220D01*
X3235248Y3487369D01*
X3240024Y3509975D01*
X3242868Y3532886D01*
X3243834Y3556000D01*
X3242868Y3579114D01*
X3240024Y3602024D01*
X3235248Y3624630D01*
X3228695Y3646779D01*
X3220262Y3668318D01*
X3210102Y3689096D01*
X3198266Y3708958D01*
X3184855Y3727754D01*
X3169920Y3745382D01*
X3153562Y3761740D01*
X3135934Y3776675D01*
X3117138Y3790086D01*
X3097276Y3801922D01*
X3076498Y3812082D01*
X3054959Y3820515D01*
X3032810Y3827068D01*
X3010204Y3831844D01*
X2987294Y3834688D01*
X2964180Y3835654D01*
X2941066Y3834688D01*
X2918155Y3831844D01*
X2895549Y3827068D01*
X2873400Y3820515D01*
X2851861Y3812082D01*
X2831084Y3801922D01*
X2811221Y3790086D01*
X2792425Y3776675D01*
X2774797Y3761740D01*
X2758440Y3745382D01*
X2743504Y3727754D01*
X2730093Y3708958D01*
X2718257Y3689096D01*
X2708097Y3668318D01*
X2699664Y3646779D01*
X2693111Y3624630D01*
X2688336Y3602024D01*
X2685491Y3579114D01*
X2684526Y3556000D01*
X2685491Y3532886D01*
X2688336Y3509975D01*
X2693111Y3487369D01*
X2699664Y3465220D01*
X2708097Y3443681D01*
X2718257Y3422904D01*
X2730093Y3403041D01*
X2743504Y3384245D01*
X2758440Y3366617D01*
X2774797Y3350260D01*
X2792425Y3335324D01*
X2811221Y3321913D01*
X2831084Y3310077D01*
X2851861Y3299917D01*
X2873400Y3291484D01*
X2895549Y3284931D01*
X2918155Y3280156D01*
X2941066Y3277311D01*
G37*
G36*
X1710791Y3294176D02*
G01*
X1725523Y3294634D01*
X1740103Y3296920D01*
X1754276Y3300933D01*
X1767839Y3306673D01*
X1780590Y3314039D01*
X1792325Y3322929D01*
X1802892Y3333191D01*
X1812137Y3344672D01*
X1819859Y3357168D01*
X1826056Y3370529D01*
X1830527Y3384600D01*
X1833219Y3399078D01*
X1834134Y3413760D01*
X1833219Y3428441D01*
X1830527Y3442919D01*
X1826056Y3456990D01*
X1819859Y3470351D01*
X1812137Y3482848D01*
X1802892Y3494328D01*
X1792325Y3504590D01*
X1780590Y3513480D01*
X1767839Y3520846D01*
X1754276Y3526586D01*
X1740103Y3530600D01*
X1725523Y3532886D01*
X1710791Y3533343D01*
X1696161Y3531971D01*
X1681784Y3528822D01*
X1667865Y3523894D01*
X1654708Y3517341D01*
X1642414Y3509213D01*
X1631238Y3499612D01*
X1621332Y3488740D01*
X1612798Y3476751D01*
X1605838Y3463747D01*
X1600504Y3450031D01*
X1596898Y3435756D01*
X1595120Y3421126D01*
X1595120Y3406394D01*
X1596898Y3391763D01*
X1600504Y3377488D01*
X1605838Y3363772D01*
X1612798Y3350768D01*
X1621332Y3338779D01*
X1631238Y3327908D01*
X1642414Y3318306D01*
X1654708Y3310178D01*
X1667865Y3303625D01*
X1681784Y3298698D01*
X1696161Y3295548D01*
G37*
G36*
X1905000Y3591153D02*
G01*
X1917750Y3598519D01*
X1929485Y3607409D01*
X1940052Y3617671D01*
X1949297Y3629151D01*
X1957019Y3641648D01*
X1958543Y3644900D01*
X1905000Y3644900D01*
G37*
G36*
X1798320Y3591407D02*
G01*
X1798320Y3644900D01*
X1744776Y3644900D01*
X1749958Y3635248D01*
X1758492Y3623259D01*
X1768398Y3612387D01*
X1779574Y3602786D01*
X1791868Y3594658D01*
G37*
G36*
X1744776Y3751579D02*
G01*
X1798320Y3751579D01*
X1798320Y3805072D01*
X1791868Y3801821D01*
X1779574Y3793693D01*
X1768398Y3784092D01*
X1758492Y3773220D01*
X1749958Y3761232D01*
G37*
G36*
X1905000Y3751579D02*
G01*
X1958543Y3751579D01*
X1957019Y3754831D01*
X1949297Y3767328D01*
X1940052Y3778808D01*
X1929485Y3789070D01*
X1917750Y3797960D01*
X1905000Y3805326D01*
G37*

%LPD*%
D11*
X2128520Y3698239D02*
G01*
X2128520Y3336036D01*
X2603500Y2861055D01*
X2603500Y1587500D01*
X2743200Y1447800D01*
X2743200Y1193800D02*
G01*
X2857500Y1193800D01*
X2268220Y3413760D02*
G01*
X2673858Y3008121D01*
X2673858Y2546857D01*
X2899663Y2321052D01*
X2899663Y1235963D01*
X2857500Y1193800D01*
X1577339Y3698239D02*
G01*
X1449578Y3570478D01*
X1085342Y3570478D01*
X520700Y3005836D01*
X520700Y2768600D01*
X2162809Y2136647D02*
G01*
X2296413Y2136647D01*
X1837689Y3282695D02*
G01*
X2296413Y2824226D01*
X2296413Y2136647D01*
X774700Y2962910D02*
G01*
X1517904Y2962910D01*
X1837689Y3282695D01*
X1837689Y3282695D02*
G01*
X1851660Y3296665D01*
X1851660Y3698239D01*
X774700Y2768600D02*
G01*
X774700Y2962910D01*
X2296413Y2136647D02*
G01*
X2306827Y2125979D01*
X2306827Y1717802D01*
X2696718Y1327912D01*
X2786634Y1327912D01*
X2857500Y1398778D01*
X2857500Y1587500D01*
X2743200Y1701800D01*
X1489710Y399795D02*
G01*
X1489710Y803910D01*
X1489710Y803910D02*
G01*
X1398270Y895350D01*
X1398270Y982726D01*
X1156970Y1495805D02*
G01*
X1028700Y1624076D01*
X1028700Y2768600D01*
X1536700Y1244600D02*
G01*
X1536700Y857504D01*
X1282700Y2768600D02*
G01*
X1282700Y1733804D01*
X1494028Y1522476D01*
X1282700Y1244600D02*
G01*
X1282700Y1438910D01*
X1282700Y1438910D02*
G01*
X1498854Y1438910D01*
X1606550Y1546605D01*
X1606550Y1601723D01*
X1028700Y1244600D02*
G01*
X1028700Y1438910D01*
X1028700Y1438910D02*
G01*
X1028700Y1456689D01*
X774700Y1244600D02*
G01*
X774700Y1601723D01*
X520700Y1244600D02*
G01*
X520700Y1698752D01*
X1924304Y803910D02*
G01*
X1790700Y937513D01*
X1790700Y1244600D01*
X1924304Y399795D02*
G01*
X1924304Y803910D01*
D13*
G01*
X520700Y1244600D03*
G01*
X774700Y1244600D03*
G01*
X1028700Y1244600D03*
G01*
X1282700Y1244600D03*
G01*
X1536700Y1244600D03*
G01*
X1790700Y1244600D03*
G01*
X2044700Y1244600D03*
G01*
X2044700Y2768600D03*
G01*
X1790700Y2768600D03*
G01*
X1536700Y2768600D03*
G01*
X1282700Y2768600D03*
G01*
X1028700Y2768600D03*
G01*
X774700Y2768600D03*
G01*
X520700Y2768600D03*
D14*
G01*
X2162708Y1876602D03*
G01*
X2162708Y2136597D03*
D15*
G01*
X1924304Y399795D03*
G01*
X1489710Y399795D03*
D16*
G01*
X2743200Y1193800D03*
D17*
G01*
X2743200Y1447800D03*
G01*
X2743200Y1701800D03*
G01*
X2743200Y1955800D03*
G36*
X1066800Y3507739D02*
G01*
X1254760Y3507739D01*
X1254760Y3319779D01*
X1066800Y3319779D01*
G37*
D19*
G01*
X1437639Y3413760D03*
G01*
X1714500Y3413760D03*
G01*
X1991359Y3413760D03*
G01*
X2268220Y3413760D03*
G01*
X1300479Y3698239D03*
G01*
X1577339Y3698239D03*
G01*
X1851660Y3698239D03*
G01*
X2128520Y3698239D03*
D20*
G01*
X464820Y3556000D03*
G01*
X2964179Y3556000D03*
D21*
G01*
X3048000Y355600D03*
G01*
X355600Y355600D03*
G01*
X3048000Y2705100D03*
D12*
G01*
X1398270Y982726D03*
G01*
X1156970Y1495805D03*
G01*
X1536700Y857504D03*
G01*
X1494028Y1522476D03*
G01*
X1606550Y1601723D03*
G01*
X1028700Y1456689D03*
G01*
X774700Y1601723D03*
G01*
X520700Y1698752D03*
M02*
