M48
METRIC,LZ,0000.00
;FILE_FORMAT=4:2
;TYPE=PLATED
;Layer: Drill PTH
;EasyEDA v6.4.14, 2021-02-02T13:22:32--5:00
;99f0f78b573744e3acd602d4f8b6235f,d79a69aa59da4e1fbb9b7d465b79b5da,10
;Gerber Generator version 0.2
;Holesize 1 = 0.310 mm
T01C0.310
;Holesize 2 = 1.016 mm
T02C1.016
;Holesize 3 = 1.101 mm
T03C1.101
;Holesize 4 = 3.130 mm
T04C3.130
;Holesize 5 = 3.302 mm
T05C3.302
%
G05
G90
T01
X001398Y000983
X001157Y001496
X001537Y000858
X001494Y001522
X001607Y001602
X001029Y001457
X000775Y001602
X000521Y001699
T02
X001161Y003414
X001438Y003414
X001715Y003414
X001991Y003414
X002268Y003414
X001300Y003698
X001577Y003698
X001852Y003698
X002129Y003698
T03
X002743Y001194
X002743Y001448
X002743Y001702
X002743Y001956
T04
X003048Y000356
X000356Y000356
X003048Y002705
T05
X000465Y003556
X002964Y003556
M30
