M48
METRIC,LZ,0000.00
;FILE_FORMAT=4:2
;TYPE=PLATED
;Layer: Drill PTH
;EasyEDA v6.4.14, 2021-02-02T13:22:32--5:00
;91b0255ed1064b2dbadafc5a096163c1,d79a69aa59da4e1fbb9b7d465b79b5da,10
;Gerber Generator version 0.2
;Holesize 1 = 0.310 mm
T01C0.310
;Holesize 2 = 0.915 mm
T02C0.915
;Holesize 3 = 1.016 mm
T03C1.016
;Holesize 4 = 1.101 mm
T04C1.101
;Holesize 5 = 3.302 mm
T05C3.302
%
G05
G90
T01
X002248Y002527
X001999Y002070
X000343Y001638
X000343Y002083
X000826Y002807
X001016Y001041
X002502Y000737
X000279Y000165
T02
X001588Y002578
X001588Y002324
X001588Y002070
X001588Y001816
X001588Y001562
X001588Y001308
X001588Y001054
X002756Y001054
X002756Y001308
X002756Y001562
X002756Y001816
X002756Y002070
X002756Y002324
X002756Y002578
T03
X000983Y003490
X001260Y003490
X001537Y003490
X001814Y003490
X002090Y003490
X001123Y003774
X001400Y003774
X001674Y003774
X001951Y003774
T04
X001207Y003035
X001461Y003035
T05
X000287Y003632
X002786Y003632
M30
