G04 Layer: TopSolderMaskLayer*
G04 EasyEDA v6.4.14, 2021-02-02T13:22:32--5:00*
G04 91b0255ed1064b2dbadafc5a096163c1,d79a69aa59da4e1fbb9b7d465b79b5da,10*
G04 Gerber Generator version 0.2*
G04 Scale: 100 percent, Rotated: No, Reflected: No *
G04 Dimensions in millimeters *
G04 leading zeros omitted , absolute positions ,4 integer and 5 decimal *
%FSLAX45Y45*%
%MOMM*%

%ADD20R,1.9000X7.5000*%
%ADD34C,0.8032*%
%ADD38R,2.3622X1.2954*%
%ADD39R,2.3622X3.7084*%
%ADD41C,2.0828*%
%ADD42C,5.2832*%
%ADD44C,1.9032*%
%ADD45R,1.8032X1.8032*%
%ADD46C,1.8032*%

%LPD*%
G36*
X1676907Y762000D02*
G01*
X1676907Y11988D01*
X1866900Y11988D01*
X1866900Y762000D01*
G37*
G36*
X1242314Y762000D02*
G01*
X1242314Y11988D01*
X1432306Y11988D01*
X1432306Y762000D01*
G37*
D34*
X2421707Y1041400D02*
G01*
X2541706Y1041400D01*
X2421707Y1168400D02*
G01*
X2541706Y1168400D01*
X2421707Y1295400D02*
G01*
X2541706Y1295400D01*
X2421707Y1422400D02*
G01*
X2541706Y1422400D01*
X2421707Y1549400D02*
G01*
X2541706Y1549400D01*
X2421707Y1676400D02*
G01*
X2541706Y1676400D01*
X2421707Y1803400D02*
G01*
X2541706Y1803400D01*
X1801693Y1041400D02*
G01*
X1921692Y1041400D01*
X1801693Y1168400D02*
G01*
X1921692Y1168400D01*
X1801693Y1295400D02*
G01*
X1921692Y1295400D01*
X1801693Y1422400D02*
G01*
X1921692Y1422400D01*
X1801693Y1549400D02*
G01*
X1921692Y1549400D01*
X1801693Y1676400D02*
G01*
X1921692Y1676400D01*
X1801693Y1803400D02*
G01*
X1921692Y1803400D01*
G36*
X183387Y2507487D02*
G01*
X183387Y2597912D01*
X328676Y2597912D01*
X328676Y2507487D01*
G37*
G36*
X433323Y2602484D02*
G01*
X433323Y2692907D01*
X578612Y2692907D01*
X578612Y2602484D01*
G37*
G36*
X433323Y2412492D02*
G01*
X433323Y2502915D01*
X578612Y2502915D01*
X578612Y2412492D01*
G37*
G36*
X183387Y2164587D02*
G01*
X183387Y2255012D01*
X328676Y2255012D01*
X328676Y2164587D01*
G37*
G36*
X433323Y2259584D02*
G01*
X433323Y2350007D01*
X578612Y2350007D01*
X578612Y2259584D01*
G37*
G36*
X433323Y2069592D02*
G01*
X433323Y2160015D01*
X578612Y2160015D01*
X578612Y2069592D01*
G37*
G36*
X183387Y1808987D02*
G01*
X183387Y1899412D01*
X328676Y1899412D01*
X328676Y1808987D01*
G37*
G36*
X433323Y1903984D02*
G01*
X433323Y1994407D01*
X578612Y1994407D01*
X578612Y1903984D01*
G37*
G36*
X433323Y1713992D02*
G01*
X433323Y1804415D01*
X578612Y1804415D01*
X578612Y1713992D01*
G37*
G36*
X183387Y1453387D02*
G01*
X183387Y1543812D01*
X328676Y1543812D01*
X328676Y1453387D01*
G37*
G36*
X433323Y1548384D02*
G01*
X433323Y1638807D01*
X578612Y1638807D01*
X578612Y1548384D01*
G37*
G36*
X433323Y1358392D02*
G01*
X433323Y1448815D01*
X578612Y1448815D01*
X578612Y1358392D01*
G37*
G36*
X183387Y1085087D02*
G01*
X183387Y1175512D01*
X328676Y1175512D01*
X328676Y1085087D01*
G37*
G36*
X433323Y1180084D02*
G01*
X433323Y1270507D01*
X578612Y1270507D01*
X578612Y1180084D01*
G37*
G36*
X433323Y990092D02*
G01*
X433323Y1080515D01*
X578612Y1080515D01*
X578612Y990092D01*
G37*
G36*
X1055878Y2490470D02*
G01*
X1055878Y2665729D01*
X1176273Y2665729D01*
X1176273Y2490470D01*
G37*
G36*
X855726Y2490470D02*
G01*
X855726Y2665729D01*
X976121Y2665729D01*
X976121Y2490470D01*
G37*
G36*
X1055878Y2185670D02*
G01*
X1055878Y2360929D01*
X1176273Y2360929D01*
X1176273Y2185670D01*
G37*
G36*
X855726Y2185670D02*
G01*
X855726Y2360929D01*
X976121Y2360929D01*
X976121Y2185670D01*
G37*
G36*
X1055878Y1880870D02*
G01*
X1055878Y2056129D01*
X1176273Y2056129D01*
X1176273Y1880870D01*
G37*
G36*
X855726Y1880870D02*
G01*
X855726Y2056129D01*
X976121Y2056129D01*
X976121Y1880870D01*
G37*
G36*
X1055878Y1576070D02*
G01*
X1055878Y1751329D01*
X1176273Y1751329D01*
X1176273Y1576070D01*
G37*
G36*
X855726Y1576070D02*
G01*
X855726Y1751329D01*
X976121Y1751329D01*
X976121Y1576070D01*
G37*
G36*
X1055878Y1271270D02*
G01*
X1055878Y1446529D01*
X1176273Y1446529D01*
X1176273Y1271270D01*
G37*
G36*
X855726Y1271270D02*
G01*
X855726Y1446529D01*
X976121Y1446529D01*
X976121Y1271270D01*
G37*
G36*
X2211070Y2163826D02*
G01*
X2211070Y2284221D01*
X2386329Y2284221D01*
X2386329Y2163826D01*
G37*
G36*
X2211070Y2363978D02*
G01*
X2211070Y2484373D01*
X2386329Y2484373D01*
X2386329Y2363978D01*
G37*
G36*
X1931670Y2163826D02*
G01*
X1931670Y2284221D01*
X2106929Y2284221D01*
X2106929Y2163826D01*
G37*
G36*
X1931670Y2363978D02*
G01*
X1931670Y2484373D01*
X2106929Y2484373D01*
X2106929Y2363978D01*
G37*
D38*
G01*
X2456179Y2678429D03*
G01*
X2456179Y2909570D03*
G01*
X2456179Y3138170D03*
D39*
G01*
X1836420Y2909570D03*
G36*
X878839Y3385820D02*
G01*
X878839Y3594100D01*
X1087120Y3594100D01*
X1087120Y3385820D01*
G37*
D41*
G01*
X1259839Y3489960D03*
G01*
X1536700Y3489960D03*
G01*
X1813559Y3489960D03*
G01*
X2090420Y3489960D03*
G01*
X1122679Y3774439D03*
G01*
X1399539Y3774439D03*
G01*
X1673860Y3774439D03*
G01*
X1950720Y3774439D03*
D42*
G01*
X287020Y3632200D03*
G01*
X2786379Y3632200D03*
D20*
G01*
X1771904Y387095D03*
G01*
X1337310Y387095D03*
G36*
X1111250Y2946400D02*
G01*
X1111250Y3124200D01*
X1301750Y3124200D01*
X1301750Y2946400D01*
G37*
D44*
G01*
X1460500Y3035300D03*
G36*
X1497329Y2487929D02*
G01*
X1497329Y2668270D01*
X1677670Y2668270D01*
X1677670Y2487929D01*
G37*
D46*
G01*
X1587500Y2324100D03*
G01*
X1587500Y2070100D03*
G01*
X1587500Y1816100D03*
G01*
X1587500Y1562100D03*
G01*
X1587500Y1308100D03*
G01*
X1587500Y1054100D03*
D45*
G01*
X2755900Y1054100D03*
D46*
G01*
X2755900Y1308100D03*
G01*
X2755900Y1562100D03*
G01*
X2755900Y1816100D03*
G01*
X2755900Y2070100D03*
G01*
X2755900Y2324100D03*
G01*
X2755900Y2578100D03*
M02*
