G04 Layer: TopPasteMaskLayer*
G04 EasyEDA v6.4.14, 2021-02-02T13:22:32--5:00*
G04 91b0255ed1064b2dbadafc5a096163c1,d79a69aa59da4e1fbb9b7d465b79b5da,10*
G04 Gerber Generator version 0.2*
G04 Scale: 100 percent, Rotated: No, Reflected: No *
G04 Dimensions in millimeters *
G04 leading zeros omitted , absolute positions ,4 integer and 5 decimal *
%FSLAX45Y45*%
%MOMM*%

%ADD12C,0.6000*%
%ADD15R,1.2500X0.7000*%
%ADD17R,1.5500X1.0000*%
%ADD18R,2.1590X1.0922*%
%ADD19R,2.1590X3.5052*%
%ADD20R,1.9000X7.5000*%

%LPD*%
D12*
X2421707Y1041400D02*
G01*
X2541706Y1041400D01*
X2421707Y1168400D02*
G01*
X2541706Y1168400D01*
X2421707Y1295400D02*
G01*
X2541706Y1295400D01*
X2421707Y1422400D02*
G01*
X2541706Y1422400D01*
X2421707Y1549400D02*
G01*
X2541706Y1549400D01*
X2421707Y1676400D02*
G01*
X2541706Y1676400D01*
X2421707Y1803400D02*
G01*
X2541706Y1803400D01*
X1801693Y1041400D02*
G01*
X1921692Y1041400D01*
X1801693Y1168400D02*
G01*
X1921692Y1168400D01*
X1801693Y1295400D02*
G01*
X1921692Y1295400D01*
X1801693Y1422400D02*
G01*
X1921692Y1422400D01*
X1801693Y1549400D02*
G01*
X1921692Y1549400D01*
X1801693Y1676400D02*
G01*
X1921692Y1676400D01*
X1801693Y1803400D02*
G01*
X1921692Y1803400D01*
D15*
G01*
X256031Y2552700D03*
G01*
X505968Y2647695D03*
G01*
X505968Y2457704D03*
G01*
X256031Y2209800D03*
G01*
X505968Y2304795D03*
G01*
X505968Y2114804D03*
G01*
X256031Y1854200D03*
G01*
X505968Y1949195D03*
G01*
X505968Y1759204D03*
G01*
X256031Y1498600D03*
G01*
X505968Y1593595D03*
G01*
X505968Y1403604D03*
G01*
X256031Y1130300D03*
G01*
X505968Y1225295D03*
G01*
X505968Y1035304D03*
G36*
X1065999Y2655600D02*
G01*
X1165999Y2655600D01*
X1165999Y2500599D01*
X1065999Y2500599D01*
G37*
G36*
X866000Y2655600D02*
G01*
X966000Y2655600D01*
X966000Y2500599D01*
X866000Y2500599D01*
G37*
G36*
X1065999Y2350800D02*
G01*
X1165999Y2350800D01*
X1165999Y2195799D01*
X1065999Y2195799D01*
G37*
G36*
X866000Y2350800D02*
G01*
X966000Y2350800D01*
X966000Y2195799D01*
X866000Y2195799D01*
G37*
G36*
X1065999Y2046000D02*
G01*
X1165999Y2046000D01*
X1165999Y1890999D01*
X1065999Y1890999D01*
G37*
G36*
X866000Y2046000D02*
G01*
X966000Y2046000D01*
X966000Y1890999D01*
X866000Y1890999D01*
G37*
G36*
X1065999Y1741200D02*
G01*
X1165999Y1741200D01*
X1165999Y1586199D01*
X1065999Y1586199D01*
G37*
G36*
X866000Y1741200D02*
G01*
X966000Y1741200D01*
X966000Y1586199D01*
X866000Y1586199D01*
G37*
G36*
X1065999Y1436400D02*
G01*
X1165999Y1436400D01*
X1165999Y1281399D01*
X1065999Y1281399D01*
G37*
G36*
X866000Y1436400D02*
G01*
X966000Y1436400D01*
X966000Y1281399D01*
X866000Y1281399D01*
G37*
D17*
G01*
X2298700Y2224100D03*
G01*
X2298700Y2424099D03*
G01*
X2019300Y2224100D03*
G01*
X2019300Y2424099D03*
D18*
G01*
X2456179Y2678429D03*
G01*
X2456179Y2909570D03*
G01*
X2456179Y3138170D03*
D19*
G01*
X1836420Y2909570D03*
D20*
G01*
X1771904Y387095D03*
G01*
X1337310Y387095D03*
M02*
