G04 Layer: TopLayer*
G04 EasyEDA v6.4.14, 2021-02-02T13:22:32--5:00*
G04 91b0255ed1064b2dbadafc5a096163c1,d79a69aa59da4e1fbb9b7d465b79b5da,10*
G04 Gerber Generator version 0.2*
G04 Scale: 100 percent, Rotated: No, Reflected: No *
G04 Dimensions in millimeters *
G04 leading zeros omitted , absolute positions ,4 integer and 5 decimal *
%FSLAX45Y45*%
%MOMM*%

%ADD11C,0.2600*%
%ADD12C,0.6000*%
%ADD13C,0.6100*%
%ADD14C,0.6150*%
%ADD15R,1.2500X0.7000*%
%ADD17R,1.5500X1.0000*%
%ADD18R,2.1590X1.0922*%
%ADD19R,2.1590X3.5052*%
%ADD20R,1.9000X7.5000*%
%ADD22C,1.8796*%
%ADD23C,5.0800*%
%ADD25C,1.7000*%
%ADD26R,1.6000X1.6000*%
%ADD27C,1.6000*%

%LPD*%
G36*
X127355Y25654D02*
G01*
X123494Y26416D01*
X120192Y28651D01*
X117957Y31902D01*
X117195Y35814D01*
X117195Y1098245D01*
X117957Y1102156D01*
X120192Y1105408D01*
X123494Y1107643D01*
X127355Y1108405D01*
X131267Y1107643D01*
X134569Y1105408D01*
X136652Y1103325D01*
X142900Y1098194D01*
X149555Y1094638D01*
X156819Y1092454D01*
X161544Y1091996D01*
X165201Y1090879D01*
X168198Y1088542D01*
X170484Y1084173D01*
X173532Y1079347D01*
X177596Y1075283D01*
X182422Y1072235D01*
X187858Y1070356D01*
X194106Y1069644D01*
X317957Y1069644D01*
X324205Y1070356D01*
X329641Y1072235D01*
X334467Y1075283D01*
X338531Y1079347D01*
X341579Y1084173D01*
X343458Y1089609D01*
X344170Y1095857D01*
X344170Y1164742D01*
X343458Y1170990D01*
X341579Y1176426D01*
X338531Y1181252D01*
X334467Y1185316D01*
X329641Y1188364D01*
X324205Y1190244D01*
X317957Y1190955D01*
X201218Y1190955D01*
X197307Y1191717D01*
X194005Y1193952D01*
X191820Y1197203D01*
X191058Y1201115D01*
X191058Y1427784D01*
X191820Y1431696D01*
X194005Y1434947D01*
X197307Y1437182D01*
X201218Y1437944D01*
X317957Y1437944D01*
X324205Y1438656D01*
X329641Y1440535D01*
X334467Y1443583D01*
X338531Y1447647D01*
X341579Y1452473D01*
X343458Y1457909D01*
X344170Y1464157D01*
X344170Y1533042D01*
X343458Y1539290D01*
X341579Y1544726D01*
X339242Y1548434D01*
X337870Y1551940D01*
X337870Y1555699D01*
X339242Y1559204D01*
X352196Y1580083D01*
X354787Y1582877D01*
X358190Y1584553D01*
X362102Y1585569D01*
X370941Y1589684D01*
X378968Y1595323D01*
X385876Y1602232D01*
X391515Y1610258D01*
X395630Y1619097D01*
X397814Y1627327D01*
X399694Y1631035D01*
X401269Y1632356D01*
X400151Y1633778D01*
X399084Y1637538D01*
X398170Y1648053D01*
X395630Y1657502D01*
X391515Y1666341D01*
X385876Y1674368D01*
X378968Y1681276D01*
X370941Y1686915D01*
X362102Y1691030D01*
X352653Y1693570D01*
X342900Y1694434D01*
X333146Y1693570D01*
X323697Y1691030D01*
X314858Y1686915D01*
X306832Y1681276D01*
X299923Y1674368D01*
X294284Y1666341D01*
X290169Y1657502D01*
X287629Y1648053D01*
X286766Y1638300D01*
X287832Y1624482D01*
X286410Y1620672D01*
X251206Y1564030D01*
X248920Y1561490D01*
X245973Y1559814D01*
X242570Y1559255D01*
X201218Y1559255D01*
X197307Y1560017D01*
X194005Y1562252D01*
X191820Y1565503D01*
X191058Y1569415D01*
X191058Y1783384D01*
X191820Y1787296D01*
X194005Y1790547D01*
X197307Y1792782D01*
X201218Y1793544D01*
X317957Y1793544D01*
X324205Y1794256D01*
X329641Y1796135D01*
X334467Y1799183D01*
X338531Y1803247D01*
X341579Y1808073D01*
X343458Y1813509D01*
X344170Y1819757D01*
X344170Y1888642D01*
X343458Y1894890D01*
X341579Y1900326D01*
X338531Y1905152D01*
X334518Y1909165D01*
X328472Y1912924D01*
X325882Y1915210D01*
X324205Y1918309D01*
X323697Y1921713D01*
X324358Y1925167D01*
X363220Y2027428D01*
X365252Y2030730D01*
X368401Y2033016D01*
X370941Y2034184D01*
X378968Y2039823D01*
X385876Y2046732D01*
X391515Y2054758D01*
X395630Y2063597D01*
X398373Y2073910D01*
X399948Y2077212D01*
X402488Y2080006D01*
X405892Y2081631D01*
X409701Y2081936D01*
X413308Y2080818D01*
X416255Y2078482D01*
X418134Y2075180D01*
X420420Y2068677D01*
X423468Y2063851D01*
X427532Y2059787D01*
X432358Y2056739D01*
X437794Y2054860D01*
X444042Y2054148D01*
X567893Y2054148D01*
X574141Y2054860D01*
X579577Y2056739D01*
X584403Y2059787D01*
X588467Y2063851D01*
X591515Y2068677D01*
X593801Y2073046D01*
X596798Y2075383D01*
X600456Y2076500D01*
X605180Y2076957D01*
X612444Y2079142D01*
X619099Y2082698D01*
X625348Y2087829D01*
X662533Y2125014D01*
X665784Y2127199D01*
X669696Y2127961D01*
X915416Y2127961D01*
X923442Y2128774D01*
X930706Y2130958D01*
X937361Y2134514D01*
X943203Y2139340D01*
X948029Y2145182D01*
X951585Y2151837D01*
X953769Y2159101D01*
X953973Y2160981D01*
X954989Y2164537D01*
X957275Y2167534D01*
X960424Y2169464D01*
X971702Y2170836D01*
X977087Y2172766D01*
X981964Y2175814D01*
X986028Y2179828D01*
X989076Y2184704D01*
X990955Y2190089D01*
X991666Y2196388D01*
X991666Y2350211D01*
X990955Y2356510D01*
X989076Y2361895D01*
X986028Y2366772D01*
X981964Y2370785D01*
X977087Y2373833D01*
X971702Y2375763D01*
X965453Y2376474D01*
X866546Y2376474D01*
X860298Y2375763D01*
X854913Y2373833D01*
X850036Y2370785D01*
X845972Y2366772D01*
X842924Y2361895D01*
X841044Y2356510D01*
X840333Y2350211D01*
X840333Y2215438D01*
X839571Y2211527D01*
X837387Y2208225D01*
X834085Y2206040D01*
X830173Y2205278D01*
X649986Y2205278D01*
X641959Y2204466D01*
X634695Y2202281D01*
X628040Y2198725D01*
X621792Y2193594D01*
X598373Y2170226D01*
X595579Y2168194D01*
X592277Y2167280D01*
X588822Y2167534D01*
X585673Y2168855D01*
X579475Y2172868D01*
X574141Y2174748D01*
X567893Y2175459D01*
X444042Y2175459D01*
X437794Y2174748D01*
X432358Y2172868D01*
X427532Y2169820D01*
X423468Y2165756D01*
X420420Y2160930D01*
X418541Y2155494D01*
X417830Y2149246D01*
X417830Y2096363D01*
X416966Y2092299D01*
X414578Y2088946D01*
X411022Y2086813D01*
X406908Y2086254D01*
X402894Y2087422D01*
X399694Y2090064D01*
X397814Y2093772D01*
X395630Y2102002D01*
X391515Y2110841D01*
X385876Y2118868D01*
X378968Y2125776D01*
X370941Y2131415D01*
X362102Y2135530D01*
X352653Y2138070D01*
X342290Y2138984D01*
X338582Y2140000D01*
X335584Y2142337D01*
X333603Y2145639D01*
X332994Y2149398D01*
X333806Y2153107D01*
X335991Y2156256D01*
X338531Y2158847D01*
X341579Y2163673D01*
X343458Y2169109D01*
X344170Y2175357D01*
X344170Y2231694D01*
X345084Y2235911D01*
X347624Y2239314D01*
X374802Y2263495D01*
X379831Y2269642D01*
X383387Y2276297D01*
X385572Y2283561D01*
X386384Y2291588D01*
X386384Y2612491D01*
X387146Y2616403D01*
X389331Y2619654D01*
X400456Y2630779D01*
X403758Y2633014D01*
X407974Y2633726D01*
X408686Y2637891D01*
X410870Y2641193D01*
X438251Y2668574D01*
X441553Y2670759D01*
X445414Y2671521D01*
X468376Y2671521D01*
X468376Y2694482D01*
X469138Y2698343D01*
X471322Y2701645D01*
X729081Y2959404D01*
X732332Y2961589D01*
X736244Y2962351D01*
X770382Y2962351D01*
X778408Y2963164D01*
X785672Y2965348D01*
X792327Y2968904D01*
X798576Y2974035D01*
X1202131Y3377590D01*
X1205280Y3379724D01*
X1208938Y3380536D01*
X1212697Y3379978D01*
X1227124Y3374898D01*
X1241501Y3371748D01*
X1256131Y3370376D01*
X1270863Y3370834D01*
X1285443Y3373120D01*
X1299616Y3377133D01*
X1313180Y3382873D01*
X1325930Y3390239D01*
X1337665Y3399129D01*
X1348232Y3409391D01*
X1353108Y3415385D01*
X1356614Y3418179D01*
X1360932Y3419195D01*
X1365300Y3418230D01*
X1368856Y3415487D01*
X1372565Y3410965D01*
X1584198Y3199333D01*
X1590446Y3194202D01*
X1597101Y3190646D01*
X1604365Y3188462D01*
X1612392Y3187649D01*
X1830425Y3187649D01*
X1834337Y3186887D01*
X1837588Y3184702D01*
X1894484Y3127806D01*
X1896618Y3124606D01*
X1897430Y3120796D01*
X1896770Y3116986D01*
X1896770Y3003550D01*
X1970481Y3003550D01*
X1974392Y3002788D01*
X1977694Y3000552D01*
X1979879Y2997301D01*
X1980641Y2993390D01*
X1980641Y2825750D01*
X1979879Y2821838D01*
X1977694Y2818587D01*
X1974392Y2816352D01*
X1970481Y2815590D01*
X1896770Y2815590D01*
X1896770Y2708656D01*
X1943811Y2708656D01*
X1950059Y2709367D01*
X1955495Y2711246D01*
X1960321Y2714294D01*
X1963318Y2717292D01*
X1966620Y2719476D01*
X1970481Y2720238D01*
X1974392Y2719476D01*
X1977694Y2717292D01*
X1979879Y2713990D01*
X1980641Y2710078D01*
X1980641Y2509926D01*
X1979879Y2506014D01*
X1977694Y2502712D01*
X1974392Y2500528D01*
X1970481Y2499766D01*
X1942388Y2499766D01*
X1936089Y2499055D01*
X1930704Y2497175D01*
X1925828Y2494127D01*
X1921814Y2490063D01*
X1918766Y2485186D01*
X1916836Y2479802D01*
X1916125Y2473553D01*
X1916125Y2374646D01*
X1916836Y2368397D01*
X1918766Y2363012D01*
X1921814Y2358136D01*
X1925828Y2354072D01*
X1930704Y2351024D01*
X1936089Y2349144D01*
X1942388Y2348433D01*
X2096211Y2348433D01*
X2099614Y2348839D01*
X2102612Y2348687D01*
X2105507Y2347722D01*
X2107946Y2345893D01*
X2156714Y2297125D01*
X2162962Y2291994D01*
X2169617Y2288438D01*
X2176830Y2286254D01*
X2186432Y2285390D01*
X2190292Y2284272D01*
X2193391Y2281732D01*
X2195271Y2278176D01*
X2195525Y2273554D01*
X2195525Y2255469D01*
X2253589Y2255469D01*
X2253589Y2275281D01*
X2254351Y2279192D01*
X2256586Y2282494D01*
X2259888Y2284679D01*
X2263749Y2285441D01*
X2333650Y2285441D01*
X2337511Y2284679D01*
X2340813Y2282494D01*
X2343048Y2279192D01*
X2343810Y2275281D01*
X2343810Y2255469D01*
X2401874Y2255469D01*
X2401874Y2273554D01*
X2401620Y2275636D01*
X2401824Y2279142D01*
X2403246Y2282393D01*
X2405634Y2284933D01*
X2408783Y2286508D01*
X2415082Y2288438D01*
X2421737Y2291994D01*
X2427986Y2297125D01*
X2483154Y2352294D01*
X2488285Y2358542D01*
X2491841Y2365197D01*
X2494026Y2372461D01*
X2494838Y2380488D01*
X2494838Y2588006D01*
X2495600Y2591917D01*
X2497785Y2595168D01*
X2501087Y2597404D01*
X2504998Y2598166D01*
X2563571Y2598166D01*
X2569819Y2598877D01*
X2575255Y2600756D01*
X2580081Y2603804D01*
X2584145Y2607868D01*
X2587193Y2612694D01*
X2589072Y2618130D01*
X2589784Y2624378D01*
X2589784Y2732481D01*
X2589072Y2738729D01*
X2587193Y2744165D01*
X2584145Y2748991D01*
X2580081Y2753055D01*
X2575255Y2756103D01*
X2569819Y2757982D01*
X2563571Y2758694D01*
X2348788Y2758694D01*
X2342540Y2757982D01*
X2337104Y2756103D01*
X2332278Y2753055D01*
X2328214Y2748991D01*
X2325166Y2744165D01*
X2323287Y2738729D01*
X2322576Y2732481D01*
X2322576Y2665425D01*
X2321814Y2661513D01*
X2319578Y2658211D01*
X2316327Y2656027D01*
X2312416Y2655265D01*
X2308504Y2656027D01*
X2305253Y2658211D01*
X2276805Y2686659D01*
X2274620Y2689910D01*
X2273858Y2693822D01*
X2273858Y3039364D01*
X2274722Y3043428D01*
X2277110Y3046831D01*
X2308860Y3076143D01*
X2312720Y3078378D01*
X2317140Y3078734D01*
X2321356Y3077159D01*
X2324455Y3073908D01*
X2328265Y3067558D01*
X2332278Y3063544D01*
X2337104Y3060496D01*
X2342540Y3058617D01*
X2348788Y3057906D01*
X2563571Y3057906D01*
X2569819Y3058617D01*
X2575255Y3060496D01*
X2580081Y3063544D01*
X2584145Y3067608D01*
X2587193Y3072434D01*
X2589072Y3077870D01*
X2589784Y3084118D01*
X2589784Y3192221D01*
X2589072Y3198469D01*
X2587193Y3203905D01*
X2584145Y3208731D01*
X2580081Y3212795D01*
X2575255Y3215843D01*
X2569819Y3217722D01*
X2563571Y3218434D01*
X2348788Y3218434D01*
X2342540Y3217722D01*
X2337104Y3215843D01*
X2332278Y3212795D01*
X2328214Y3208731D01*
X2325166Y3203905D01*
X2323287Y3198469D01*
X2322576Y3192221D01*
X2322576Y3186430D01*
X2321915Y3182874D01*
X2320086Y3179775D01*
X2317242Y3177489D01*
X2313787Y3176371D01*
X2311654Y3176066D01*
X2304237Y3173831D01*
X2297480Y3170224D01*
X2292502Y3166262D01*
X2209038Y3089148D01*
X2203094Y3082137D01*
X2199538Y3075482D01*
X2197354Y3068218D01*
X2196541Y3060192D01*
X2196541Y2674112D01*
X2197354Y2666085D01*
X2199538Y2658821D01*
X2203094Y2652166D01*
X2208225Y2645918D01*
X2253488Y2600655D01*
X2255621Y2597505D01*
X2256434Y2593746D01*
X2255824Y2589987D01*
X2253894Y2586736D01*
X2250846Y2584399D01*
X2247188Y2583332D01*
X2238146Y2582570D01*
X2228697Y2580030D01*
X2219858Y2575915D01*
X2211832Y2570276D01*
X2204923Y2563368D01*
X2199284Y2555341D01*
X2195169Y2546502D01*
X2192629Y2537053D01*
X2191766Y2527300D01*
X2192629Y2517546D01*
X2195169Y2508097D01*
X2201062Y2495397D01*
X2201164Y2491435D01*
X2199741Y2487777D01*
X2198166Y2485186D01*
X2196236Y2479802D01*
X2195525Y2473553D01*
X2195525Y2392172D01*
X2194763Y2388260D01*
X2192578Y2384958D01*
X2189276Y2382774D01*
X2185365Y2382012D01*
X2181504Y2382774D01*
X2178202Y2384958D01*
X2167585Y2395575D01*
X2165400Y2398826D01*
X2164638Y2402738D01*
X2164638Y2423668D01*
X2163826Y2431694D01*
X2161641Y2438958D01*
X2158085Y2445613D01*
X2153259Y2451455D01*
X2147417Y2456281D01*
X2140762Y2459837D01*
X2133498Y2462022D01*
X2131618Y2462225D01*
X2128062Y2463241D01*
X2125065Y2465527D01*
X2123135Y2468676D01*
X2121763Y2479802D01*
X2119833Y2485186D01*
X2116785Y2490063D01*
X2112772Y2494127D01*
X2107895Y2497175D01*
X2102510Y2499055D01*
X2096211Y2499766D01*
X2068118Y2499766D01*
X2064207Y2500528D01*
X2060905Y2502712D01*
X2058720Y2506014D01*
X2057958Y2509926D01*
X2057958Y3057144D01*
X2057146Y3065170D01*
X2054961Y3072434D01*
X2051405Y3079089D01*
X2046274Y3085338D01*
X1878330Y3253282D01*
X1872081Y3258413D01*
X1865426Y3261969D01*
X1858162Y3264153D01*
X1850136Y3264966D01*
X1632102Y3264966D01*
X1628190Y3265728D01*
X1624939Y3267913D01*
X1539392Y3353460D01*
X1537208Y3356711D01*
X1536395Y3360572D01*
X1537106Y3364382D01*
X1539240Y3367684D01*
X1542440Y3369919D01*
X1562303Y3373120D01*
X1576476Y3377133D01*
X1590040Y3382873D01*
X1602790Y3390239D01*
X1614525Y3399129D01*
X1625092Y3409391D01*
X1634337Y3420872D01*
X1642059Y3433368D01*
X1648256Y3446729D01*
X1652727Y3460800D01*
X1655419Y3475278D01*
X1656334Y3489960D01*
X1655419Y3504641D01*
X1652727Y3519119D01*
X1648256Y3533190D01*
X1642059Y3546551D01*
X1634337Y3559048D01*
X1625092Y3570528D01*
X1614525Y3580790D01*
X1602790Y3589680D01*
X1590040Y3597046D01*
X1576476Y3602786D01*
X1562303Y3606800D01*
X1547723Y3609086D01*
X1532991Y3609543D01*
X1518361Y3608171D01*
X1503984Y3605022D01*
X1490065Y3600094D01*
X1476908Y3593541D01*
X1464614Y3585413D01*
X1454962Y3577132D01*
X1451610Y3575253D01*
X1447850Y3574694D01*
X1444091Y3575608D01*
X1440992Y3577844D01*
X1438910Y3581095D01*
X1438198Y3584854D01*
X1438198Y3654450D01*
X1438960Y3658311D01*
X1441145Y3661562D01*
X1444396Y3663797D01*
X1452880Y3667353D01*
X1465630Y3674719D01*
X1477365Y3683609D01*
X1487932Y3693871D01*
X1497177Y3705351D01*
X1504899Y3717848D01*
X1511096Y3731209D01*
X1515567Y3745280D01*
X1518259Y3759758D01*
X1519174Y3774440D01*
X1518259Y3789121D01*
X1515567Y3803599D01*
X1511096Y3817670D01*
X1504899Y3831031D01*
X1497177Y3843528D01*
X1487932Y3855008D01*
X1477365Y3865270D01*
X1465630Y3874160D01*
X1456283Y3879545D01*
X1453032Y3882491D01*
X1451356Y3886555D01*
X1451559Y3890924D01*
X1453591Y3894836D01*
X1457045Y3897528D01*
X1461363Y3898493D01*
X1612544Y3898798D01*
X1616964Y3897833D01*
X1620469Y3895039D01*
X1621536Y3892905D01*
X1623466Y3895851D01*
X1626768Y3898036D01*
X1630680Y3898849D01*
X1717039Y3899001D01*
X1720900Y3898239D01*
X1724202Y3896055D01*
X1725930Y3893515D01*
X1726946Y3895394D01*
X1730400Y3898087D01*
X1734667Y3899052D01*
X1890572Y3899357D01*
X1894941Y3898392D01*
X1898497Y3895598D01*
X1900478Y3891534D01*
X1900529Y3887063D01*
X1898599Y3882948D01*
X1895093Y3880104D01*
X1890928Y3878021D01*
X1878634Y3869893D01*
X1867458Y3860292D01*
X1857552Y3849420D01*
X1849018Y3837432D01*
X1842058Y3824427D01*
X1836724Y3810711D01*
X1833118Y3796436D01*
X1831339Y3781806D01*
X1831339Y3767074D01*
X1833118Y3752443D01*
X1836724Y3738168D01*
X1842058Y3724452D01*
X1849018Y3711448D01*
X1857552Y3699459D01*
X1867458Y3688587D01*
X1878634Y3678986D01*
X1890928Y3670858D01*
X1904085Y3664305D01*
X1918004Y3659378D01*
X1932381Y3656228D01*
X1947011Y3654856D01*
X1961743Y3655314D01*
X1976323Y3657600D01*
X1990496Y3661613D01*
X2004060Y3667353D01*
X2016810Y3674719D01*
X2028545Y3683609D01*
X2039112Y3693871D01*
X2048357Y3705351D01*
X2056079Y3717848D01*
X2062276Y3731209D01*
X2066747Y3745280D01*
X2069439Y3759758D01*
X2070354Y3774440D01*
X2069439Y3789121D01*
X2066747Y3803599D01*
X2062276Y3817670D01*
X2056079Y3831031D01*
X2048357Y3843528D01*
X2039112Y3855008D01*
X2028545Y3865270D01*
X2016810Y3874160D01*
X2005482Y3880662D01*
X2002282Y3883609D01*
X2000605Y3887673D01*
X2000757Y3892092D01*
X2002789Y3896004D01*
X2006295Y3898646D01*
X2010562Y3899611D01*
X2656027Y3900982D01*
X2659837Y3900220D01*
X2663088Y3898137D01*
X2665323Y3894937D01*
X2666187Y3891178D01*
X2665577Y3887317D01*
X2663596Y3884015D01*
X2660497Y3881678D01*
X2653284Y3878122D01*
X2633421Y3866286D01*
X2614625Y3852875D01*
X2596997Y3837940D01*
X2580640Y3821582D01*
X2565704Y3803954D01*
X2552293Y3785158D01*
X2540457Y3765296D01*
X2530297Y3744518D01*
X2521864Y3722979D01*
X2515311Y3700830D01*
X2510536Y3678224D01*
X2507691Y3655314D01*
X2506726Y3632200D01*
X2507691Y3609086D01*
X2510536Y3586175D01*
X2515311Y3563569D01*
X2521864Y3541420D01*
X2530297Y3519881D01*
X2540457Y3499104D01*
X2552293Y3479241D01*
X2565704Y3460445D01*
X2580640Y3442817D01*
X2596997Y3426460D01*
X2614625Y3411524D01*
X2633421Y3398113D01*
X2653284Y3386277D01*
X2674061Y3376117D01*
X2695600Y3367684D01*
X2717749Y3361131D01*
X2740355Y3356356D01*
X2763266Y3353511D01*
X2786380Y3352546D01*
X2809494Y3353511D01*
X2832404Y3356356D01*
X2855010Y3361131D01*
X2877159Y3367684D01*
X2898698Y3376117D01*
X2919476Y3386277D01*
X2939338Y3398113D01*
X2958134Y3411524D01*
X2975762Y3426460D01*
X2992120Y3442817D01*
X3007055Y3460445D01*
X3020466Y3479241D01*
X3028848Y3493312D01*
X3031845Y3496462D01*
X3035909Y3498087D01*
X3040278Y3497884D01*
X3044139Y3495852D01*
X3046780Y3492347D01*
X3047746Y3488080D01*
X3047746Y3363214D01*
X3046984Y3359302D01*
X3044748Y3356051D01*
X3041497Y3353815D01*
X3037586Y3353054D01*
X2975508Y3353054D01*
X2969107Y3352292D01*
X2963621Y3350209D01*
X2958541Y3346704D01*
X2955493Y3343656D01*
X2952902Y3340100D01*
X2950413Y3334613D01*
X2949244Y3327247D01*
X2949244Y41198D01*
X2948482Y37287D01*
X2946298Y34036D01*
X2943047Y31800D01*
X2939186Y31038D01*
X2245664Y25908D01*
X2241753Y26670D01*
X2238451Y28854D01*
X2236216Y32156D01*
X2235454Y36068D01*
X2235454Y243586D01*
X2236216Y247497D01*
X2238451Y250748D01*
X2241702Y252984D01*
X2245614Y253746D01*
X2386990Y253746D01*
X2393442Y254508D01*
X2398877Y256590D01*
X2403957Y260096D01*
X2407005Y263144D01*
X2409596Y266700D01*
X2412085Y272186D01*
X2413254Y279552D01*
X2413254Y481990D01*
X2412492Y488442D01*
X2410409Y493877D01*
X2406904Y498957D01*
X2403856Y502005D01*
X2400300Y504596D01*
X2394813Y507085D01*
X2387447Y508254D01*
X2245614Y508254D01*
X2241702Y509016D01*
X2238451Y511251D01*
X2236216Y514502D01*
X2235454Y518414D01*
X2235454Y862990D01*
X2234692Y869442D01*
X2232609Y874877D01*
X2229104Y879957D01*
X2226056Y883005D01*
X2222500Y885596D01*
X2217013Y888085D01*
X2209647Y889253D01*
X1932635Y889253D01*
X1928723Y890016D01*
X1925421Y892251D01*
X1923237Y895502D01*
X1922475Y899414D01*
X1923237Y903325D01*
X1925421Y906576D01*
X2145639Y1126794D01*
X2148890Y1128979D01*
X2152802Y1129741D01*
X2377795Y1129741D01*
X2381656Y1128979D01*
X2393899Y1120241D01*
X2402687Y1116126D01*
X2408021Y1114704D01*
X2411882Y1112672D01*
X2414574Y1109218D01*
X2415540Y1104900D01*
X2414574Y1100582D01*
X2411882Y1097127D01*
X2408021Y1095095D01*
X2402687Y1093673D01*
X2393899Y1089558D01*
X2385974Y1084021D01*
X2379116Y1077163D01*
X2373528Y1069187D01*
X2369413Y1060399D01*
X2366924Y1051052D01*
X2366060Y1041400D01*
X2366924Y1031748D01*
X2369413Y1022400D01*
X2373528Y1013612D01*
X2379116Y1005636D01*
X2385974Y998778D01*
X2393899Y993241D01*
X2402687Y989126D01*
X2412034Y986637D01*
X2422144Y985723D01*
X2541270Y985723D01*
X2551379Y986637D01*
X2560726Y989126D01*
X2569514Y993241D01*
X2577439Y998778D01*
X2584297Y1005636D01*
X2588107Y1011123D01*
X2590393Y1013460D01*
X2593238Y1014933D01*
X2596438Y1015441D01*
X2640076Y1015441D01*
X2643987Y1014679D01*
X2647289Y1012494D01*
X2649474Y1009192D01*
X2650236Y1005281D01*
X2650236Y974648D01*
X2650947Y968400D01*
X2652826Y963015D01*
X2655874Y958138D01*
X2659938Y954074D01*
X2664815Y951026D01*
X2670200Y949147D01*
X2676448Y948436D01*
X2835351Y948436D01*
X2841599Y949147D01*
X2846984Y951026D01*
X2851861Y954074D01*
X2855925Y958138D01*
X2858973Y963015D01*
X2860852Y968400D01*
X2861564Y974648D01*
X2861564Y1133551D01*
X2860852Y1139799D01*
X2858973Y1145184D01*
X2855925Y1150061D01*
X2851861Y1154125D01*
X2846984Y1157173D01*
X2841599Y1159052D01*
X2835351Y1159764D01*
X2686761Y1159764D01*
X2682849Y1160526D01*
X2679547Y1162710D01*
X2677363Y1166012D01*
X2676601Y1169924D01*
X2677363Y1173784D01*
X2679547Y1177086D01*
X2709164Y1206652D01*
X2712212Y1208786D01*
X2715869Y1209649D01*
X2719578Y1209090D01*
X2728569Y1206093D01*
X2742133Y1203350D01*
X2755900Y1202486D01*
X2769666Y1203350D01*
X2783230Y1206093D01*
X2796336Y1210513D01*
X2808732Y1216609D01*
X2820212Y1224280D01*
X2830576Y1233424D01*
X2839720Y1243787D01*
X2847390Y1255268D01*
X2853486Y1267663D01*
X2857957Y1280769D01*
X2860649Y1294333D01*
X2861513Y1308100D01*
X2860649Y1321866D01*
X2857957Y1335430D01*
X2853486Y1348536D01*
X2847390Y1360932D01*
X2839720Y1372412D01*
X2830576Y1382776D01*
X2819501Y1392478D01*
X2816910Y1395984D01*
X2816047Y1400302D01*
X2817012Y1404518D01*
X2819908Y1408125D01*
X2909874Y1498092D01*
X2915005Y1504340D01*
X2918561Y1510995D01*
X2920746Y1518259D01*
X2921558Y1526286D01*
X2921558Y1942592D01*
X2920746Y1950618D01*
X2918561Y1957882D01*
X2915005Y1964537D01*
X2909874Y1970786D01*
X2857347Y2023364D01*
X2855214Y2026412D01*
X2854350Y2030069D01*
X2854909Y2033778D01*
X2857957Y2042769D01*
X2860649Y2056333D01*
X2861513Y2070100D01*
X2860649Y2083917D01*
X2857957Y2097430D01*
X2853486Y2110536D01*
X2847390Y2122932D01*
X2839720Y2134412D01*
X2830576Y2144776D01*
X2820212Y2153920D01*
X2808732Y2161590D01*
X2796336Y2167686D01*
X2783230Y2172157D01*
X2769666Y2174849D01*
X2755900Y2175764D01*
X2742133Y2174849D01*
X2728569Y2172157D01*
X2715463Y2167686D01*
X2703068Y2161590D01*
X2691587Y2153920D01*
X2677007Y2141270D01*
X2673096Y2140305D01*
X2669032Y2140915D01*
X2665628Y2143099D01*
X2663291Y2146452D01*
X2662478Y2150414D01*
X2662478Y2171801D01*
X2663240Y2175713D01*
X2665425Y2178964D01*
X2709164Y2222703D01*
X2712262Y2224786D01*
X2715869Y2225649D01*
X2719578Y2225141D01*
X2728569Y2222093D01*
X2742133Y2219401D01*
X2755900Y2218486D01*
X2769666Y2219401D01*
X2783230Y2222093D01*
X2796336Y2226513D01*
X2808732Y2232609D01*
X2820212Y2240280D01*
X2830576Y2249424D01*
X2839720Y2259787D01*
X2847390Y2271268D01*
X2853486Y2283663D01*
X2857957Y2296769D01*
X2860649Y2310333D01*
X2861513Y2324100D01*
X2860649Y2337917D01*
X2857957Y2351430D01*
X2853486Y2364536D01*
X2847390Y2376932D01*
X2839720Y2388412D01*
X2830576Y2398776D01*
X2820212Y2407920D01*
X2808732Y2415590D01*
X2796336Y2421686D01*
X2783230Y2426157D01*
X2769666Y2428849D01*
X2755900Y2429764D01*
X2742133Y2428849D01*
X2728569Y2426157D01*
X2715463Y2421686D01*
X2703068Y2415590D01*
X2691587Y2407920D01*
X2681224Y2398776D01*
X2672080Y2388412D01*
X2664409Y2376932D01*
X2658313Y2364536D01*
X2653842Y2351430D01*
X2651150Y2337917D01*
X2650286Y2324100D01*
X2651150Y2310333D01*
X2653842Y2296769D01*
X2656890Y2287778D01*
X2657449Y2284069D01*
X2656586Y2280412D01*
X2654452Y2277364D01*
X2596845Y2219706D01*
X2591714Y2213457D01*
X2588158Y2206802D01*
X2585974Y2199538D01*
X2585161Y2191512D01*
X2585161Y1860092D01*
X2584348Y1856130D01*
X2582062Y1852777D01*
X2578608Y1850593D01*
X2574594Y1849983D01*
X2570632Y1850948D01*
X2560675Y1855673D01*
X2551379Y1858162D01*
X2541270Y1859076D01*
X2533040Y1859076D01*
X2533040Y1824736D01*
X2569514Y1824736D01*
X2573426Y1823974D01*
X2576728Y1821789D01*
X2578912Y1818487D01*
X2579674Y1814575D01*
X2578912Y1810715D01*
X2576728Y1807413D01*
X2554325Y1785010D01*
X2551023Y1782825D01*
X2547162Y1782064D01*
X2533040Y1782064D01*
X2533040Y1767941D01*
X2532278Y1764080D01*
X2530094Y1760778D01*
X2504338Y1735023D01*
X2501036Y1732838D01*
X2497175Y1732076D01*
X2440533Y1732076D01*
X2436622Y1732838D01*
X2433320Y1735023D01*
X2431135Y1738325D01*
X2430373Y1742236D01*
X2430373Y1782064D01*
X2370531Y1782064D01*
X2373528Y1775612D01*
X2379116Y1767636D01*
X2385974Y1760778D01*
X2393899Y1755241D01*
X2402687Y1751126D01*
X2408021Y1749704D01*
X2411882Y1747672D01*
X2414574Y1744218D01*
X2415540Y1739900D01*
X2414574Y1735582D01*
X2411882Y1732127D01*
X2408021Y1730095D01*
X2402687Y1728673D01*
X2393899Y1724558D01*
X2385974Y1719021D01*
X2379116Y1712163D01*
X2373528Y1704187D01*
X2369413Y1695399D01*
X2366924Y1686052D01*
X2366060Y1676400D01*
X2366924Y1666748D01*
X2369413Y1657400D01*
X2371140Y1653692D01*
X2372106Y1649730D01*
X2371394Y1645666D01*
X2369108Y1642211D01*
X2000402Y1273505D01*
X1997151Y1271320D01*
X1993239Y1270558D01*
X1985619Y1270558D01*
X1982012Y1271219D01*
X1978863Y1273149D01*
X1976577Y1276096D01*
X1975561Y1279652D01*
X1975815Y1283360D01*
X1976475Y1285748D01*
X1977339Y1295400D01*
X1976475Y1305052D01*
X1973986Y1314399D01*
X1969871Y1323187D01*
X1964283Y1331163D01*
X1957425Y1338021D01*
X1949500Y1343558D01*
X1940712Y1347673D01*
X1935378Y1349095D01*
X1931517Y1351127D01*
X1928825Y1354582D01*
X1927860Y1358900D01*
X1928825Y1363218D01*
X1931517Y1366672D01*
X1935378Y1368704D01*
X1940712Y1370126D01*
X1949500Y1374241D01*
X1957425Y1379778D01*
X1964283Y1386636D01*
X1969871Y1394612D01*
X1973986Y1403400D01*
X1976475Y1412748D01*
X1977339Y1422400D01*
X1976475Y1432052D01*
X1973986Y1441399D01*
X1969871Y1450187D01*
X1964283Y1458163D01*
X1957425Y1465021D01*
X1949500Y1470558D01*
X1940712Y1474673D01*
X1935378Y1476095D01*
X1931517Y1478127D01*
X1928825Y1481582D01*
X1927860Y1485900D01*
X1928825Y1490218D01*
X1931517Y1493672D01*
X1935378Y1495704D01*
X1940712Y1497126D01*
X1949500Y1501241D01*
X1957425Y1506778D01*
X1964283Y1513636D01*
X1969871Y1521612D01*
X1973986Y1530400D01*
X1976475Y1539748D01*
X1977339Y1549400D01*
X1976475Y1559052D01*
X1972818Y1572818D01*
X1973529Y1576832D01*
X1975815Y1580286D01*
X2026208Y1630680D01*
X2031339Y1636928D01*
X2034895Y1643583D01*
X2037080Y1650847D01*
X2037892Y1658874D01*
X2037892Y2025497D01*
X2038654Y2029358D01*
X2040839Y2032660D01*
X2042210Y2034032D01*
X2047849Y2042058D01*
X2051964Y2050897D01*
X2054504Y2060346D01*
X2055368Y2070100D01*
X2054504Y2079853D01*
X2051964Y2089302D01*
X2047849Y2098141D01*
X2042210Y2106168D01*
X2035302Y2113076D01*
X2027275Y2118715D01*
X2018436Y2122830D01*
X2008987Y2125370D01*
X1999234Y2126234D01*
X1989480Y2125370D01*
X1980031Y2122830D01*
X1971192Y2118715D01*
X1963166Y2113076D01*
X1956257Y2106168D01*
X1950618Y2098141D01*
X1946503Y2089302D01*
X1943963Y2079853D01*
X1943100Y2070100D01*
X1943963Y2060346D01*
X1946503Y2050897D01*
X1950618Y2042058D01*
X1956257Y2034032D01*
X1957628Y2032660D01*
X1959813Y2029358D01*
X1960575Y2025497D01*
X1960575Y1862328D01*
X1959762Y1858365D01*
X1957476Y1855063D01*
X1954072Y1852879D01*
X1950059Y1852218D01*
X1946148Y1853133D01*
X1940712Y1855673D01*
X1931365Y1858162D01*
X1921256Y1859076D01*
X1910638Y1859076D01*
X1906727Y1859838D01*
X1903425Y1862023D01*
X1901240Y1865325D01*
X1900478Y1869236D01*
X1900478Y2156815D01*
X1901393Y2161032D01*
X1903984Y2164486D01*
X1907844Y2166569D01*
X1912162Y2166874D01*
X1916175Y2165299D01*
X1919224Y2162200D01*
X1921814Y2158136D01*
X1925828Y2154072D01*
X1930704Y2151024D01*
X1936089Y2149144D01*
X1942388Y2148433D01*
X1974189Y2148433D01*
X1974189Y2192731D01*
X1910638Y2192731D01*
X1906727Y2193544D01*
X1903425Y2195728D01*
X1901240Y2199030D01*
X1900478Y2202891D01*
X1900478Y2245309D01*
X1901240Y2249170D01*
X1903425Y2252472D01*
X1906727Y2254656D01*
X1910638Y2255469D01*
X1974189Y2255469D01*
X1974189Y2299766D01*
X1942388Y2299766D01*
X1936089Y2299055D01*
X1930704Y2297176D01*
X1925828Y2294128D01*
X1921814Y2290064D01*
X1919224Y2286000D01*
X1916175Y2282901D01*
X1912162Y2281326D01*
X1907844Y2281631D01*
X1903984Y2283714D01*
X1901393Y2287168D01*
X1900478Y2291384D01*
X1900478Y2303272D01*
X1899666Y2311298D01*
X1897481Y2318562D01*
X1893925Y2325217D01*
X1888794Y2331466D01*
X1696110Y2524150D01*
X1693925Y2527452D01*
X1693164Y2531313D01*
X1693164Y2657551D01*
X1692452Y2663799D01*
X1690573Y2669184D01*
X1687525Y2674061D01*
X1683461Y2678125D01*
X1678584Y2681173D01*
X1673199Y2683052D01*
X1666951Y2683764D01*
X1508048Y2683764D01*
X1501800Y2683052D01*
X1496415Y2681173D01*
X1491538Y2678125D01*
X1487474Y2674061D01*
X1484426Y2669184D01*
X1482547Y2663799D01*
X1481836Y2657551D01*
X1481836Y2498648D01*
X1482547Y2492400D01*
X1484426Y2487015D01*
X1487474Y2482138D01*
X1491538Y2478074D01*
X1496415Y2475026D01*
X1501800Y2473147D01*
X1508048Y2472436D01*
X1634286Y2472436D01*
X1638147Y2471674D01*
X1641449Y2469489D01*
X1820214Y2290724D01*
X1822399Y2287473D01*
X1823161Y2283561D01*
X1823161Y1869236D01*
X1822399Y1865325D01*
X1820214Y1862023D01*
X1816912Y1859838D01*
X1813001Y1859076D01*
X1802130Y1859076D01*
X1792020Y1858162D01*
X1782673Y1855673D01*
X1773885Y1851558D01*
X1765960Y1846021D01*
X1759102Y1839163D01*
X1754124Y1832051D01*
X1750974Y1829155D01*
X1746961Y1827784D01*
X1742744Y1828139D01*
X1739036Y1830273D01*
X1736496Y1833676D01*
X1735632Y1837842D01*
X1735632Y2214118D01*
X1734820Y2222144D01*
X1732635Y2229408D01*
X1729079Y2236063D01*
X1723948Y2242312D01*
X1688947Y2277364D01*
X1686814Y2280412D01*
X1685950Y2284069D01*
X1686509Y2287778D01*
X1689557Y2296769D01*
X1692249Y2310333D01*
X1693113Y2324100D01*
X1692249Y2337866D01*
X1689557Y2351430D01*
X1685086Y2364536D01*
X1678990Y2376932D01*
X1671320Y2388412D01*
X1662175Y2398776D01*
X1651812Y2407920D01*
X1640332Y2415590D01*
X1627936Y2421686D01*
X1614830Y2426106D01*
X1601266Y2428849D01*
X1587500Y2429713D01*
X1573733Y2428849D01*
X1560169Y2426106D01*
X1547977Y2421991D01*
X1543862Y2421483D01*
X1538782Y2423261D01*
X1531518Y2425446D01*
X1523492Y2426258D01*
X1326794Y2426258D01*
X1322882Y2427020D01*
X1319631Y2429205D01*
X1194612Y2554224D01*
X1192428Y2557526D01*
X1191666Y2561386D01*
X1191666Y2655011D01*
X1190955Y2661310D01*
X1189075Y2666695D01*
X1186027Y2671572D01*
X1181963Y2675585D01*
X1177086Y2678633D01*
X1171702Y2680563D01*
X1165453Y2681274D01*
X1066546Y2681274D01*
X1060297Y2680563D01*
X1054912Y2678633D01*
X1050036Y2675585D01*
X1045971Y2671572D01*
X1042924Y2666695D01*
X1041044Y2661310D01*
X1040333Y2655011D01*
X1040333Y2501188D01*
X1041044Y2494889D01*
X1042924Y2489504D01*
X1045971Y2484628D01*
X1050036Y2480614D01*
X1054912Y2477566D01*
X1060297Y2475636D01*
X1066546Y2474925D01*
X1160373Y2474925D01*
X1164234Y2474163D01*
X1167536Y2471978D01*
X1278890Y2360625D01*
X1285138Y2355494D01*
X1291793Y2351938D01*
X1299057Y2349754D01*
X1307084Y2348941D01*
X1472641Y2348941D01*
X1476705Y2348128D01*
X1480058Y2345740D01*
X1482191Y2342184D01*
X1482801Y2338120D01*
X1481886Y2324100D01*
X1482750Y2310333D01*
X1485442Y2296769D01*
X1489913Y2283663D01*
X1496009Y2271268D01*
X1503680Y2259787D01*
X1512824Y2249424D01*
X1523187Y2240280D01*
X1534668Y2232609D01*
X1547063Y2226513D01*
X1560169Y2222042D01*
X1573733Y2219350D01*
X1587500Y2218486D01*
X1601266Y2219350D01*
X1614830Y2222042D01*
X1623822Y2225090D01*
X1627530Y2225649D01*
X1631188Y2224786D01*
X1634286Y2222652D01*
X1655368Y2201570D01*
X1657553Y2198319D01*
X1658315Y2194407D01*
X1658315Y2168550D01*
X1657400Y2164283D01*
X1654759Y2160828D01*
X1650898Y2158796D01*
X1646580Y2158492D01*
X1642516Y2160117D01*
X1640332Y2161590D01*
X1627936Y2167686D01*
X1614830Y2172106D01*
X1601266Y2174798D01*
X1587500Y2175713D01*
X1573733Y2174798D01*
X1560169Y2172106D01*
X1547063Y2167686D01*
X1534668Y2161590D01*
X1523187Y2153920D01*
X1512824Y2144776D01*
X1503680Y2134412D01*
X1496009Y2122932D01*
X1491843Y2114397D01*
X1489608Y2111400D01*
X1486408Y2109419D01*
X1482699Y2108758D01*
X1379118Y2108758D01*
X1375206Y2109520D01*
X1371955Y2111705D01*
X1194612Y2289048D01*
X1192428Y2292350D01*
X1191666Y2296210D01*
X1191666Y2350211D01*
X1190955Y2356510D01*
X1189075Y2361895D01*
X1186027Y2366772D01*
X1181963Y2370785D01*
X1177086Y2373833D01*
X1171702Y2375763D01*
X1165453Y2376474D01*
X1066546Y2376474D01*
X1060297Y2375763D01*
X1054912Y2373833D01*
X1050036Y2370785D01*
X1045971Y2366772D01*
X1042924Y2361895D01*
X1041044Y2356510D01*
X1040333Y2350211D01*
X1040333Y2196388D01*
X1041044Y2190089D01*
X1042924Y2184704D01*
X1045971Y2179828D01*
X1050036Y2175814D01*
X1054912Y2172766D01*
X1060297Y2170836D01*
X1066546Y2170125D01*
X1165453Y2170125D01*
X1171702Y2170836D01*
X1177086Y2172766D01*
X1181963Y2175814D01*
X1186383Y2179116D01*
X1190244Y2179878D01*
X1194155Y2179116D01*
X1197457Y2176881D01*
X1331214Y2043125D01*
X1337462Y2037994D01*
X1344117Y2034438D01*
X1351381Y2032254D01*
X1359408Y2031441D01*
X1482699Y2031441D01*
X1486408Y2030730D01*
X1489557Y2028799D01*
X1491843Y2025802D01*
X1496009Y2017268D01*
X1503680Y2005787D01*
X1512824Y1995424D01*
X1523187Y1986280D01*
X1534668Y1978609D01*
X1547063Y1972513D01*
X1560169Y1968042D01*
X1573733Y1965350D01*
X1587500Y1964436D01*
X1601266Y1965350D01*
X1614830Y1968042D01*
X1627936Y1972513D01*
X1640332Y1978609D01*
X1642516Y1980082D01*
X1646580Y1981657D01*
X1650898Y1981403D01*
X1654759Y1979371D01*
X1657400Y1975866D01*
X1658315Y1971649D01*
X1658315Y1914550D01*
X1657400Y1910283D01*
X1654759Y1906828D01*
X1650898Y1904796D01*
X1646580Y1904492D01*
X1642516Y1906117D01*
X1640332Y1907590D01*
X1627936Y1913686D01*
X1614830Y1918106D01*
X1601266Y1920798D01*
X1587500Y1921713D01*
X1573733Y1920798D01*
X1560169Y1918106D01*
X1547063Y1913686D01*
X1534668Y1907590D01*
X1523187Y1899920D01*
X1512824Y1890775D01*
X1503680Y1880412D01*
X1496009Y1868932D01*
X1491843Y1860397D01*
X1489608Y1857400D01*
X1486408Y1855419D01*
X1482699Y1854758D01*
X1190244Y1854758D01*
X1186332Y1855520D01*
X1183081Y1857705D01*
X1180846Y1861007D01*
X1180084Y1864918D01*
X1180846Y1868779D01*
X1183081Y1872081D01*
X1186027Y1875028D01*
X1189075Y1879904D01*
X1190955Y1885289D01*
X1191666Y1891588D01*
X1191666Y2045411D01*
X1190955Y2051710D01*
X1189075Y2057095D01*
X1186027Y2061972D01*
X1181963Y2065985D01*
X1177086Y2069033D01*
X1171702Y2070963D01*
X1165453Y2071674D01*
X1066546Y2071674D01*
X1060297Y2070963D01*
X1054912Y2069033D01*
X1050036Y2065985D01*
X1045971Y2061972D01*
X1042924Y2057095D01*
X1041044Y2051710D01*
X1040333Y2045411D01*
X1040333Y1891588D01*
X1041044Y1885289D01*
X1042924Y1879904D01*
X1045971Y1875028D01*
X1050036Y1871014D01*
X1054912Y1867966D01*
X1060297Y1866036D01*
X1067917Y1865325D01*
X1071575Y1864664D01*
X1074724Y1862734D01*
X1077010Y1859737D01*
X1078026Y1856181D01*
X1078230Y1854301D01*
X1080414Y1847037D01*
X1083970Y1840382D01*
X1089101Y1834134D01*
X1134110Y1789125D01*
X1139291Y1784857D01*
X1141882Y1781657D01*
X1143000Y1777695D01*
X1142390Y1773580D01*
X1140256Y1770075D01*
X1136904Y1767687D01*
X1132840Y1766874D01*
X1066546Y1766874D01*
X1060297Y1766163D01*
X1054912Y1764233D01*
X1050036Y1761185D01*
X1045971Y1757172D01*
X1042924Y1752295D01*
X1041044Y1746910D01*
X1040333Y1740611D01*
X1040333Y1586788D01*
X1041044Y1580489D01*
X1042924Y1575104D01*
X1045971Y1570228D01*
X1050036Y1566214D01*
X1054912Y1563166D01*
X1060297Y1561236D01*
X1067917Y1560525D01*
X1071575Y1559864D01*
X1074724Y1557934D01*
X1077010Y1554937D01*
X1078026Y1551381D01*
X1078230Y1549501D01*
X1080414Y1542237D01*
X1083970Y1535582D01*
X1088796Y1529740D01*
X1094638Y1524914D01*
X1106170Y1518920D01*
X1108710Y1515516D01*
X1109624Y1511300D01*
X1108710Y1507083D01*
X1106170Y1503680D01*
X1094638Y1497685D01*
X1088796Y1492859D01*
X1083970Y1487017D01*
X1080414Y1480362D01*
X1078230Y1473098D01*
X1078026Y1471218D01*
X1077010Y1467662D01*
X1074724Y1464665D01*
X1071575Y1462735D01*
X1060297Y1461363D01*
X1054912Y1459433D01*
X1050036Y1456385D01*
X1045971Y1452372D01*
X1042924Y1447495D01*
X1041044Y1442110D01*
X1040333Y1435811D01*
X1040333Y1281988D01*
X1041044Y1275689D01*
X1042924Y1270304D01*
X1045971Y1265428D01*
X1050036Y1261414D01*
X1054912Y1258366D01*
X1060297Y1256436D01*
X1066546Y1255725D01*
X1165453Y1255725D01*
X1171702Y1256436D01*
X1177086Y1258366D01*
X1181963Y1261414D01*
X1186027Y1265428D01*
X1189075Y1270304D01*
X1190955Y1275689D01*
X1191666Y1281988D01*
X1191666Y1392834D01*
X1192530Y1396898D01*
X1194917Y1400302D01*
X1198473Y1402435D01*
X1202588Y1402943D01*
X1206601Y1401775D01*
X1211021Y1399438D01*
X1218285Y1397254D01*
X1226312Y1396441D01*
X1502359Y1396441D01*
X1506169Y1395730D01*
X1509369Y1393647D01*
X1511604Y1390497D01*
X1512519Y1386738D01*
X1511960Y1382928D01*
X1509979Y1379575D01*
X1503680Y1372412D01*
X1496009Y1360932D01*
X1489913Y1348536D01*
X1485442Y1335430D01*
X1482750Y1321866D01*
X1481886Y1308100D01*
X1482750Y1294282D01*
X1485442Y1280769D01*
X1489913Y1267663D01*
X1496009Y1255268D01*
X1503680Y1243787D01*
X1512824Y1233424D01*
X1523187Y1224280D01*
X1534668Y1216609D01*
X1547063Y1210513D01*
X1560169Y1206042D01*
X1573733Y1203350D01*
X1587500Y1202436D01*
X1601266Y1203350D01*
X1614830Y1206042D01*
X1623822Y1209090D01*
X1627530Y1209649D01*
X1631188Y1208786D01*
X1634286Y1206652D01*
X1699514Y1141425D01*
X1705762Y1136294D01*
X1712417Y1132738D01*
X1719681Y1130554D01*
X1727707Y1129741D01*
X1757781Y1129741D01*
X1761693Y1128979D01*
X1773885Y1120241D01*
X1782673Y1116126D01*
X1788007Y1114704D01*
X1791868Y1112723D01*
X1794560Y1109268D01*
X1795525Y1105001D01*
X1794611Y1100734D01*
X1792020Y1097229D01*
X1788160Y1095146D01*
X1781302Y1093165D01*
X1778457Y1092758D01*
X1692300Y1092758D01*
X1688592Y1093419D01*
X1685391Y1095400D01*
X1683156Y1098397D01*
X1678990Y1106932D01*
X1671320Y1118412D01*
X1662175Y1128776D01*
X1651812Y1137920D01*
X1640332Y1145590D01*
X1627936Y1151686D01*
X1614830Y1156106D01*
X1601266Y1158798D01*
X1587500Y1159713D01*
X1573733Y1158798D01*
X1560169Y1156106D01*
X1547063Y1151686D01*
X1534668Y1145590D01*
X1523187Y1137920D01*
X1512824Y1128776D01*
X1503680Y1118412D01*
X1496009Y1106932D01*
X1489913Y1094536D01*
X1485442Y1081430D01*
X1482750Y1067866D01*
X1481886Y1054100D01*
X1482750Y1040282D01*
X1485442Y1026769D01*
X1489913Y1013663D01*
X1496009Y1001268D01*
X1503680Y989787D01*
X1512824Y979424D01*
X1523187Y970280D01*
X1534668Y962609D01*
X1547063Y956513D01*
X1560169Y952042D01*
X1573733Y949350D01*
X1587500Y948436D01*
X1601266Y949350D01*
X1614830Y952042D01*
X1627936Y956513D01*
X1640332Y962609D01*
X1651812Y970280D01*
X1662175Y979424D01*
X1671320Y989787D01*
X1678990Y1001268D01*
X1683156Y1009802D01*
X1685442Y1012799D01*
X1688592Y1014730D01*
X1692300Y1015441D01*
X1746961Y1015441D01*
X1750161Y1014933D01*
X1753006Y1013460D01*
X1755292Y1011123D01*
X1759102Y1005636D01*
X1765960Y998778D01*
X1773885Y993241D01*
X1782673Y989126D01*
X1792020Y986637D01*
X1802130Y985723D01*
X1870760Y985723D01*
X1874621Y984961D01*
X1877923Y982776D01*
X1880107Y979474D01*
X1880920Y975563D01*
X1880107Y971702D01*
X1877923Y968400D01*
X1744929Y835406D01*
X1739798Y829157D01*
X1736242Y822502D01*
X1734057Y815238D01*
X1733245Y807212D01*
X1733245Y797915D01*
X1732483Y794004D01*
X1730298Y790752D01*
X1726996Y788517D01*
X1723085Y787755D01*
X1677466Y787755D01*
X1671218Y787044D01*
X1665782Y785164D01*
X1660956Y782116D01*
X1656892Y778052D01*
X1653844Y773226D01*
X1651965Y767791D01*
X1651254Y761542D01*
X1651254Y48514D01*
X1650492Y44602D01*
X1648256Y41351D01*
X1644954Y39116D01*
X1641093Y38354D01*
X1468120Y38354D01*
X1464208Y39116D01*
X1460906Y41351D01*
X1458722Y44602D01*
X1457960Y48514D01*
X1457960Y193243D01*
X1391158Y193243D01*
X1391158Y48514D01*
X1390396Y44602D01*
X1388160Y41351D01*
X1384858Y39116D01*
X1380998Y38354D01*
X1293622Y38354D01*
X1289710Y39116D01*
X1286408Y41351D01*
X1284224Y44602D01*
X1283462Y48514D01*
X1283462Y193243D01*
X1267714Y193243D01*
X1263802Y194005D01*
X1260551Y196240D01*
X1258316Y199542D01*
X1257554Y203403D01*
X1257554Y570788D01*
X1258316Y574700D01*
X1260551Y577951D01*
X1263802Y580186D01*
X1267714Y580948D01*
X1283462Y580948D01*
X1283462Y787755D01*
X1267714Y787755D01*
X1263802Y788517D01*
X1260551Y790752D01*
X1258316Y794004D01*
X1257554Y797915D01*
X1257554Y862990D01*
X1256792Y869442D01*
X1254709Y874877D01*
X1251204Y879957D01*
X1248156Y883005D01*
X1244600Y885596D01*
X1239113Y888085D01*
X1231747Y889253D01*
X902309Y889253D01*
X895858Y888492D01*
X890422Y886409D01*
X885342Y882903D01*
X882294Y879856D01*
X879703Y876300D01*
X877214Y870813D01*
X876046Y863447D01*
X876046Y518414D01*
X875284Y514502D01*
X873048Y511251D01*
X869797Y509016D01*
X865886Y508254D01*
X711809Y508254D01*
X705358Y507492D01*
X699922Y505409D01*
X694842Y501904D01*
X691794Y498856D01*
X689203Y495300D01*
X686714Y489813D01*
X685546Y482447D01*
X685546Y280009D01*
X686308Y273558D01*
X688390Y268122D01*
X691896Y263042D01*
X694944Y259994D01*
X698500Y257403D01*
X703986Y254914D01*
X711352Y253746D01*
X865886Y253746D01*
X869797Y252984D01*
X873048Y250748D01*
X875284Y247497D01*
X876046Y243586D01*
X876046Y35814D01*
X875284Y31902D01*
X873048Y28651D01*
X869797Y26416D01*
X865886Y25654D01*
G37*

%LPC*%
G36*
X1391158Y580948D02*
G01*
X1457960Y580948D01*
X1457960Y761542D01*
X1457248Y767791D01*
X1455369Y773226D01*
X1452321Y778052D01*
X1448257Y782116D01*
X1443380Y785164D01*
X1437995Y787044D01*
X1431747Y787755D01*
X1391158Y787755D01*
G37*
G36*
X444042Y974648D02*
G01*
X567893Y974648D01*
X574141Y975360D01*
X579577Y977239D01*
X584403Y980287D01*
X588467Y984351D01*
X591515Y989177D01*
X593801Y993546D01*
X596798Y995883D01*
X600456Y997000D01*
X605180Y997458D01*
X612444Y999642D01*
X619099Y1003198D01*
X625348Y1008329D01*
X827633Y1210614D01*
X830884Y1212799D01*
X834796Y1213561D01*
X915416Y1213561D01*
X923442Y1214374D01*
X930706Y1216558D01*
X937361Y1220114D01*
X943203Y1224940D01*
X948029Y1230782D01*
X951585Y1237437D01*
X953769Y1244701D01*
X953973Y1246581D01*
X954989Y1250137D01*
X957275Y1253134D01*
X960424Y1255064D01*
X971702Y1256436D01*
X977087Y1258366D01*
X981964Y1261414D01*
X986028Y1265428D01*
X989076Y1270304D01*
X990955Y1275689D01*
X991666Y1281988D01*
X991666Y1435811D01*
X990955Y1442110D01*
X989076Y1447495D01*
X986028Y1452372D01*
X981964Y1456385D01*
X977087Y1459433D01*
X971702Y1461363D01*
X965453Y1462074D01*
X866546Y1462074D01*
X860298Y1461363D01*
X854913Y1459433D01*
X850036Y1456385D01*
X845972Y1452372D01*
X842924Y1447495D01*
X841044Y1442110D01*
X840333Y1435811D01*
X840333Y1301038D01*
X839571Y1297127D01*
X837387Y1293825D01*
X834085Y1291640D01*
X830173Y1290878D01*
X815086Y1290878D01*
X807059Y1290066D01*
X799795Y1287881D01*
X793140Y1284325D01*
X786892Y1279194D01*
X598373Y1090726D01*
X595579Y1088694D01*
X592277Y1087780D01*
X588822Y1088034D01*
X585673Y1089355D01*
X579475Y1093368D01*
X574141Y1095248D01*
X567893Y1095959D01*
X444042Y1095959D01*
X437794Y1095248D01*
X432358Y1093368D01*
X427532Y1090320D01*
X423468Y1086256D01*
X420420Y1081430D01*
X418541Y1075994D01*
X417830Y1069746D01*
X417830Y1000861D01*
X418541Y994613D01*
X420420Y989177D01*
X423468Y984351D01*
X427532Y980287D01*
X432358Y977239D01*
X437794Y975360D01*
G37*
G36*
X543560Y1164640D02*
G01*
X567893Y1164640D01*
X574141Y1165352D01*
X579577Y1167231D01*
X584403Y1170279D01*
X588467Y1174343D01*
X591515Y1179169D01*
X593394Y1184605D01*
X594106Y1190853D01*
X594106Y1201470D01*
X543560Y1201470D01*
G37*
G36*
X444042Y1164640D02*
G01*
X468376Y1164640D01*
X468376Y1201470D01*
X417830Y1201470D01*
X417830Y1190853D01*
X418541Y1184605D01*
X420420Y1179169D01*
X423468Y1174343D01*
X427532Y1170279D01*
X432358Y1167231D01*
X437794Y1165352D01*
G37*
G36*
X543560Y1249121D02*
G01*
X594106Y1249121D01*
X594106Y1259738D01*
X593394Y1265986D01*
X591515Y1271422D01*
X588467Y1276248D01*
X584403Y1280312D01*
X579577Y1283360D01*
X574141Y1285240D01*
X567893Y1285951D01*
X543560Y1285951D01*
G37*
G36*
X417830Y1249121D02*
G01*
X468376Y1249121D01*
X468376Y1285951D01*
X444042Y1285951D01*
X437794Y1285240D01*
X432358Y1283360D01*
X427532Y1280312D01*
X423468Y1276248D01*
X420420Y1271422D01*
X418541Y1265986D01*
X417830Y1259738D01*
G37*
G36*
X444042Y1342948D02*
G01*
X567893Y1342948D01*
X574141Y1343660D01*
X579577Y1345539D01*
X584403Y1348587D01*
X588467Y1352651D01*
X591515Y1357477D01*
X593394Y1362913D01*
X594106Y1369161D01*
X594106Y1433931D01*
X594868Y1437792D01*
X597052Y1441094D01*
X762508Y1609293D01*
X765810Y1611579D01*
X769772Y1612341D01*
X830173Y1612341D01*
X834085Y1611579D01*
X837387Y1609394D01*
X839571Y1606092D01*
X840333Y1602181D01*
X840333Y1586788D01*
X841044Y1580489D01*
X842924Y1575104D01*
X845972Y1570228D01*
X850036Y1566214D01*
X854913Y1563166D01*
X860298Y1561236D01*
X866546Y1560525D01*
X965453Y1560525D01*
X971702Y1561236D01*
X977087Y1563166D01*
X981964Y1566214D01*
X986028Y1570228D01*
X989076Y1575104D01*
X990955Y1580489D01*
X991666Y1586788D01*
X991666Y1740611D01*
X990955Y1746910D01*
X989076Y1752295D01*
X986028Y1757172D01*
X981964Y1761185D01*
X977087Y1764233D01*
X971702Y1766163D01*
X965453Y1766874D01*
X866546Y1766874D01*
X860298Y1766163D01*
X854913Y1764233D01*
X850036Y1761185D01*
X845972Y1757172D01*
X842924Y1752295D01*
X841044Y1746910D01*
X840333Y1740611D01*
X840333Y1699818D01*
X839571Y1695907D01*
X837387Y1692605D01*
X834085Y1690420D01*
X830173Y1689658D01*
X749808Y1689658D01*
X741781Y1688846D01*
X734517Y1686661D01*
X727862Y1683105D01*
X721360Y1677720D01*
X611530Y1566062D01*
X608126Y1563776D01*
X604113Y1563014D01*
X600151Y1563878D01*
X596849Y1566265D01*
X594715Y1569770D01*
X543560Y1569770D01*
X543560Y1532940D01*
X554736Y1532940D01*
X558596Y1532178D01*
X561898Y1529994D01*
X564083Y1526692D01*
X564896Y1522831D01*
X564134Y1518970D01*
X561949Y1515668D01*
X514400Y1467307D01*
X511098Y1465072D01*
X507136Y1464259D01*
X444042Y1464259D01*
X437794Y1463548D01*
X432358Y1461668D01*
X427532Y1458620D01*
X423468Y1454556D01*
X420420Y1449730D01*
X418541Y1444294D01*
X417830Y1438046D01*
X417830Y1369161D01*
X418541Y1362913D01*
X420420Y1357477D01*
X423468Y1352651D01*
X427532Y1348587D01*
X432358Y1345539D01*
X437794Y1343660D01*
G37*
G36*
X444042Y1532940D02*
G01*
X468376Y1532940D01*
X468376Y1569770D01*
X417830Y1569770D01*
X417830Y1559153D01*
X418541Y1552905D01*
X420420Y1547469D01*
X423468Y1542643D01*
X427532Y1538579D01*
X432358Y1535531D01*
X437794Y1533652D01*
G37*
G36*
X543560Y1617421D02*
G01*
X594106Y1617421D01*
X594106Y1628038D01*
X593394Y1634286D01*
X591515Y1639722D01*
X588467Y1644548D01*
X584403Y1648612D01*
X579577Y1651660D01*
X574141Y1653539D01*
X567893Y1654251D01*
X543560Y1654251D01*
G37*
G36*
X417830Y1617421D02*
G01*
X468376Y1617421D01*
X468376Y1654251D01*
X444042Y1654251D01*
X437794Y1653539D01*
X432358Y1651660D01*
X427532Y1648612D01*
X423468Y1644548D01*
X420420Y1639722D01*
X418795Y1635048D01*
X416814Y1631696D01*
X415594Y1630730D01*
X416966Y1628800D01*
X417830Y1624736D01*
G37*
G36*
X444042Y1698548D02*
G01*
X567893Y1698548D01*
X574141Y1699260D01*
X579577Y1701139D01*
X584403Y1704187D01*
X588467Y1708251D01*
X591515Y1713077D01*
X593801Y1717446D01*
X596798Y1719783D01*
X600456Y1720900D01*
X605180Y1721357D01*
X612444Y1723542D01*
X619099Y1727098D01*
X625348Y1732229D01*
X713333Y1820214D01*
X716584Y1822399D01*
X720496Y1823161D01*
X915416Y1823161D01*
X923442Y1823974D01*
X930706Y1826158D01*
X937361Y1829714D01*
X943203Y1834540D01*
X948029Y1840382D01*
X951585Y1847037D01*
X953769Y1854301D01*
X953973Y1856181D01*
X954989Y1859737D01*
X957275Y1862734D01*
X960424Y1864664D01*
X971702Y1866036D01*
X977087Y1867966D01*
X981964Y1871014D01*
X986028Y1875028D01*
X989076Y1879904D01*
X990955Y1885289D01*
X991666Y1891588D01*
X991666Y2045411D01*
X990955Y2051710D01*
X989076Y2057095D01*
X986028Y2061972D01*
X981964Y2065985D01*
X977087Y2069033D01*
X971702Y2070963D01*
X965453Y2071674D01*
X866546Y2071674D01*
X860298Y2070963D01*
X854913Y2069033D01*
X850036Y2065985D01*
X845972Y2061972D01*
X842924Y2057095D01*
X841044Y2051710D01*
X840333Y2045411D01*
X840333Y1910638D01*
X839571Y1906727D01*
X837387Y1903425D01*
X834085Y1901240D01*
X830173Y1900478D01*
X700786Y1900478D01*
X692759Y1899666D01*
X685495Y1897481D01*
X678840Y1893925D01*
X672592Y1888794D01*
X598373Y1814626D01*
X595579Y1812594D01*
X592277Y1811680D01*
X588822Y1811934D01*
X585673Y1813255D01*
X579475Y1817268D01*
X574141Y1819148D01*
X567893Y1819859D01*
X444042Y1819859D01*
X437794Y1819148D01*
X432358Y1817268D01*
X427532Y1814220D01*
X423468Y1810156D01*
X420420Y1805330D01*
X418541Y1799894D01*
X417830Y1793646D01*
X417830Y1724761D01*
X418541Y1718513D01*
X420420Y1713077D01*
X423468Y1708251D01*
X427532Y1704187D01*
X432358Y1701139D01*
X437794Y1699260D01*
G37*
G36*
X2370531Y1824736D02*
G01*
X2430373Y1824736D01*
X2430373Y1859076D01*
X2422144Y1859076D01*
X2412034Y1858162D01*
X2402687Y1855673D01*
X2393899Y1851558D01*
X2385974Y1846021D01*
X2379116Y1839163D01*
X2373528Y1831187D01*
G37*
G36*
X444042Y1888540D02*
G01*
X468376Y1888540D01*
X468376Y1925370D01*
X417830Y1925370D01*
X417830Y1914753D01*
X418541Y1908505D01*
X420420Y1903069D01*
X423468Y1898243D01*
X427532Y1894179D01*
X432358Y1891131D01*
X437794Y1889252D01*
G37*
G36*
X543560Y1888540D02*
G01*
X567893Y1888540D01*
X574141Y1889252D01*
X579577Y1891131D01*
X584403Y1894179D01*
X588467Y1898243D01*
X591515Y1903069D01*
X593394Y1908505D01*
X594106Y1914753D01*
X594106Y1925370D01*
X543560Y1925370D01*
G37*
G36*
X543560Y1973021D02*
G01*
X594106Y1973021D01*
X594106Y1983638D01*
X593394Y1989886D01*
X591515Y1995322D01*
X588467Y2000148D01*
X584403Y2004212D01*
X579577Y2007260D01*
X574141Y2009139D01*
X567893Y2009851D01*
X543560Y2009851D01*
G37*
G36*
X417830Y1973021D02*
G01*
X468376Y1973021D01*
X468376Y2009851D01*
X444042Y2009851D01*
X437794Y2009139D01*
X432358Y2007260D01*
X427532Y2004212D01*
X423468Y2000148D01*
X420420Y1995322D01*
X418541Y1989886D01*
X417830Y1983638D01*
G37*
G36*
X2221788Y2148433D02*
G01*
X2253589Y2148433D01*
X2253589Y2192731D01*
X2195525Y2192731D01*
X2195525Y2174646D01*
X2196236Y2168398D01*
X2198166Y2163013D01*
X2201214Y2158136D01*
X2205228Y2154072D01*
X2210104Y2151024D01*
X2215489Y2149144D01*
G37*
G36*
X2343810Y2148433D02*
G01*
X2375611Y2148433D01*
X2381910Y2149144D01*
X2387295Y2151024D01*
X2392172Y2154072D01*
X2396185Y2158136D01*
X2399233Y2163013D01*
X2401163Y2168398D01*
X2401874Y2174646D01*
X2401874Y2192731D01*
X2343810Y2192731D01*
G37*
G36*
X2064410Y2148433D02*
G01*
X2096211Y2148433D01*
X2102510Y2149144D01*
X2107895Y2151024D01*
X2112772Y2154072D01*
X2116785Y2158136D01*
X2119833Y2163013D01*
X2121763Y2168398D01*
X2122474Y2174646D01*
X2122474Y2192731D01*
X2064410Y2192731D01*
G37*
G36*
X444042Y2244140D02*
G01*
X468376Y2244140D01*
X468376Y2280970D01*
X417830Y2280970D01*
X417830Y2270353D01*
X418541Y2264105D01*
X420420Y2258669D01*
X423468Y2253843D01*
X427532Y2249779D01*
X432358Y2246731D01*
X437794Y2244852D01*
G37*
G36*
X543560Y2244140D02*
G01*
X567893Y2244140D01*
X574141Y2244852D01*
X579577Y2246731D01*
X584403Y2249779D01*
X588467Y2253843D01*
X591515Y2258669D01*
X593394Y2264105D01*
X594106Y2270353D01*
X594106Y2280970D01*
X543560Y2280970D01*
G37*
G36*
X2064410Y2255469D02*
G01*
X2122474Y2255469D01*
X2122474Y2273554D01*
X2121763Y2279802D01*
X2119833Y2285187D01*
X2116785Y2290064D01*
X2112772Y2294128D01*
X2107895Y2297176D01*
X2102510Y2299055D01*
X2096211Y2299766D01*
X2064410Y2299766D01*
G37*
G36*
X417830Y2328621D02*
G01*
X468376Y2328621D01*
X468376Y2365451D01*
X444042Y2365451D01*
X437794Y2364740D01*
X432358Y2362860D01*
X427532Y2359812D01*
X423468Y2355748D01*
X420420Y2350922D01*
X418541Y2345486D01*
X417830Y2339238D01*
G37*
G36*
X543560Y2328621D02*
G01*
X594106Y2328621D01*
X594106Y2339238D01*
X593394Y2345486D01*
X591515Y2350922D01*
X588467Y2355748D01*
X584403Y2359812D01*
X579577Y2362860D01*
X574141Y2364740D01*
X567893Y2365451D01*
X543560Y2365451D01*
G37*
G36*
X444042Y2397048D02*
G01*
X567893Y2397048D01*
X574141Y2397760D01*
X579577Y2399639D01*
X584403Y2402687D01*
X588467Y2406751D01*
X591515Y2411577D01*
X593801Y2415946D01*
X596798Y2418283D01*
X600456Y2419400D01*
X605180Y2419858D01*
X612444Y2422042D01*
X619099Y2425598D01*
X625043Y2430475D01*
X628040Y2432151D01*
X631494Y2432761D01*
X915416Y2432761D01*
X923442Y2433574D01*
X930706Y2435758D01*
X937361Y2439314D01*
X943203Y2444140D01*
X948029Y2449982D01*
X951585Y2456637D01*
X953769Y2463901D01*
X953973Y2465781D01*
X954989Y2469337D01*
X957275Y2472334D01*
X960424Y2474264D01*
X971702Y2475636D01*
X977087Y2477566D01*
X981964Y2480614D01*
X986028Y2484628D01*
X989076Y2489504D01*
X990955Y2494889D01*
X991666Y2501188D01*
X991666Y2655011D01*
X990955Y2661310D01*
X989076Y2666695D01*
X986028Y2671572D01*
X981964Y2675585D01*
X977087Y2678633D01*
X971702Y2680563D01*
X965453Y2681274D01*
X866546Y2681274D01*
X860298Y2680563D01*
X854913Y2678633D01*
X850036Y2675585D01*
X845972Y2671572D01*
X842924Y2666695D01*
X841044Y2661310D01*
X840333Y2655011D01*
X840333Y2520238D01*
X839571Y2516327D01*
X837387Y2513025D01*
X834085Y2510840D01*
X830173Y2510078D01*
X611886Y2510078D01*
X603859Y2509266D01*
X597408Y2507335D01*
X593801Y2506929D01*
X590245Y2507792D01*
X587248Y2509875D01*
X584403Y2512720D01*
X579577Y2515768D01*
X574141Y2517648D01*
X567893Y2518359D01*
X444042Y2518359D01*
X437794Y2517648D01*
X432358Y2515768D01*
X427532Y2512720D01*
X423468Y2508656D01*
X420420Y2503830D01*
X418541Y2498394D01*
X417830Y2492146D01*
X417830Y2423261D01*
X418541Y2417013D01*
X420420Y2411577D01*
X423468Y2406751D01*
X427532Y2402687D01*
X432358Y2399639D01*
X437794Y2397760D01*
G37*
G36*
X2802229Y2483459D02*
G01*
X2808732Y2486609D01*
X2820212Y2494280D01*
X2830576Y2503424D01*
X2839720Y2513787D01*
X2847390Y2525268D01*
X2850591Y2531770D01*
X2802229Y2531770D01*
G37*
G36*
X2709570Y2483459D02*
G01*
X2709570Y2531770D01*
X2661208Y2531770D01*
X2664409Y2525268D01*
X2672080Y2513787D01*
X2681224Y2503424D01*
X2691587Y2494280D01*
X2703068Y2486609D01*
G37*
G36*
X543560Y2587040D02*
G01*
X567893Y2587040D01*
X574141Y2587752D01*
X579577Y2589631D01*
X584403Y2592679D01*
X588467Y2596743D01*
X591515Y2601569D01*
X593394Y2607005D01*
X594106Y2613253D01*
X594106Y2623870D01*
X543560Y2623870D01*
G37*
G36*
X444042Y2587040D02*
G01*
X468376Y2587040D01*
X468376Y2623870D01*
X418033Y2623870D01*
X417830Y2623616D01*
X417830Y2613253D01*
X418541Y2607005D01*
X420420Y2601569D01*
X423468Y2596743D01*
X427532Y2592679D01*
X432358Y2589631D01*
X437794Y2587752D01*
G37*
G36*
X2661208Y2624480D02*
G01*
X2709570Y2624480D01*
X2709570Y2672791D01*
X2703068Y2669590D01*
X2691587Y2661920D01*
X2681224Y2652776D01*
X2672080Y2642412D01*
X2664409Y2630932D01*
G37*
G36*
X2802229Y2624480D02*
G01*
X2850591Y2624480D01*
X2847390Y2630932D01*
X2839720Y2642412D01*
X2830576Y2652776D01*
X2820212Y2661920D01*
X2808732Y2669590D01*
X2802229Y2672791D01*
G37*
G36*
X543560Y2671521D02*
G01*
X594106Y2671521D01*
X594106Y2682138D01*
X593394Y2688386D01*
X591515Y2693822D01*
X588467Y2698648D01*
X584403Y2702712D01*
X579577Y2705760D01*
X574141Y2707640D01*
X567893Y2708351D01*
X543560Y2708351D01*
G37*
G36*
X1729028Y2708656D02*
G01*
X1776120Y2708656D01*
X1776120Y2815590D01*
X1702816Y2815590D01*
X1702816Y2734868D01*
X1703527Y2728620D01*
X1705406Y2723184D01*
X1708454Y2718358D01*
X1712518Y2714294D01*
X1717344Y2711246D01*
X1722780Y2709367D01*
G37*
G36*
X2348788Y2829306D02*
G01*
X2395880Y2829306D01*
X2395880Y2875889D01*
X2322576Y2875889D01*
X2322576Y2855518D01*
X2323287Y2849270D01*
X2325166Y2843834D01*
X2328214Y2839008D01*
X2332278Y2834944D01*
X2337104Y2831896D01*
X2342540Y2830017D01*
G37*
G36*
X2516530Y2829306D02*
G01*
X2563571Y2829306D01*
X2569819Y2830017D01*
X2575255Y2831896D01*
X2580081Y2834944D01*
X2584145Y2839008D01*
X2587193Y2843834D01*
X2589072Y2849270D01*
X2589784Y2855518D01*
X2589784Y2875889D01*
X2516530Y2875889D01*
G37*
G36*
X1464056Y2924708D02*
G01*
X1478178Y2926080D01*
X1491996Y2929229D01*
X1505305Y2934157D01*
X1517853Y2940710D01*
X1529486Y2948787D01*
X1539951Y2958338D01*
X1549146Y2969107D01*
X1556918Y2980994D01*
X1563065Y2993796D01*
X1567535Y3007258D01*
X1570228Y3021177D01*
X1571142Y3035300D01*
X1570228Y3049422D01*
X1567535Y3063341D01*
X1563065Y3076803D01*
X1556918Y3089605D01*
X1549146Y3101492D01*
X1539951Y3112262D01*
X1529486Y3121812D01*
X1517853Y3129889D01*
X1505305Y3136442D01*
X1491996Y3141370D01*
X1478178Y3144520D01*
X1464056Y3145891D01*
X1449882Y3145434D01*
X1435862Y3143148D01*
X1422298Y3139135D01*
X1409344Y3133394D01*
X1397203Y3126028D01*
X1386128Y3117189D01*
X1376273Y3107029D01*
X1367790Y3095650D01*
X1360830Y3083306D01*
X1355496Y3070148D01*
X1351889Y3056432D01*
X1350111Y3042412D01*
X1350111Y3028188D01*
X1351889Y3014167D01*
X1355496Y3000451D01*
X1360830Y2987294D01*
X1367790Y2974949D01*
X1376273Y2963570D01*
X1386128Y2953410D01*
X1397203Y2944571D01*
X1409344Y2937205D01*
X1422298Y2931464D01*
X1435862Y2927451D01*
X1449882Y2925165D01*
G37*
G36*
X1122070Y2930906D02*
G01*
X1290929Y2930906D01*
X1297178Y2931617D01*
X1302613Y2933496D01*
X1307439Y2936544D01*
X1311503Y2940608D01*
X1314551Y2945434D01*
X1316431Y2950870D01*
X1317142Y2957118D01*
X1317142Y3113481D01*
X1316431Y3119729D01*
X1314551Y3125165D01*
X1311503Y3129991D01*
X1307439Y3134055D01*
X1302613Y3137103D01*
X1297178Y3138982D01*
X1290929Y3139694D01*
X1122070Y3139694D01*
X1115822Y3138982D01*
X1110386Y3137103D01*
X1105560Y3134055D01*
X1101496Y3129991D01*
X1098448Y3125165D01*
X1096568Y3119729D01*
X1095857Y3113481D01*
X1095857Y2957118D01*
X1096568Y2950870D01*
X1098448Y2945434D01*
X1101496Y2940608D01*
X1105560Y2936544D01*
X1110386Y2933496D01*
X1115822Y2931617D01*
G37*
G36*
X2322576Y2943199D02*
G01*
X2395880Y2943199D01*
X2395880Y2989834D01*
X2348788Y2989834D01*
X2342540Y2989122D01*
X2337104Y2987243D01*
X2332278Y2984195D01*
X2328214Y2980131D01*
X2325166Y2975305D01*
X2323287Y2969869D01*
X2322576Y2963621D01*
G37*
G36*
X2516530Y2943199D02*
G01*
X2589784Y2943199D01*
X2589784Y2963621D01*
X2589072Y2969869D01*
X2587193Y2975305D01*
X2584145Y2980131D01*
X2580081Y2984195D01*
X2575255Y2987243D01*
X2569819Y2989122D01*
X2563571Y2989834D01*
X2516530Y2989834D01*
G37*
G36*
X1702816Y3003550D02*
G01*
X1776120Y3003550D01*
X1776120Y3110484D01*
X1729028Y3110484D01*
X1722780Y3109772D01*
X1717344Y3107893D01*
X1712518Y3104845D01*
X1708454Y3100781D01*
X1705406Y3095955D01*
X1703527Y3090519D01*
X1702816Y3084271D01*
G37*
G36*
X1809851Y3370376D02*
G01*
X1824583Y3370834D01*
X1839163Y3373120D01*
X1853336Y3377133D01*
X1866900Y3382873D01*
X1879650Y3390239D01*
X1891385Y3399129D01*
X1901952Y3409391D01*
X1911197Y3420872D01*
X1918919Y3433368D01*
X1925116Y3446729D01*
X1929587Y3460800D01*
X1932279Y3475278D01*
X1933193Y3489960D01*
X1932279Y3504641D01*
X1929587Y3519119D01*
X1925116Y3533190D01*
X1918919Y3546551D01*
X1911197Y3559048D01*
X1901952Y3570528D01*
X1891385Y3580790D01*
X1879650Y3589680D01*
X1866900Y3597046D01*
X1853336Y3602786D01*
X1839163Y3606800D01*
X1824583Y3609086D01*
X1809851Y3609543D01*
X1795221Y3608171D01*
X1780844Y3605022D01*
X1766925Y3600094D01*
X1753768Y3593541D01*
X1741474Y3585413D01*
X1730298Y3575812D01*
X1720392Y3564940D01*
X1711858Y3552951D01*
X1704898Y3539947D01*
X1699564Y3526231D01*
X1695957Y3511956D01*
X1694180Y3497326D01*
X1694180Y3482594D01*
X1695957Y3467963D01*
X1699564Y3453688D01*
X1704898Y3439972D01*
X1711858Y3426968D01*
X1720392Y3414979D01*
X1730298Y3404108D01*
X1741474Y3394506D01*
X1753768Y3386378D01*
X1766925Y3379825D01*
X1780844Y3374898D01*
X1795221Y3371748D01*
G37*
G36*
X2086711Y3370376D02*
G01*
X2101443Y3370834D01*
X2116023Y3373120D01*
X2130196Y3377133D01*
X2143760Y3382873D01*
X2156510Y3390239D01*
X2168245Y3399129D01*
X2178812Y3409391D01*
X2188057Y3420872D01*
X2195779Y3433368D01*
X2201976Y3446729D01*
X2206447Y3460800D01*
X2209139Y3475278D01*
X2210054Y3489960D01*
X2209139Y3504641D01*
X2206447Y3519119D01*
X2201976Y3533190D01*
X2195779Y3546551D01*
X2188057Y3559048D01*
X2178812Y3570528D01*
X2168245Y3580790D01*
X2156510Y3589680D01*
X2143760Y3597046D01*
X2130196Y3602786D01*
X2116023Y3606800D01*
X2101443Y3609086D01*
X2086711Y3609543D01*
X2072081Y3608171D01*
X2057704Y3605022D01*
X2043785Y3600094D01*
X2030628Y3593541D01*
X2018334Y3585413D01*
X2007158Y3575812D01*
X1997252Y3564940D01*
X1988718Y3552951D01*
X1981758Y3539947D01*
X1976424Y3526231D01*
X1972818Y3511956D01*
X1971039Y3497326D01*
X1971039Y3482594D01*
X1972818Y3467963D01*
X1976424Y3453688D01*
X1981758Y3439972D01*
X1988718Y3426968D01*
X1997252Y3414979D01*
X2007158Y3404108D01*
X2018334Y3394506D01*
X2030628Y3386378D01*
X2043785Y3379825D01*
X2057704Y3374898D01*
X2072081Y3371748D01*
G37*
G36*
X1727200Y3667353D02*
G01*
X1739950Y3674719D01*
X1751685Y3683609D01*
X1762252Y3693871D01*
X1771497Y3705351D01*
X1779219Y3717848D01*
X1780743Y3721100D01*
X1727200Y3721100D01*
G37*
G36*
X1620520Y3667607D02*
G01*
X1620520Y3721100D01*
X1566976Y3721100D01*
X1572158Y3711448D01*
X1580692Y3699459D01*
X1590598Y3688587D01*
X1601774Y3678986D01*
X1614068Y3670858D01*
G37*
G36*
X1727200Y3827779D02*
G01*
X1780743Y3827779D01*
X1779219Y3831031D01*
X1771497Y3843528D01*
X1762252Y3855008D01*
X1751685Y3865270D01*
X1739950Y3874160D01*
X1729638Y3880104D01*
X1727200Y3882339D01*
G37*
G36*
X1566976Y3827779D02*
G01*
X1620520Y3827779D01*
X1620520Y3882339D01*
X1617116Y3879545D01*
X1614068Y3878021D01*
X1601774Y3869893D01*
X1590598Y3860292D01*
X1580692Y3849420D01*
X1572158Y3837432D01*
G37*

%LPD*%
D11*
X2481834Y1549400D02*
G01*
X2464815Y1549400D01*
X2348991Y1433321D01*
X2348991Y1272286D01*
X2389124Y1231900D01*
X2567686Y1231900D01*
X2618993Y1283207D01*
X2618993Y1335023D01*
X2719070Y1435100D01*
X2792222Y1435100D01*
X2882900Y1525778D01*
X2882900Y1943100D01*
X2755900Y2070100D01*
X915923Y1861820D02*
G01*
X700278Y1861820D01*
X597662Y1759204D01*
X1587500Y2578100D02*
G01*
X1861820Y2303779D01*
X1861820Y1803400D01*
X164337Y1130300D02*
G01*
X152400Y1142237D01*
X152400Y2896615D01*
X1030223Y3774439D01*
X1122679Y3774439D01*
X915923Y1651000D02*
G01*
X749300Y1651000D01*
X505968Y1403604D01*
X1587500Y2324100D02*
G01*
X1524000Y2387600D01*
X1306576Y2387600D01*
X1116076Y2578100D01*
X1337310Y387095D02*
G01*
X1337310Y935989D01*
X1016000Y1257300D01*
X1016000Y1460500D01*
X977900Y1498600D01*
X825500Y1498600D01*
X597662Y1270762D01*
X597662Y1225295D01*
X1587500Y2070100D02*
G01*
X1358900Y2070100D01*
X1155700Y2273300D01*
X1116076Y2273300D01*
X1259839Y3489960D02*
G01*
X770889Y3001010D01*
X716026Y3001010D01*
X347726Y2632710D01*
X347726Y2291079D01*
X256031Y2209800D02*
G01*
X347726Y2291079D01*
X256031Y1854200D02*
G01*
X342900Y2082800D01*
X256031Y1498600D02*
G01*
X342900Y1638300D01*
X1587500Y1557020D02*
G01*
X1116076Y1557020D01*
X1116076Y1663700D02*
G01*
X1116076Y1557020D01*
X2593340Y2909570D02*
G01*
X2679700Y2997200D01*
X2679700Y3187700D01*
X2235200Y3632200D01*
X1816100Y3632200D01*
X1673860Y3774439D01*
X2019300Y2424176D02*
G01*
X2019300Y3057652D01*
X1850643Y3226307D01*
X1611884Y3226307D01*
X1399539Y3438652D01*
X1399539Y3774439D01*
X2319020Y3138170D02*
G01*
X2235200Y3060700D01*
X2235200Y2673604D01*
X2405379Y2503423D01*
X2405379Y2424176D01*
X2456179Y2678429D02*
G01*
X2456179Y2379979D01*
X2400300Y2324100D01*
X2184400Y2324100D01*
X2125979Y2382520D01*
X2125979Y2424176D01*
X2072640Y2424176D02*
G01*
X2125979Y2424176D01*
X2072640Y2424176D02*
G01*
X2019300Y2424176D01*
X2456179Y3138170D02*
G01*
X2319020Y3138170D01*
X2298700Y2424176D02*
G01*
X2352040Y2424176D01*
X2352040Y2424176D02*
G01*
X2405379Y2424176D01*
X2352042Y2424173D02*
G01*
X2248915Y2527300D01*
X2247900Y2527300D01*
X1587500Y1308100D02*
G01*
X1727200Y1168400D01*
X1861820Y1168400D01*
X1587500Y1054100D02*
G01*
X1849120Y1054100D01*
X1861820Y1041400D01*
X2755900Y1816100D02*
G01*
X2623820Y1684020D01*
X2623820Y1545844D01*
X2500375Y1422400D01*
X2481834Y1422400D01*
X2755900Y1562100D02*
G01*
X2755900Y1531620D01*
X2519679Y1295400D01*
X2481834Y1295400D01*
X2755900Y1308100D02*
G01*
X2616200Y1168400D01*
X2481834Y1168400D01*
X1771904Y387095D02*
G01*
X1771904Y807720D01*
X2132584Y1168400D01*
X2481834Y1168400D01*
X2481834Y1168400D01*
X2755900Y1054100D02*
G01*
X2494534Y1054100D01*
X2481834Y1041400D01*
X2755900Y2324100D02*
G01*
X2623820Y2192020D01*
X2623820Y1799844D01*
X2500375Y1676400D01*
X2481834Y1676400D01*
X2481834Y1676400D02*
G01*
X2457958Y1676400D01*
X2013458Y1231900D01*
X1775713Y1231900D01*
X1724405Y1283207D01*
X1724405Y1350263D01*
X1639570Y1435100D01*
X1225804Y1435100D01*
X1195323Y1465579D01*
X1116076Y1465579D01*
X1116076Y1358900D02*
G01*
X1116076Y1465579D01*
X1587500Y1562100D02*
G01*
X1587500Y1557020D01*
X1587500Y1557020D02*
G01*
X1587500Y1546860D01*
X1838959Y1295400D01*
X1861820Y1295400D01*
X1116076Y1968500D02*
G01*
X1116076Y1861820D01*
X1861820Y1422400D02*
G01*
X1843024Y1422400D01*
X1719579Y1545844D01*
X1719579Y1684020D01*
X1587500Y1816100D01*
X1587500Y1816100D02*
G01*
X1161795Y1816100D01*
X1116076Y1861820D01*
X1861820Y1549400D02*
G01*
X1890268Y1549400D01*
X1999234Y1658365D01*
X1999234Y2070100D01*
X1587500Y2324100D02*
G01*
X1696973Y2214626D01*
X1696973Y1810004D01*
X1830831Y1676400D01*
X1861820Y1676400D01*
X915923Y1252220D02*
G01*
X814578Y1252220D01*
X597662Y1035304D01*
X915923Y1358900D02*
G01*
X915923Y1252220D01*
X505968Y1035304D02*
G01*
X597662Y1035304D01*
X256031Y1130300D02*
G01*
X164337Y1130300D01*
X915923Y1968500D02*
G01*
X915923Y1861820D01*
X505968Y1759204D02*
G01*
X597662Y1759204D01*
X915923Y2166620D02*
G01*
X649478Y2166620D01*
X597662Y2114804D01*
X915923Y2273300D02*
G01*
X915923Y2166620D01*
X505968Y2114804D02*
G01*
X597662Y2114804D01*
X915923Y2471420D02*
G01*
X611378Y2471420D01*
X597662Y2457704D01*
X915923Y2578100D02*
G01*
X915923Y2471420D01*
X505968Y2457704D02*
G01*
X597662Y2457704D01*
X2456179Y2909570D02*
G01*
X2593340Y2909570D01*
X2298700Y2224023D02*
G01*
X2481834Y2224023D01*
X2755900Y2578100D02*
G01*
X2481834Y2303779D01*
X2481834Y2224023D01*
X2481834Y2224023D02*
G01*
X2481834Y1803400D01*
X505968Y1225295D02*
G01*
X414273Y1225295D01*
X505968Y1593595D02*
G01*
X423418Y1593595D01*
X414273Y1225295D02*
G01*
X414273Y1584452D01*
X423418Y1593595D01*
X423418Y1593595D02*
G01*
X414273Y1602739D01*
X414273Y1949195D01*
X505968Y1949195D02*
G01*
X424942Y1949195D01*
X424942Y1949195D02*
G01*
X414273Y1949195D01*
X414273Y1949195D02*
G01*
X414273Y2304795D01*
X505968Y2304795D02*
G01*
X424942Y2304795D01*
X424942Y2304795D02*
G01*
X414273Y2304795D01*
X414273Y2304795D02*
G01*
X414273Y2556002D01*
X505968Y2647695D01*
X2298700Y2224023D02*
G01*
X2019300Y2224023D01*
X1912620Y2224023D02*
G01*
X1912620Y2628900D01*
X1836420Y2705100D01*
X2019300Y2224023D02*
G01*
X1912620Y2224023D01*
X2755900Y2578100D02*
G01*
X2755900Y2747010D01*
X2593340Y2909570D01*
X505968Y1225295D02*
G01*
X597662Y1225295D01*
X1836420Y2909570D02*
G01*
X1836420Y2753868D01*
X1836420Y2753868D02*
G01*
X1836420Y2705100D01*
X1836420Y2753868D02*
G01*
X703834Y2753868D01*
X597662Y2647695D01*
X505968Y2647695D02*
G01*
X597662Y2647695D01*
X982979Y3366770D02*
G01*
X256031Y2639821D01*
X256031Y2552700D01*
X982979Y3489960D02*
G01*
X982979Y3366770D01*
D12*
X2421707Y1041400D02*
G01*
X2541706Y1041400D01*
X2421707Y1168400D02*
G01*
X2541706Y1168400D01*
X2421707Y1295400D02*
G01*
X2541706Y1295400D01*
X2421707Y1422400D02*
G01*
X2541706Y1422400D01*
X2421707Y1549400D02*
G01*
X2541706Y1549400D01*
X2421707Y1676400D02*
G01*
X2541706Y1676400D01*
X2421707Y1803400D02*
G01*
X2541706Y1803400D01*
X1801693Y1041400D02*
G01*
X1921692Y1041400D01*
X1801693Y1168400D02*
G01*
X1921692Y1168400D01*
X1801693Y1295400D02*
G01*
X1921692Y1295400D01*
X1801693Y1422400D02*
G01*
X1921692Y1422400D01*
X1801693Y1549400D02*
G01*
X1921692Y1549400D01*
X1801693Y1676400D02*
G01*
X1921692Y1676400D01*
X1801693Y1803400D02*
G01*
X1921692Y1803400D01*
D15*
G01*
X256031Y2552700D03*
G01*
X505968Y2647695D03*
G01*
X505968Y2457704D03*
G01*
X256031Y2209800D03*
G01*
X505968Y2304795D03*
G01*
X505968Y2114804D03*
G01*
X256031Y1854200D03*
G01*
X505968Y1949195D03*
G01*
X505968Y1759204D03*
G01*
X256031Y1498600D03*
G01*
X505968Y1593595D03*
G01*
X505968Y1403604D03*
G01*
X256031Y1130300D03*
G01*
X505968Y1225295D03*
G01*
X505968Y1035304D03*
G36*
X1065999Y2655600D02*
G01*
X1165999Y2655600D01*
X1165999Y2500599D01*
X1065999Y2500599D01*
G37*
G36*
X866000Y2655600D02*
G01*
X966000Y2655600D01*
X966000Y2500599D01*
X866000Y2500599D01*
G37*
G36*
X1065999Y2350800D02*
G01*
X1165999Y2350800D01*
X1165999Y2195799D01*
X1065999Y2195799D01*
G37*
G36*
X866000Y2350800D02*
G01*
X966000Y2350800D01*
X966000Y2195799D01*
X866000Y2195799D01*
G37*
G36*
X1065999Y2046000D02*
G01*
X1165999Y2046000D01*
X1165999Y1890999D01*
X1065999Y1890999D01*
G37*
G36*
X866000Y2046000D02*
G01*
X966000Y2046000D01*
X966000Y1890999D01*
X866000Y1890999D01*
G37*
G36*
X1065999Y1741200D02*
G01*
X1165999Y1741200D01*
X1165999Y1586199D01*
X1065999Y1586199D01*
G37*
G36*
X866000Y1741200D02*
G01*
X966000Y1741200D01*
X966000Y1586199D01*
X866000Y1586199D01*
G37*
G36*
X1065999Y1436400D02*
G01*
X1165999Y1436400D01*
X1165999Y1281399D01*
X1065999Y1281399D01*
G37*
G36*
X866000Y1436400D02*
G01*
X966000Y1436400D01*
X966000Y1281399D01*
X866000Y1281399D01*
G37*
D17*
G01*
X2298700Y2224100D03*
G01*
X2298700Y2424099D03*
G01*
X2019300Y2224100D03*
G01*
X2019300Y2424099D03*
D18*
G01*
X2456179Y2678429D03*
G01*
X2456179Y2909570D03*
G01*
X2456179Y3138170D03*
D19*
G01*
X1836420Y2909570D03*
D20*
G01*
X1771904Y387095D03*
G01*
X1337310Y387095D03*
G36*
X889000Y3583939D02*
G01*
X1076960Y3583939D01*
X1076960Y3395979D01*
X889000Y3395979D01*
G37*
D22*
G01*
X1259839Y3489960D03*
G01*
X1536700Y3489960D03*
G01*
X1813559Y3489960D03*
G01*
X2090420Y3489960D03*
G01*
X1122679Y3774439D03*
G01*
X1399539Y3774439D03*
G01*
X1673860Y3774439D03*
G01*
X1950720Y3774439D03*
D23*
G01*
X287020Y3632200D03*
G01*
X2786379Y3632200D03*
G36*
X1121501Y3114039D02*
G01*
X1291501Y3114039D01*
X1291501Y2956560D01*
X1121501Y2956560D01*
G37*
D25*
G01*
X1460500Y3035300D03*
D26*
G01*
X1587500Y2578100D03*
D27*
G01*
X1587500Y2324100D03*
G01*
X1587500Y2070100D03*
G01*
X1587500Y1816100D03*
G01*
X1587500Y1562100D03*
G01*
X1587500Y1308100D03*
G01*
X1587500Y1054100D03*
D26*
G01*
X2755900Y1054100D03*
D27*
G01*
X2755900Y1308100D03*
G01*
X2755900Y1562100D03*
G01*
X2755900Y1816100D03*
G01*
X2755900Y2070100D03*
G01*
X2755900Y2324100D03*
G01*
X2755900Y2578100D03*
D13*
G01*
X2247900Y2527300D03*
G01*
X1999234Y2070100D03*
G01*
X342900Y1638300D03*
G01*
X342900Y2082800D03*
D14*
G01*
X825500Y2806700D03*
G01*
X1016000Y1041400D03*
G01*
X2501900Y736600D03*
G01*
X279400Y165100D03*
M02*
